<svg width="251" height="234" viewBox="0 0 251 234" fill="none" xmlns="http://www.w3.org/2000/svg">
<g clip-path="url(#clip0_870_8978)">
<path d="M232.025 179.017L243.285 180.771C247.097 176.171 249.724 170.713 250.939 164.871C242.706 171.589 230.185 168.019 220.201 171.687C217.096 172.855 214.294 174.704 212.004 177.098C209.713 179.491 207.992 182.368 206.969 185.515L201.466 191.416C206.447 193.382 211.797 194.248 217.146 193.954C222.495 193.661 227.717 192.215 232.452 189.716C235.094 188.288 237.545 186.534 239.748 184.495C235.808 182.022 232.025 179.017 232.025 179.017Z" fill="#F2F2F2"/>
<path d="M228.028 161.067L238.891 157.631C240.244 151.819 240.154 145.766 238.628 139.998C234.264 149.671 221.46 152.041 214.165 159.762C211.908 162.188 210.228 165.088 209.249 168.249C208.27 171.41 208.017 174.75 208.509 178.021L206.224 185.749C211.562 185.294 216.737 183.691 221.394 181.05C226.05 178.41 230.077 174.794 233.197 170.453C234.922 168 236.332 165.34 237.391 162.537C232.758 162.075 228.028 161.067 228.028 161.067Z" fill="#F2F2F2"/>
<path d="M251 194.991C251 195.049 250.989 195.106 250.967 195.16C250.945 195.213 250.912 195.262 250.871 195.303C250.83 195.344 250.781 195.376 250.727 195.398C250.674 195.42 250.616 195.432 250.558 195.432H0.442066C0.324823 195.432 0.21238 195.385 0.129477 195.303C0.0465739 195.22 0 195.108 0 194.991C0 194.874 0.0465739 194.762 0.129477 194.679C0.21238 194.597 0.324823 194.55 0.442066 194.55H250.558C250.616 194.55 250.674 194.561 250.727 194.583C250.781 194.606 250.83 194.638 250.871 194.679C250.912 194.72 250.945 194.769 250.967 194.822C250.989 194.876 251 194.933 251 194.991Z" fill="#CCCCCC"/>
<path d="M103.643 176.206C147.754 176.206 183.512 140.563 183.512 96.5945C183.512 52.6265 147.754 16.9834 103.643 16.9834C59.5329 16.9834 23.7744 52.6265 23.7744 96.5945C23.7744 140.563 59.5329 176.206 103.643 176.206Z" fill="#E6E6E6"/>
<path d="M172.368 96.5946C172.376 107.284 169.871 117.826 165.054 127.375C160.236 136.925 153.241 145.217 144.629 151.586C144.053 152.015 143.466 152.433 142.876 152.841C131.359 160.82 117.669 165.097 103.643 165.097C89.6176 165.097 75.9276 160.82 64.411 152.841C63.8203 152.433 63.2334 152.015 62.6576 151.586C54.0512 145.211 47.0604 136.918 42.2439 127.37C37.4274 117.821 34.9189 107.282 34.9189 96.5946C34.9189 85.9071 37.4274 75.3678 42.2439 65.8193C47.0604 56.2708 54.0512 47.978 62.6576 41.6037C63.2334 41.1742 63.8203 40.7558 64.411 40.3484C75.9276 32.3689 89.6176 28.092 103.643 28.092C117.669 28.092 131.359 32.3689 142.876 40.3484C143.466 40.7558 144.053 41.1742 144.629 41.6037C153.241 47.9724 160.236 56.2641 165.054 65.8138C169.871 75.3636 172.376 85.9057 172.368 96.5946Z" fill="white"/>
<path d="M103.643 159.173C138.316 159.173 166.424 131.156 166.424 96.5946C166.424 62.0337 138.316 34.0166 103.643 34.0166C68.9702 34.0166 40.8623 62.0337 40.8623 96.5946C40.8623 131.156 68.9702 159.173 103.643 159.173Z" fill="#31572C"/>
<path opacity="0.2" d="M103.807 34.1914C102.855 34.1914 101.909 34.2162 100.968 34.258C116.836 35.6478 131.58 42.9978 142.213 54.8189C152.847 66.64 158.575 82.0481 158.237 97.9217C157.899 113.795 151.52 128.947 140.393 140.308C129.266 151.669 114.222 158.389 98.3096 159.106C100.122 159.263 101.954 159.347 103.807 159.347C120.458 159.347 136.426 152.754 148.2 141.019C159.973 129.283 166.588 113.366 166.588 96.7695C166.588 80.1727 159.973 64.2558 148.2 52.5201C136.426 40.7844 120.458 34.1914 103.807 34.1914Z" fill="black"/>
<path d="M103.828 29.573C103.287 29.5739 102.768 29.7888 102.385 30.1705C102.002 30.5523 101.786 31.0697 101.785 31.6096V40.4964C101.785 41.0365 102 41.5545 102.384 41.9365C102.767 42.3184 103.286 42.5329 103.828 42.5329C104.37 42.5329 104.89 42.3184 105.273 41.9365C105.656 41.5545 105.871 41.0365 105.871 40.4964V31.6096C105.871 31.0697 105.655 30.5523 105.272 30.1705C104.889 29.7888 104.37 29.5739 103.828 29.573Z" fill="white"/>
<path d="M144.628 41.6036C144.053 41.174 143.466 40.7556 142.875 40.3483C142.521 40.3253 142.166 40.3948 141.847 40.55C141.528 40.7052 141.255 40.9407 141.055 41.2333L136.036 48.576C135.731 49.0224 135.616 49.5712 135.717 50.1017C135.818 50.6322 136.127 51.101 136.575 51.405C137.022 51.7089 137.573 51.8231 138.105 51.7224C138.637 51.6217 139.108 51.3144 139.413 50.8681L144.431 43.5253C144.622 43.2468 144.74 42.925 144.775 42.5894C144.809 42.2537 144.759 41.9149 144.628 41.6036Z" fill="white"/>
<path d="M167.43 75.0848C167.329 74.8372 167.18 74.6119 166.992 74.4217C166.804 74.2315 166.58 74.0801 166.333 73.9763C166.086 73.8724 165.821 73.8181 165.553 73.8164C165.284 73.8148 165.019 73.8658 164.77 73.9665L156.509 77.3102C156.007 77.5138 155.607 77.9076 155.397 78.4049C155.186 78.9023 155.183 79.4625 155.387 79.9626C155.59 80.4626 155.985 80.8616 156.484 81.0717C156.983 81.2819 157.545 81.2861 158.047 81.0834L166.308 77.7397C166.81 77.5351 167.209 77.1408 167.419 76.6432C167.63 76.1456 167.633 75.5852 167.43 75.0848Z" fill="white"/>
<path d="M71.2494 48.576L66.2307 41.2333C66.0307 40.9407 65.7576 40.7052 65.4384 40.55C65.1191 40.3948 64.7648 40.3253 64.4104 40.3483C63.8197 40.7556 63.2328 41.174 62.657 41.6036C62.5265 41.9149 62.4761 42.2537 62.5105 42.5894C62.5449 42.925 62.6629 43.2468 62.8539 43.5253L67.8726 50.8681C68.1776 51.3144 68.6479 51.6217 69.1801 51.7224C69.7124 51.8231 70.263 51.7089 70.7108 51.405C71.1585 51.101 71.4669 50.6322 71.5679 50.1017C71.6689 49.5712 71.5543 49.0224 71.2494 48.576Z" fill="white"/>
<path d="M50.7775 77.3102L42.5157 73.9665C42.0137 73.7633 41.4514 73.7672 40.9523 73.9773C40.4532 74.1874 40.0583 74.5865 39.8543 75.0867C39.6504 75.587 39.6542 76.1476 39.8649 76.6451C40.0756 77.1426 40.4759 77.5363 40.9777 77.7397L49.2395 81.0834C49.7414 81.2861 50.3034 81.2819 50.8022 81.0717C51.301 80.8615 51.6956 80.4626 51.8995 79.9625C52.1033 79.4625 52.0996 78.9022 51.8892 78.4049C51.6788 77.9075 51.2789 77.5138 50.7775 77.3102Z" fill="white"/>
<path d="M103.828 150.656C103.287 150.657 102.768 150.872 102.385 151.254C102.002 151.635 101.786 152.153 101.785 152.693V161.579C101.785 162.12 102 162.638 102.384 163.019C102.767 163.401 103.286 163.616 103.828 163.616C104.37 163.616 104.89 163.401 105.273 163.019C105.656 162.638 105.871 162.12 105.871 161.579V152.693C105.871 152.153 105.655 151.635 105.272 151.254C104.889 150.872 104.37 150.657 103.828 150.656Z" fill="white"/>
<path d="M144.431 149.664L139.413 142.321C139.262 142.1 139.069 141.911 138.844 141.764C138.62 141.618 138.369 141.516 138.105 141.467C137.842 141.417 137.571 141.419 137.308 141.474C137.046 141.528 136.796 141.634 136.575 141.784C136.353 141.935 136.163 142.127 136.016 142.351C135.869 142.574 135.767 142.825 135.717 143.087C135.667 143.35 135.67 143.62 135.724 143.882C135.779 144.144 135.885 144.392 136.036 144.613L141.055 151.956C141.255 152.248 141.528 152.484 141.847 152.639C142.166 152.794 142.521 152.864 142.875 152.841C143.466 152.433 144.053 152.015 144.628 151.585C144.759 151.274 144.809 150.935 144.775 150.6C144.74 150.264 144.622 149.942 144.431 149.664Z" fill="white"/>
<path d="M166.309 115.449L158.047 112.106C157.545 111.903 156.983 111.906 156.484 112.116C155.984 112.327 155.59 112.726 155.386 113.226C155.182 113.726 155.185 114.287 155.396 114.784C155.607 115.282 156.007 115.675 156.509 115.879L164.771 119.223C165.273 119.425 165.835 119.421 166.333 119.211C166.832 119.001 167.227 118.602 167.431 118.102C167.635 117.602 167.631 117.041 167.42 116.544C167.21 116.047 166.81 115.653 166.309 115.449Z" fill="white"/>
<path d="M70.7107 141.784C70.2629 141.48 69.7124 141.366 69.1802 141.467C68.6479 141.568 68.1776 141.875 67.8726 142.321L62.8539 149.664C62.6629 149.942 62.5449 150.264 62.5105 150.6C62.4761 150.935 62.5265 151.274 62.657 151.586C63.2328 152.015 63.8198 152.433 64.4104 152.841C64.7648 152.864 65.1191 152.794 65.4384 152.639C65.7576 152.484 66.0307 152.248 66.2307 151.956L71.2494 144.613C71.4004 144.392 71.5063 144.144 71.5609 143.882C71.6156 143.62 71.618 143.35 71.5679 143.087C71.5179 142.825 71.4165 142.574 71.2694 142.351C71.1223 142.127 70.9325 141.935 70.7107 141.784Z" fill="white"/>
<path d="M51.8989 113.224C51.798 112.976 51.6492 112.751 51.4609 112.561C51.2726 112.371 51.0485 112.219 50.8015 112.115C50.5545 112.012 50.2894 111.957 50.0213 111.956C49.7532 111.954 49.4874 112.005 49.2391 112.106L40.9773 115.449C40.4758 115.653 40.076 116.047 39.8656 116.544C39.6552 117.041 39.6515 117.602 39.8553 118.102C40.0591 118.602 40.4538 119.001 40.9526 119.211C41.4513 119.421 42.0134 119.425 42.5153 119.223L50.7771 115.879C51.2783 115.674 51.6778 115.28 51.8881 114.782C52.0983 114.285 52.1022 113.724 51.8989 113.224Z" fill="white"/>
<path d="M106.48 95.584C106.669 96.6972 106.407 97.8395 105.751 98.7604C105.096 99.6813 104.101 100.305 102.985 100.496L66.7287 106.643C66.1756 106.737 65.6094 106.721 65.0624 106.597C64.5155 106.473 63.9984 106.242 63.5408 105.919C63.0832 105.595 62.694 105.185 62.3955 104.711C62.0969 104.238 61.8948 103.711 61.8007 103.159C61.7066 102.608 61.7224 102.044 61.8472 101.498C61.9719 100.953 62.2031 100.438 62.5277 99.9818C62.8523 99.5256 63.2638 99.1377 63.7387 98.8401C64.2137 98.5425 64.7428 98.3411 65.2959 98.2473L101.552 92.1001C102.669 91.9121 103.815 92.1732 104.739 92.8264C105.663 93.4795 106.289 94.4712 106.48 95.584Z" fill="#3F3D56"/>
<path d="M144.638 135.623C144.117 136.145 143.41 136.44 142.671 136.443C141.932 136.446 141.223 136.157 140.698 135.639L101.669 97.0407C101.145 96.5218 100.849 95.8168 100.847 95.0807C100.844 94.3446 101.135 93.6376 101.655 93.1151C102.175 92.5926 102.882 92.2972 103.621 92.294C104.359 92.2907 105.069 92.5799 105.593 93.0978L144.622 131.696C145.146 132.215 145.442 132.92 145.445 133.656C145.448 134.393 145.158 135.1 144.638 135.623Z" fill="#3F3D56"/>
<path d="M103.643 101.408C106.31 101.408 108.472 99.253 108.472 96.5945C108.472 93.9359 106.31 91.7808 103.643 91.7808C100.976 91.7808 98.8135 93.9359 98.8135 96.5945C98.8135 99.253 100.976 101.408 103.643 101.408Z" fill="#CCCCCC"/>
<path d="M70.3787 13.1245C62.9658 24.7413 51.6554 32.4507 37.7068 37.5153C37.4312 37.7211 37.1176 37.8707 36.784 37.9557C36.4503 38.0407 36.1031 38.0593 35.7623 38.0105C35.4214 37.9618 35.0935 37.8465 34.7973 37.6715C34.5011 37.4964 34.2424 37.2649 34.036 36.9901C26.4592 26.9064 28.1701 12.4947 38.1698 4.78951C40.5873 2.9299 43.3514 1.56749 46.3016 0.781388C49.2517 -0.00471693 52.3291 -0.198867 55.3551 0.210215C58.3811 0.619297 61.2955 1.62346 63.929 3.1644C66.5625 4.70535 68.8627 6.75239 70.696 9.18667L70.9056 9.46557C71.112 9.74031 71.2621 10.0529 71.3474 10.3855C71.4326 10.718 71.4513 11.0641 71.4024 11.4038C71.3535 11.7436 71.2379 12.0704 71.0622 12.3657C70.8866 12.6609 70.6543 12.9188 70.3787 13.1245Z" fill="#E6E6E6"/>
<path d="M136.589 9.18666C138.423 6.75238 140.723 4.70534 143.356 3.1644C145.99 1.62345 148.904 0.619298 151.93 0.210216C154.956 -0.198865 158.034 -0.00472099 160.984 0.781384C163.934 1.56749 166.698 2.92989 169.116 4.7895C179.115 12.4947 180.826 26.9064 173.249 36.9901C173.043 37.2649 172.784 37.4964 172.488 37.6715C172.192 37.8465 171.864 37.9618 171.523 38.0105C171.182 38.0593 170.835 38.0407 170.501 37.9557C170.168 37.8707 169.854 37.7211 169.579 37.5153C156.63 32.5737 146.011 24.0224 136.907 13.1245C136.35 12.709 135.982 12.09 135.883 11.4038C135.784 10.7176 135.963 10.0204 136.38 9.46555L136.589 9.18666Z" fill="#E6E6E6"/>
<path d="M133.341 165.567C132.869 165.831 132.521 166.271 132.374 166.791C132.227 167.31 132.292 167.867 132.556 168.338L144.347 189.342C144.612 189.813 145.054 190.16 145.575 190.307C146.096 190.454 146.655 190.388 147.128 190.124C147.601 189.86 147.949 189.42 148.096 188.901C148.244 188.381 148.178 187.824 147.913 187.353L136.122 166.349C135.856 165.879 135.415 165.532 134.894 165.385C134.372 165.239 133.814 165.304 133.341 165.567Z" fill="#E6E6E6"/>
<path d="M71.1648 166.349L59.3732 187.353C59.1088 187.824 59.0429 188.381 59.1902 188.901C59.3375 189.42 59.6859 189.86 60.1587 190.124C60.6315 190.388 61.19 190.454 61.7115 190.307C62.2329 190.16 62.6745 189.813 62.9392 189.342L74.7308 168.338C74.8619 168.105 74.9455 167.848 74.977 167.583C75.0085 167.317 74.9872 167.048 74.9143 166.79C74.8414 166.533 74.7184 166.292 74.5522 166.082C74.386 165.872 74.1799 165.697 73.9458 165.566C73.7116 165.436 73.4539 165.352 73.1874 165.321C72.9209 165.29 72.6508 165.311 72.3925 165.384C72.1343 165.456 71.893 165.579 71.6823 165.745C71.4717 165.91 71.2958 166.116 71.1648 166.349Z" fill="#E6E6E6"/>
<path d="M146.735 194.72C150.223 194.72 153.05 191.901 153.05 188.425C153.05 184.948 150.223 182.13 146.735 182.13C143.247 182.13 140.42 184.948 140.42 188.425C140.42 191.901 143.247 194.72 146.735 194.72Z" fill="#E6E6E6"/>
<path d="M151.193 33.6463C154.681 33.6463 157.508 30.828 157.508 27.3515C157.508 23.8749 154.681 21.0566 151.193 21.0566C147.705 21.0566 144.878 23.8749 144.878 27.3515C144.878 30.828 147.705 33.6463 151.193 33.6463Z" fill="#E6E6E6"/>
<path d="M103.271 18.8348C106.759 18.8348 109.586 16.0165 109.586 12.5399C109.586 9.06341 106.759 6.24512 103.271 6.24512C99.7835 6.24512 96.9561 9.06341 96.9561 12.5399C96.9561 16.0165 99.7835 18.8348 103.271 18.8348Z" fill="#E6E6E6"/>
<path d="M57.5789 32.9056C61.0667 32.9056 63.8941 30.0873 63.8941 26.6108C63.8941 23.1342 61.0667 20.3159 57.5789 20.3159C54.0911 20.3159 51.2637 23.1342 51.2637 26.6108C51.2637 30.0873 54.0911 32.9056 57.5789 32.9056Z" fill="#E6E6E6"/>
<path d="M61.6658 194.72C65.1536 194.72 67.981 191.901 67.981 188.425C67.981 184.948 65.1536 182.13 61.6658 182.13C58.178 182.13 55.3506 184.948 55.3506 188.425C55.3506 191.901 58.178 194.72 61.6658 194.72Z" fill="#E6E6E6"/>
<path d="M141.782 132.083C142.031 132.472 142.362 132.801 142.753 133.048C143.143 133.295 143.583 133.454 144.042 133.513C144.5 133.572 144.966 133.53 145.407 133.391C145.848 133.251 146.253 133.016 146.593 132.704L156.502 137.997L155.971 132.197L146.642 128.06C146.077 127.526 145.336 127.216 144.557 127.19C143.779 127.165 143.018 127.424 142.419 127.92C141.82 128.416 141.424 129.113 141.307 129.881C141.189 130.648 141.358 131.432 141.782 132.083Z" fill="#FFB7B7"/>
<path d="M149.002 134.107L152.885 128.764L171.593 137.579L194.873 133.225C196.024 133.01 197.208 133.05 198.341 133.342C199.475 133.634 200.53 134.172 201.431 134.916C202.333 135.66 203.059 136.594 203.558 137.649C204.058 138.705 204.318 139.857 204.32 141.024C204.321 143.132 203.484 145.154 201.991 146.648C200.499 148.141 198.473 148.983 196.358 148.989L169.68 149.038L149.002 134.107Z" fill="#3F3D56"/>
<path d="M143.021 226.391L139.092 224.518L144.489 208.149L150.288 210.913L143.021 226.391Z" fill="#FFB7B7"/>
<path d="M169.361 223.752C169.076 223.931 168.79 224.106 168.501 224.282C167.927 224.633 167.347 224.978 166.767 225.317C166.475 225.487 166.181 225.657 165.889 225.824V225.832L165.872 225.835L165.866 225.838L165.422 225.947L164.784 224.267L164.49 223.494L164.074 222.398L163.312 220.393L159.301 209.835L165.537 208.302L165.771 209.254H165.774L165.889 209.726L168.068 218.534L168.513 220.335L168.527 220.39L168.796 221.466L169.026 222.398L169.283 223.439L169.361 223.752Z" fill="#FFB7B7"/>
<path d="M206.564 186.678C206.169 187.311 205.765 187.941 205.358 188.565C204.602 189.727 203.825 190.872 203.029 191.999C203.029 192.002 203.026 192.002 203.023 192.005C202.558 192.434 202.045 192.808 201.493 193.118C201.47 193.136 201.444 193.147 201.421 193.162C201.015 193.385 200.583 193.558 200.134 193.677C199.973 193.717 199.808 193.757 199.646 193.797C199.063 193.935 198.486 194.053 197.912 194.157C196.89 194.338 195.88 194.468 194.876 194.548C194.795 194.557 194.714 194.563 194.633 194.568C190.504 194.87 186.484 194.384 182.287 193.587C180.215 193.196 178.1 192.727 175.909 192.241C175.194 192.08 174.475 191.922 173.748 191.764C173.693 191.752 173.635 191.738 173.578 191.726C172.539 191.499 171.482 191.275 170.4 191.053C169.038 190.774 167.633 190.504 166.172 190.248L166.276 192.299C166.363 193.876 166.692 195.432 167.252 196.91C167.875 198.728 168.368 200.166 167.327 203.161L166.824 204.611C167.085 205.331 167.174 206.101 167.085 206.861C166.997 207.621 166.733 208.35 166.314 208.992L166.213 209.144L170.4 219.704L170.671 220.389H168.527L165.889 220.392H161.419L154.969 207.493L154.66 206.877V206.846L155.327 182.058C155.335 181.839 155.353 181.618 155.382 181.399C155.499 180.405 155.814 179.445 156.308 178.573C156.802 177.702 157.465 176.938 158.259 176.325C159.019 175.732 159.89 175.296 160.821 175.043C161.752 174.789 162.725 174.722 163.682 174.846L165.889 175.131L170.4 175.712L173.578 176.123L173.641 176.132L183.012 177.34L183.684 174.607L183.808 174.561L187.753 173.12L201.398 168.135L201.433 168.123L202.33 167.795L202.437 167.968C202.469 168.02 202.501 168.072 202.529 168.123C203.417 169.709 204.139 171.38 204.685 173.111C205.604 175.94 206.36 178.818 206.951 181.733C206.977 181.859 207 181.974 207.02 182.078L207.029 182.11C207.037 182.158 207.043 182.19 207.046 182.199C207.361 183.505 207.141 185.098 206.564 186.678Z" fill="#2F2E41"/>
<path d="M207.141 177.543C207.097 177.358 207.043 177.171 206.985 176.99C206.527 175.618 205.993 174.271 205.386 172.957C204.705 171.461 203.888 169.859 202.916 168.124C202.445 167.284 201.939 166.411 201.398 165.504C201.126 165.049 200.844 164.586 200.552 164.114C200.541 164.093 200.528 164.072 200.515 164.051L200.431 163.913L186.93 165.714L181.903 166.384L181.603 168.881L181.531 169.5C181.528 169.5 181.528 169.5 181.531 169.502L181.329 171.188V171.191L181.06 173.418L181.037 173.415L173.577 172.451L165.889 171.459L161.759 170.926C160.802 170.802 159.83 170.869 158.899 171.123C157.968 171.376 157.097 171.812 156.336 172.405C155.543 173.018 154.88 173.783 154.386 174.654C153.892 175.525 153.577 176.486 153.459 177.479C153.433 177.681 153.416 177.888 153.407 178.092L149.511 187.294C147.18 192.798 145.695 198.621 145.107 204.566L142.25 213.67L142.657 213.708L148.712 214.269L150.31 214.418L153.831 209.295C154.232 208.711 154.613 208.11 154.968 207.494C155.553 206.489 156.072 205.447 156.524 204.376L164.14 186.311C164.729 186.411 165.312 186.507 165.889 186.598C168.558 187.03 171.121 187.382 173.577 187.654C181.562 188.543 188.477 188.612 194.633 187.858C196.362 187.648 198.033 187.372 199.646 187.03C200.237 186.906 200.821 186.773 201.398 186.63C201.533 186.598 201.666 186.567 201.799 186.532C202.991 186.226 204.088 185.626 204.988 184.787C205.888 183.949 206.563 182.899 206.95 181.734C207.413 180.383 207.479 178.929 207.141 177.543Z" fill="#2F2E41"/>
<path d="M144.276 223.718L140.025 221.687L139.358 221.368L138.293 223.974L130.859 225.605C130.491 225.686 130.159 225.881 129.911 226.163C129.663 226.445 129.511 226.799 129.479 227.172C129.447 227.546 129.535 227.92 129.732 228.24C129.928 228.56 130.222 228.809 130.57 228.951L137.834 231.905L140.14 229.837L139.574 232.613L142.31 233.726L145.309 224.213L144.276 223.718Z" fill="#2F2E41"/>
<path d="M170.4 219.705L170.672 220.389H170.4V219.705Z" fill="#2F2E41"/>
<path d="M168.92 220.535L164.466 222.074L163.767 222.314L164.85 224.913L160.719 231.286C160.514 231.601 160.416 231.973 160.439 232.347C160.461 232.722 160.603 233.079 160.844 233.367C161.085 233.655 161.412 233.859 161.778 233.949C162.143 234.039 162.528 234.009 162.875 233.866L170.122 230.87L170.301 227.784L171.858 230.153L174.588 229.025L170.004 220.162L168.92 220.535Z" fill="#2F2E41"/>
<path d="M206.029 181.71C205.765 181.71 205.504 181.645 205.27 181.523L181.765 169.28L181.493 168.172L180.981 164.665L180.988 164.632L183.224 154.359C183.183 154.271 183.097 154.126 183.001 153.963C182.003 152.277 178.965 147.147 184.762 140.084L194.939 128.257L203.673 127.883L203.773 128.008C206.108 130.93 207.684 134.382 208.358 138.057C209.033 141.732 208.786 145.516 207.64 149.073L206.731 165.446L207.706 168.752C208.276 170.695 208.182 172.772 207.438 174.656L207.662 180.01C207.67 180.23 207.635 180.449 207.557 180.654C207.479 180.859 207.36 181.047 207.207 181.206C207.055 181.364 206.872 181.491 206.67 181.577C206.467 181.664 206.25 181.709 206.029 181.71Z" fill="#3F3D56"/>
<path d="M185.64 195.213C186.039 194.979 186.38 194.66 186.642 194.28C186.903 193.899 187.077 193.466 187.153 193.012C187.228 192.557 187.202 192.091 187.078 191.647C186.953 191.203 186.732 190.792 186.43 190.442L192.082 180.755L186.249 181.083L181.776 190.232C181.221 190.776 180.885 191.504 180.832 192.278C180.779 193.052 181.012 193.819 181.489 194.433C181.965 195.047 182.651 195.466 183.416 195.61C184.181 195.753 184.973 195.612 185.64 195.213Z" fill="#FFB7B7"/>
<path d="M187.92 188.091L182.698 184.037L192.187 165.707L188.632 142.365C188.456 141.211 188.537 140.033 188.87 138.914C189.202 137.795 189.778 136.763 190.555 135.89C191.333 135.018 192.294 134.327 193.37 133.867C194.446 133.406 195.61 133.187 196.78 133.225C198.893 133.297 200.892 134.202 202.337 135.74C203.783 137.279 204.556 139.327 204.489 141.433L203.61 168.011L187.92 188.091Z" fill="#3F3D56"/>
<path d="M189.337 123.343V114.728C189.335 111.666 190.553 108.729 192.724 106.563C194.894 104.396 197.84 103.178 200.911 103.176C203.983 103.174 206.93 104.389 209.103 106.552C211.276 108.716 212.498 111.651 212.5 114.713V114.728C214.542 118.968 213.265 120.984 212.5 123.343C212.5 123.754 212.336 124.148 212.044 124.439C211.753 124.729 211.358 124.893 210.945 124.893H190.893C190.48 124.893 190.085 124.73 189.793 124.439C189.502 124.148 189.338 123.754 189.337 123.343Z" fill="#2F2E41"/>
<path d="M197.121 124.334C201.908 124.334 205.79 120.465 205.79 115.692C205.79 110.92 201.908 107.051 197.121 107.051C192.333 107.051 188.451 110.92 188.451 115.692C188.451 120.465 192.333 124.334 197.121 124.334Z" fill="#FFB7B7"/>
<path d="M206.193 117.957C206.115 117.945 206.036 117.928 205.958 117.916C204.605 117.677 203.253 117.442 201.905 117.199L201.781 114.153L200.147 116.881C196.421 118.114 192.935 117.417 189.656 115.88C188.574 115.368 187.524 114.791 186.513 114.153C186.788 112.468 187.438 110.866 188.415 109.464C189.391 108.062 190.67 106.895 192.158 106.049C192.282 105.979 192.402 105.917 192.526 105.855L192.527 105.855L192.529 105.854L192.529 105.852L192.53 105.851C192.741 105.752 192.956 105.657 193.171 105.57C194.854 104.915 196.69 104.749 198.465 105.092C200.239 105.434 201.879 106.272 203.195 107.508C205.842 110.026 207.033 114.186 206.193 117.957Z" fill="#2F2E41"/>
</g>
<defs>
<clipPath id="clip0_870_8978">
<rect width="251" height="234" fill="white"/>
</clipPath>
</defs>
</svg>
