<svg width="320" height="362" viewBox="0 0 320 362" fill="none" xmlns="http://www.w3.org/2000/svg">
<rect y="268" width="320" height="94" rx="8" fill="#F4F6EE"/>
<path d="M61.9589 321H60.3909V309.432H61.9589L67.8789 318.376V309.432H69.4469V321H67.8789L61.9589 312.056V321ZM71.3729 317.08C71.3729 314.664 73.1009 312.968 75.4529 312.968C77.7889 312.968 79.5169 314.664 79.5169 317.08C79.5169 319.496 77.7889 321.192 75.4529 321.192C73.1009 321.192 71.3729 319.496 71.3729 317.08ZM72.8929 317.08C72.8929 318.712 73.9329 319.848 75.4529 319.848C76.9569 319.848 78.0129 318.712 78.0129 317.08C78.0129 315.448 76.9569 314.312 75.4529 314.312C73.9329 314.312 72.8929 315.448 72.8929 317.08ZM87.7648 321H86.2608V314.44H84.7248V313.176H86.2608V310.728H87.7648V313.176H89.3008V314.44H87.7648V321ZM92.8448 321.192C91.1648 321.192 90.1728 320.248 90.1728 318.824C90.1728 317.384 91.2448 316.488 93.0848 316.344L95.5488 316.152V315.928C95.5488 314.616 94.7648 314.152 93.7088 314.152C92.4448 314.152 91.7248 314.712 91.7248 315.656H90.4128C90.4128 314.024 91.7568 312.952 93.7728 312.952C95.7088 312.952 97.0208 313.976 97.0208 316.088V321H95.7408L95.5808 319.736C95.1808 320.632 94.1088 321.192 92.8448 321.192ZM93.2768 320.024C94.7008 320.024 95.5648 319.096 95.5648 317.624V317.208L93.5648 317.368C92.2368 317.496 91.6928 318.008 91.6928 318.776C91.6928 319.608 92.3008 320.024 93.2768 320.024ZM98.4636 318.728H99.9036C99.9036 319.528 100.512 320.008 101.504 320.008C102.56 320.008 103.168 319.576 103.168 318.856C103.168 318.328 102.912 318.008 102.096 317.8L100.72 317.48C99.3276 317.144 98.6716 316.456 98.6716 315.304C98.6716 313.864 99.8876 312.952 101.616 312.952C103.328 312.952 104.448 313.912 104.48 315.4H103.04C103.008 314.616 102.48 314.12 101.568 314.12C100.624 314.12 100.096 314.536 100.096 315.256C100.096 315.784 100.48 316.136 101.248 316.328L102.624 316.664C103.952 316.984 104.608 317.592 104.608 318.76C104.608 320.248 103.328 321.192 101.472 321.192C99.6316 321.192 98.4636 320.216 98.4636 318.728ZM107.812 321H106.308V309.224H107.812V316.856L111.284 313.176H113.172L110.18 316.296L113.156 321H111.428L109.14 317.384L107.812 318.776V321ZM121.064 321.192C119.384 321.192 118.392 320.248 118.392 318.824C118.392 317.384 119.464 316.488 121.304 316.344L123.768 316.152V315.928C123.768 314.616 122.984 314.152 121.928 314.152C120.664 314.152 119.944 314.712 119.944 315.656H118.632C118.632 314.024 119.976 312.952 121.992 312.952C123.928 312.952 125.24 313.976 125.24 316.088V321H123.96L123.8 319.736C123.4 320.632 122.328 321.192 121.064 321.192ZM121.496 320.024C122.92 320.024 123.784 319.096 123.784 317.624V317.208L121.784 317.368C120.456 317.496 119.912 318.008 119.912 318.776C119.912 319.608 120.52 320.024 121.496 320.024ZM126.682 318.728H128.122C128.122 319.528 128.73 320.008 129.722 320.008C130.778 320.008 131.386 319.576 131.386 318.856C131.386 318.328 131.13 318.008 130.314 317.8L128.938 317.48C127.546 317.144 126.89 316.456 126.89 315.304C126.89 313.864 128.106 312.952 129.834 312.952C131.546 312.952 132.666 313.912 132.698 315.4H131.258C131.226 314.616 130.698 314.12 129.786 314.12C128.842 314.12 128.314 314.536 128.314 315.256C128.314 315.784 128.698 316.136 129.466 316.328L130.842 316.664C132.17 316.984 132.826 317.592 132.826 318.76C132.826 320.248 131.546 321.192 129.69 321.192C127.85 321.192 126.682 320.216 126.682 318.728ZM133.854 318.728H135.294C135.294 319.528 135.902 320.008 136.894 320.008C137.95 320.008 138.558 319.576 138.558 318.856C138.558 318.328 138.302 318.008 137.486 317.8L136.11 317.48C134.718 317.144 134.062 316.456 134.062 315.304C134.062 313.864 135.278 312.952 137.006 312.952C138.718 312.952 139.838 313.912 139.87 315.4H138.43C138.398 314.616 137.87 314.12 136.958 314.12C136.014 314.12 135.486 314.536 135.486 315.256C135.486 315.784 135.87 316.136 136.638 316.328L138.014 316.664C139.342 316.984 139.998 317.592 139.998 318.76C139.998 320.248 138.718 321.192 136.862 321.192C135.022 321.192 133.854 320.216 133.854 318.728ZM142.402 311.32C141.858 311.32 141.41 310.872 141.41 310.328C141.41 309.768 141.858 309.336 142.402 309.336C142.946 309.336 143.394 309.768 143.394 310.328C143.394 310.872 142.946 311.32 142.402 311.32ZM141.666 321V313.176H143.17V321H141.666ZM144.858 316.888C144.858 314.68 146.282 312.952 148.554 312.952C149.818 312.952 150.794 313.528 151.29 314.504L151.402 313.176H152.746V320.68C152.746 323.144 151.226 324.712 148.826 324.712C146.698 324.712 145.242 323.512 144.954 321.528H146.458C146.65 322.68 147.514 323.352 148.826 323.352C150.298 323.352 151.258 322.392 151.258 320.904V319.336C150.746 320.248 149.722 320.792 148.49 320.792C146.266 320.792 144.858 319.08 144.858 316.888ZM146.362 316.856C146.362 318.328 147.274 319.48 148.746 319.48C150.266 319.48 151.194 318.392 151.194 316.856C151.194 315.352 150.298 314.264 148.762 314.264C147.258 314.264 146.362 315.416 146.362 316.856ZM156.42 321H154.916V313.176H156.276L156.436 314.376C156.932 313.48 157.924 312.952 159.028 312.952C161.092 312.952 162.036 314.216 162.036 316.216V321H160.532V316.552C160.532 314.968 159.796 314.328 158.644 314.328C157.236 314.328 156.42 315.336 156.42 316.856V321ZM167.495 321.192C165.191 321.192 163.607 319.528 163.607 317.096C163.607 314.648 165.159 312.952 167.431 312.952C169.655 312.952 171.111 314.488 171.111 316.808V317.368L165.063 317.384C165.175 319.032 166.039 319.944 167.527 319.944C168.695 319.944 169.463 319.464 169.719 318.568H171.127C170.743 320.248 169.431 321.192 167.495 321.192ZM167.431 314.216C166.119 314.216 165.287 315 165.095 316.376H169.607C169.607 315.08 168.759 314.216 167.431 314.216ZM175.927 321.192C173.655 321.192 172.279 319.496 172.279 317.112C172.279 314.712 173.671 312.952 175.991 312.952C177.191 312.952 178.199 313.48 178.727 314.44V309.224H180.215V321H178.871L178.743 319.576C178.231 320.648 177.175 321.192 175.927 321.192ZM176.231 319.832C177.767 319.832 178.711 318.696 178.711 317.064C178.711 315.464 177.767 314.312 176.231 314.312C174.695 314.312 173.799 315.464 173.799 317.064C173.799 318.68 174.695 319.832 176.231 319.832ZM188.968 321H187.464V314.44H185.928V313.176H187.464V310.728H188.968V313.176H190.504V314.44H188.968V321ZM191.264 317.08C191.264 314.664 192.992 312.968 195.344 312.968C197.68 312.968 199.408 314.664 199.408 317.08C199.408 319.496 197.68 321.192 195.344 321.192C192.992 321.192 191.264 319.496 191.264 317.08ZM192.784 317.08C192.784 318.712 193.824 319.848 195.344 319.848C196.848 319.848 197.904 318.712 197.904 317.08C197.904 315.448 196.848 314.312 195.344 314.312C193.824 314.312 192.784 315.448 192.784 317.08ZM204.695 324.504V323.272H205.703C206.423 323.272 206.999 323.16 207.367 322.168L207.639 321.416L204.487 313.176H206.071L208.343 319.48L210.663 313.176H212.215L208.519 322.76C207.991 324.104 207.207 324.664 206.007 324.664C205.511 324.664 205.095 324.6 204.695 324.504ZM212.607 317.08C212.607 314.664 214.335 312.968 216.687 312.968C219.023 312.968 220.751 314.664 220.751 317.08C220.751 319.496 219.023 321.192 216.687 321.192C214.335 321.192 212.607 319.496 212.607 317.08ZM214.127 317.08C214.127 318.712 215.167 319.848 216.687 319.848C218.191 319.848 219.247 318.712 219.247 317.08C219.247 315.448 218.191 314.312 216.687 314.312C215.167 314.312 214.127 315.448 214.127 317.08ZM227.637 313.176H229.125V321H227.781L227.621 319.816C227.173 320.632 226.133 321.192 224.981 321.192C223.157 321.192 222.133 319.96 222.133 318.04V313.176H223.637V317.544C223.637 319.224 224.357 319.864 225.509 319.864C226.885 319.864 227.637 318.984 227.637 317.304V313.176ZM234.93 324.504V323.272H235.938C236.658 323.272 237.234 323.16 237.602 322.168L237.874 321.416L234.722 313.176H236.306L238.578 319.48L240.898 313.176H242.45L238.754 322.76C238.226 324.104 237.442 324.664 236.242 324.664C235.746 324.664 235.33 324.6 234.93 324.504ZM246.73 321.192C244.426 321.192 242.842 319.528 242.842 317.096C242.842 314.648 244.394 312.952 246.666 312.952C248.89 312.952 250.346 314.488 250.346 316.808V317.368L244.298 317.384C244.41 319.032 245.274 319.944 246.762 319.944C247.93 319.944 248.698 319.464 248.954 318.568H250.362C249.978 320.248 248.666 321.192 246.73 321.192ZM246.666 314.216C245.354 314.216 244.522 315 244.33 316.376H248.842C248.842 315.08 247.994 314.216 246.666 314.216ZM254.155 321H252.651V314.44H251.115V313.176H252.651V310.728H254.155V313.176H255.691V314.44H254.155V321Z" fill="#132A13"/>
<g clip-path="url(#clip0_638_1046)">
<path d="M38.5004 227.644L38.4865 227.734C38.47 227.646 38.4541 227.556 38.4391 227.467C38.4115 227.324 38.3876 227.18 38.365 227.036C37.4702 221.393 37.9626 215.616 39.7996 210.207C40.1527 209.151 40.5549 208.114 41.0061 207.097C42.7318 203.158 45.1782 199.577 48.2189 196.54C49.2062 195.528 50.3327 194.662 51.5642 193.968C51.745 193.873 51.9268 193.782 52.1127 193.698C53.2516 193.144 54.534 192.958 55.783 193.165C56.2367 193.25 56.6764 193.398 57.0897 193.604C57.2346 193.675 57.3741 193.753 57.511 193.835C58.3459 194.384 59.0587 195.099 59.6049 195.936C60.1511 196.773 60.5188 197.714 60.6851 198.7C60.9224 200.171 60.8681 201.675 60.5255 203.125C60.4961 203.263 60.4644 203.401 60.4306 203.538C60.1877 204.505 59.8825 205.454 59.5169 206.381C55.8573 215.814 47.9928 224.182 38.5004 227.644Z" fill="#F2F2F2"/>
<path d="M57.0653 193.635C54.2098 197.745 51.5124 201.96 48.973 206.279C46.4367 210.595 44.0662 215.002 41.8617 219.502C40.6284 222.02 39.449 224.563 38.3236 227.132C38.199 227.416 38.6194 227.663 38.7456 227.375C40.7555 222.79 42.9366 218.285 45.289 213.861C47.64 209.442 50.156 205.116 52.8372 200.884C54.3374 198.516 55.8874 196.181 57.4873 193.878C57.6662 193.621 57.2436 193.378 57.0653 193.635Z" fill="white"/>
<path d="M60.1214 203.149C57.9756 205.943 54.8171 207.777 51.3306 208.253C50.358 208.386 49.3732 208.406 48.3961 208.311C48.0834 208.282 48.0812 208.77 48.3912 208.799C52.0276 209.106 55.6379 207.963 58.4383 205.619C59.2238 204.961 59.9303 204.214 60.5434 203.393C60.7311 203.143 60.3079 202.901 60.1214 203.149Z" fill="white"/>
<path d="M41.7939 218.303C41.295 217.591 40.8805 216.824 40.5587 216.016C39.8236 214.174 39.5627 212.176 39.7999 210.207C40.153 209.151 40.5552 208.115 41.0064 207.097C41.0337 207.137 41.0502 207.184 41.0541 207.232C41.0581 207.281 41.0494 207.329 41.0289 207.373C40.7112 208.136 40.4827 208.933 40.3482 209.749C39.8652 212.658 40.5357 215.641 42.2167 218.061C42.2379 218.088 42.2521 218.119 42.2578 218.153C42.2634 218.186 42.2604 218.221 42.249 218.253C42.2302 218.295 42.2006 218.332 42.1633 218.359C42.1259 218.387 42.082 218.404 42.036 218.409C41.99 218.414 41.9434 218.407 41.9009 218.388C41.8584 218.37 41.8215 218.341 41.7939 218.303Z" fill="white"/>
<path d="M51.6377 193.66C51.0504 196.004 51.2253 198.475 52.137 200.713C52.1693 200.769 52.2223 200.81 52.2845 200.827C52.3467 200.844 52.413 200.835 52.4692 200.804C52.5241 200.77 52.5641 200.717 52.581 200.655C52.5979 200.593 52.5903 200.527 52.5598 200.471C51.7062 198.347 51.5478 196.007 52.1075 193.788C52.1221 193.726 52.1122 193.662 52.0799 193.607C52.0476 193.553 51.9955 193.513 51.9346 193.496C51.8736 193.48 51.8086 193.487 51.7532 193.518C51.6978 193.548 51.6564 193.599 51.6377 193.66Z" fill="white"/>
<path d="M38.4409 215.864L38.4705 215.95C38.4151 215.88 38.3592 215.807 38.3047 215.736C38.2138 215.622 38.126 215.506 38.0391 215.388C34.6298 210.807 32.3872 205.463 31.5056 199.817C31.3287 198.718 31.2041 197.613 31.132 196.502C30.8336 192.211 31.3395 187.902 32.6237 183.797C33.0287 182.441 33.6247 181.15 34.3939 179.963C34.5095 179.794 34.6283 179.629 34.754 179.468C35.5059 178.448 36.5552 177.686 37.7572 177.288C38.1986 177.153 38.6566 177.079 39.1182 177.069C39.2793 177.064 39.4388 177.068 39.5983 177.078C40.5919 177.175 41.5548 177.476 42.4267 177.964C43.2986 178.451 44.0606 179.113 44.6652 179.909C45.5574 181.101 46.2065 182.458 46.5754 183.901C46.6136 184.038 46.6496 184.175 46.6834 184.312C46.9164 185.281 47.0864 186.264 47.1925 187.255C48.3256 197.31 45.2418 208.381 38.4409 215.864Z" fill="#F2F2F2"/>
<path d="M39.1104 177.107C38.4878 182.076 38.0535 187.064 37.8075 192.07C37.5626 197.072 37.5073 202.078 37.6417 207.089C37.7171 209.893 37.852 212.694 38.0464 215.492C38.0679 215.802 38.5548 215.825 38.5331 215.511C38.1867 210.515 38.0294 205.511 38.0611 200.499C38.0936 195.491 38.3158 190.49 38.7275 185.494C38.958 182.699 39.2479 179.91 39.5971 177.127C39.6361 176.815 39.1493 176.797 39.1104 177.107Z" fill="white"/>
<path d="M46.2281 184.111C45.6233 187.584 43.6765 190.677 40.8099 192.722C40.0102 193.292 39.1472 193.767 38.2382 194.139C37.9476 194.258 38.172 194.691 38.4601 194.573C41.8225 193.152 44.4897 190.46 45.8827 187.081C46.2733 186.133 46.5525 185.143 46.7147 184.131C46.7649 183.822 46.2779 183.804 46.2281 184.111Z" fill="white"/>
<path d="M37.0256 206.059C36.2536 205.661 35.5306 205.174 34.871 204.608C33.3659 203.319 32.2086 201.672 31.5054 199.817C31.3284 198.718 31.2039 197.613 31.1318 196.502C31.1746 196.525 31.2107 196.558 31.2366 196.599C31.2625 196.64 31.2773 196.687 31.2795 196.736C31.352 197.559 31.5195 198.372 31.7786 199.157C32.6998 201.957 34.6767 204.287 37.2878 205.648C37.3189 205.662 37.346 205.683 37.3665 205.71C37.3871 205.737 37.4003 205.769 37.4051 205.803C37.4081 205.849 37.3989 205.895 37.3785 205.937C37.3581 205.978 37.3272 206.014 37.2888 206.04C37.2504 206.066 37.2059 206.081 37.1598 206.085C37.1136 206.088 37.0673 206.079 37.0256 206.059Z" fill="white"/>
<path d="M34.3146 179.656C34.8816 182.005 36.1823 184.112 38.0274 185.669C38.0819 185.704 38.1478 185.715 38.2107 185.701C38.2737 185.687 38.3286 185.649 38.3637 185.595C38.3969 185.54 38.4078 185.475 38.394 185.412C38.3802 185.349 38.3428 185.294 38.2896 185.258C36.549 183.775 35.3237 181.777 34.7902 179.551C34.7745 179.489 34.7357 179.437 34.6819 179.403C34.6281 179.37 34.5635 179.359 34.5018 179.373C34.4401 179.387 34.3861 179.424 34.3512 179.476C34.3162 179.529 34.3031 179.593 34.3146 179.656Z" fill="white"/>
<path d="M38.652 227.704L38.7234 227.761C38.639 227.732 38.553 227.701 38.4686 227.67C38.3306 227.623 38.1943 227.572 38.0579 227.52C32.7225 225.5 27.9594 222.206 24.1815 217.925C23.4414 217.094 22.7424 216.231 22.0844 215.334C19.5259 211.879 17.6353 207.975 16.5105 203.823C16.1228 202.462 15.9309 201.053 15.9408 199.638C15.9473 199.433 15.9586 199.23 15.9781 199.027C16.0632 197.761 16.5379 196.554 17.3367 195.57C17.6358 195.218 17.9821 194.908 18.3658 194.651C18.4988 194.56 18.6352 194.477 18.7748 194.399C19.6643 193.945 20.6377 193.68 21.6343 193.62C22.6308 193.56 23.629 193.707 24.5662 194.051C25.959 194.574 27.2352 195.367 28.3222 196.384C28.4277 196.479 28.5316 196.575 28.6339 196.672C29.3511 197.363 30.0229 198.099 30.6449 198.877C37.0061 206.739 40.3595 217.73 38.652 227.704Z" fill="#F2F2F2"/>
<path d="M18.3796 194.687C20.5264 199.21 22.842 203.647 25.3263 207.998C27.809 212.344 30.454 216.593 33.2612 220.742C34.8318 223.064 36.4513 225.351 38.1197 227.604C38.3043 227.853 38.7272 227.61 38.5402 227.358C35.5624 223.335 32.7395 219.203 30.0714 214.963C27.4065 210.726 24.9047 206.392 22.5658 201.96C21.2574 199.481 20.0022 196.975 18.8 194.441C18.6655 194.158 18.2456 194.405 18.3796 194.687Z" fill="white"/>
<path d="M28.1421 196.749C29.4993 200.001 29.5223 203.658 28.2059 206.927C27.8387 207.839 27.3672 208.705 26.8009 209.508C26.6202 209.765 27.0422 210.009 27.2214 209.754C29.2906 206.743 30.0906 203.036 29.4478 199.438C29.2673 198.428 28.9702 197.443 28.5625 196.503C28.4387 196.215 28.0191 196.463 28.1421 196.749Z" fill="white"/>
<path d="M32.1881 220.207C31.3236 220.288 30.4526 220.267 29.5927 220.147C27.6314 219.872 25.7705 219.109 24.1811 217.925C23.4409 217.095 22.7419 216.231 22.084 215.334C22.1322 215.33 22.1806 215.338 22.2245 215.359C22.2683 215.38 22.306 215.411 22.334 215.451C22.8378 216.106 23.4157 216.7 24.0561 217.221C26.338 219.084 29.2561 219.98 32.1881 219.719C32.2216 219.714 32.2558 219.717 32.2877 219.729C32.3195 219.74 32.3478 219.76 32.3698 219.786C32.3973 219.823 32.4144 219.867 32.4196 219.913C32.4249 219.959 32.4179 220.006 32.3996 220.048C32.3812 220.091 32.352 220.128 32.3149 220.156C32.2778 220.184 32.2341 220.201 32.1881 220.207Z" fill="white"/>
<path d="M15.7086 199.422C17.4494 201.095 19.6781 202.169 22.0701 202.486C22.2015 202.503 22.3123 202.361 22.3135 202.242C22.312 202.177 22.2859 202.116 22.2405 202.071C22.1952 202.025 22.1342 201.999 22.0701 201.998C19.8061 201.687 17.6991 200.664 16.0529 199.077C15.8272 198.859 15.4825 199.203 15.7086 199.422Z" fill="white"/>
<path d="M71.8883 163.369C72.3638 163.042 72.7621 162.615 73.055 162.118C73.348 161.62 73.5285 161.065 73.5839 160.49C73.6392 159.915 73.5681 159.335 73.3755 158.791C73.1828 158.246 72.8734 157.751 72.469 157.339L73.9988 123.133L66.2105 124.008L66.6629 157.467C66.0177 158.194 65.6609 159.132 65.6602 160.104C65.6594 161.077 66.0147 162.015 66.6588 162.743C67.3029 163.47 68.191 163.936 69.1548 164.051C70.1186 164.167 71.0912 163.924 71.8883 163.369Z" fill="#FFB8B8"/>
<path d="M86.0957 221.273L90.5285 222.054L94.9095 205.298L89.1015 204.146L86.0957 221.273Z" fill="#FFB8B8"/>
<path d="M98.3535 227.682L84.4224 225.229L85.3686 219.837L93.9173 221.343C94.6241 221.467 95.2996 221.73 95.905 222.116C96.5105 222.502 97.0342 223.003 97.4461 223.592C97.8581 224.181 98.1502 224.845 98.3059 225.547C98.4616 226.249 98.4778 226.974 98.3535 227.682Z" fill="#2F2E41"/>
<path d="M73.9294 223.496L78.4301 223.495L80.5711 206.106L73.9287 206.106L73.9294 223.496Z" fill="#FFB8B8"/>
<path d="M87.1103 227.682L72.9656 227.682L72.9653 222.208L81.6451 222.207C83.0945 222.207 84.4846 222.784 85.5095 223.811C86.5344 224.837 87.1103 226.23 87.1103 227.682Z" fill="#2F2E41"/>
<path d="M93.0752 218.734C93.005 218.734 92.9348 218.73 92.8651 218.721L87.5678 218.285C87.3266 218.256 87.0937 218.179 86.8832 218.058C86.6727 217.936 86.4891 217.773 86.3434 217.579C86.1978 217.384 86.0931 217.162 86.0359 216.925C85.9786 216.689 85.9699 216.443 86.0103 216.203L90.9019 188.74L87.5966 171.282C87.5697 171.14 87.4924 171.013 87.3791 170.924C87.2659 170.834 87.1242 170.789 86.9802 170.796C86.8363 170.803 86.6998 170.862 86.5959 170.963C86.492 171.063 86.4277 171.197 86.4149 171.341L82.2829 217.907C82.2375 218.374 82.0127 218.806 81.6559 219.11C81.2991 219.415 80.8382 219.568 80.3704 219.539L75.3797 219.353C74.9424 219.322 74.5315 219.131 74.2247 218.817C73.9178 218.504 73.7363 218.088 73.7144 217.65L73.3789 161.838L99.2528 158.599L101.06 186.562L101.053 186.592L94.8157 217.362C94.7207 217.753 94.4976 218.101 94.182 218.349C93.8664 218.598 93.4767 218.733 93.0752 218.734Z" fill="#2F2E41"/>
<path d="M81.909 100.966C86.8887 100.966 90.9255 96.9225 90.9255 91.9342C90.9255 86.9459 86.8887 82.9021 81.909 82.9021C76.9294 82.9021 72.8926 86.9459 72.8926 91.9342C72.8926 96.9225 76.9294 100.966 81.909 100.966Z" fill="#FFB8B8"/>
<path d="M90.4047 165.917C88.9945 165.926 87.6114 165.53 86.419 164.775C82.0515 162.041 77.0907 163.128 74.5224 164.019C74.2675 164.108 73.9957 164.139 73.7274 164.108C73.4591 164.078 73.2012 163.987 72.973 163.842C72.7473 163.7 72.5567 163.509 72.4153 163.283C72.2738 163.057 72.1854 162.801 72.1564 162.536L67.4859 120.751C66.7032 113.75 70.9131 107.168 77.496 105.1C77.7433 105.022 77.9948 104.949 78.2504 104.879C80.299 104.323 82.4443 104.223 84.5355 104.586C86.6267 104.95 88.613 105.768 90.3546 106.984C92.1285 108.212 93.6121 109.815 94.7009 111.68C95.7897 113.545 96.4573 115.627 96.6566 117.778L100.588 159.843C100.615 160.115 100.579 160.39 100.481 160.646C100.384 160.901 100.229 161.131 100.028 161.316C98.6495 162.594 94.6491 165.917 90.4047 165.917Z" fill="#31572C"/>
<path d="M76.183 129.712L65.6458 128.551C65.346 128.518 65.0569 128.421 64.798 128.266C64.5391 128.11 64.3167 127.901 64.1458 127.652C63.9749 127.403 63.8596 127.12 63.8077 126.823C63.7558 126.525 63.7685 126.22 63.845 125.928L66.5271 115.687C66.7045 114.152 67.4825 112.749 68.6906 111.787C69.8986 110.825 71.4382 110.383 72.9716 110.556C74.505 110.73 75.9072 111.505 76.8708 112.713C77.8343 113.92 78.2805 115.461 78.1116 116.998L78.5098 127.543C78.5211 127.845 78.4673 128.146 78.3521 128.425C78.2368 128.704 78.0629 128.955 77.8421 129.161C77.6213 129.367 77.3588 129.522 77.0725 129.617C76.7862 129.713 76.4828 129.745 76.183 129.712Z" fill="#31572C"/>
<path d="M100.547 161.904C100.98 161.523 101.324 161.051 101.555 160.521C101.786 159.992 101.898 159.419 101.884 158.841C101.87 158.264 101.729 157.697 101.472 157.18C101.216 156.663 100.849 156.208 100.398 155.848L97.8015 121.706L90.1699 123.427L94.6496 156.676C94.0965 157.475 93.8552 158.45 93.9714 159.415C94.0876 160.381 94.5533 161.27 95.2802 161.914C96.0072 162.558 96.9448 162.913 97.9154 162.912C98.8861 162.91 99.8224 162.551 100.547 161.904Z" fill="#FFB8B8"/>
<path d="M87.2443 127.565C87.0234 127.36 86.8494 127.109 86.7342 126.829C86.619 126.55 86.5653 126.249 86.5767 125.947L86.9749 115.402C86.8059 113.866 87.2522 112.325 88.2157 111.117C89.1792 109.91 90.5814 109.134 92.1149 108.961C93.6483 108.787 95.1878 109.23 96.3959 110.192C97.6039 111.154 98.382 112.556 98.5593 114.092L101.241 124.332C101.318 124.624 101.331 124.93 101.279 125.227C101.227 125.525 101.112 125.808 100.941 126.057C100.77 126.306 100.547 126.515 100.288 126.67C100.03 126.825 99.7404 126.923 99.4406 126.956L88.9035 128.116C88.6037 128.149 88.3002 128.117 88.0138 128.022C87.7275 127.927 87.465 127.771 87.2443 127.565Z" fill="#31572C"/>
<path d="M81.3726 101.307C81.2124 101.306 81.0526 101.288 80.8966 101.251L80.8508 101.24C72.9234 100.025 71.1715 95.4253 70.7869 93.5043C70.3889 91.5155 70.8421 89.5958 71.8663 88.8503C71.3079 87.0841 71.3976 85.5182 72.1333 84.1939C73.4164 81.8844 76.2012 81.1034 76.5746 81.0079C78.7986 79.3644 81.4595 80.4615 81.9436 80.684C86.2455 79.0897 87.8898 80.4168 88.1872 80.7131C90.1102 81.0591 91.2823 81.8032 91.6714 82.9253C92.4023 85.0328 90.0909 87.6544 89.9921 87.765L89.9409 87.8223L86.4974 87.9866C86.1706 88.0022 85.8508 88.0864 85.5587 88.2338C85.2665 88.3812 85.0085 88.5885 84.8015 88.8422C84.5945 89.0959 84.443 89.3904 84.3569 89.7065C84.2708 90.0227 84.252 90.3534 84.3017 90.6773C84.3949 91.0952 84.5126 91.5072 84.6542 91.9112C85.2423 93.7523 85.683 95.3251 85.1146 95.923C84.9859 96.0387 84.8272 96.1158 84.6568 96.1454C84.4863 96.175 84.311 96.1559 84.1509 96.0904C83.6125 95.9464 83.247 95.9765 83.0648 96.1803C82.7821 96.4963 82.8684 97.2963 83.3079 98.4329C83.4458 98.7923 83.4829 99.1827 83.4152 99.5617C83.3476 99.9407 83.1777 100.294 82.9239 100.583C82.7329 100.809 82.4953 100.99 82.2275 101.115C81.9597 101.24 81.668 101.305 81.3726 101.307Z" fill="#2F2E41"/>
<path d="M187.856 130.181H143.436C141.781 130.179 140.195 129.519 139.025 128.347C137.855 127.175 137.197 125.586 137.195 123.929V57.0619C137.197 55.4045 137.855 53.8154 139.025 52.6434C140.195 51.4714 141.781 50.8122 143.436 50.8103H187.856C189.51 50.8122 191.096 51.4714 192.266 52.6434C193.436 53.8154 194.095 55.4045 194.096 57.0619V123.929C194.095 125.586 193.436 127.175 192.266 128.347C191.096 129.519 189.51 130.179 187.856 130.181ZM143.436 51.5458C141.976 51.5474 140.576 52.1291 139.544 53.1633C138.512 54.1974 137.931 55.5995 137.93 57.0619V123.929C137.931 125.391 138.512 126.794 139.544 127.828C140.576 128.862 141.976 129.443 143.436 129.445H187.856C189.316 129.443 190.715 128.862 191.748 127.828C192.78 126.794 193.361 125.391 193.362 123.929V57.0619C193.361 55.5995 192.78 54.1974 191.748 53.1633C190.715 52.1291 189.316 51.5474 187.856 51.5458H143.436Z" fill="#3F3D56"/>
<path d="M181.065 82.9569H150.228C149.401 82.956 148.607 82.6263 148.022 82.0403C147.437 81.4543 147.108 80.6598 147.107 79.8311V65.1214C147.108 64.2927 147.437 63.4982 148.022 62.9122C148.607 62.3262 149.401 61.9965 150.228 61.9956H181.065C181.892 61.9966 182.685 62.3262 183.27 62.9122C183.855 63.4982 184.184 64.2927 184.185 65.1214V79.8311C184.184 80.6598 183.855 81.4543 183.27 82.0403C182.685 82.6263 181.892 82.9559 181.065 82.9569Z" fill="#31572C"/>
<path d="M178.861 96.7472H152.43C151.651 96.7472 150.904 96.4372 150.353 95.8855C149.803 95.3338 149.493 94.5855 149.493 93.8052C149.493 93.025 149.803 92.2767 150.353 91.725C150.904 91.1732 151.651 90.8633 152.43 90.8633H178.861C179.64 90.8633 180.387 91.1732 180.938 91.725C181.489 92.2767 181.798 93.025 181.798 93.8052C181.798 94.5855 181.489 95.3338 180.938 95.8855C180.387 96.4372 179.64 96.7472 178.861 96.7472Z" fill="#CCCCCC"/>
<path d="M178.861 107.779H152.43C151.651 107.779 150.904 107.469 150.353 106.918C149.803 106.366 149.493 105.618 149.493 104.837C149.493 104.057 149.803 103.309 150.353 102.757C150.904 102.205 151.651 101.896 152.43 101.896H178.861C179.64 101.896 180.387 102.205 180.938 102.757C181.489 103.309 181.798 104.057 181.798 104.837C181.798 105.618 181.489 106.366 180.938 106.918C180.387 107.469 179.64 107.779 178.861 107.779Z" fill="#CCCCCC"/>
<path d="M178.861 118.812H152.43C151.651 118.812 150.904 118.502 150.353 117.95C149.803 117.398 149.493 116.65 149.493 115.87C149.493 115.089 149.803 114.341 150.353 113.789C150.904 113.238 151.651 112.928 152.43 112.928H178.861C179.64 112.928 180.387 113.238 180.938 113.789C181.489 114.341 181.798 115.089 181.798 115.87C181.798 116.65 181.489 117.398 180.938 117.95C180.387 118.502 179.64 118.812 178.861 118.812Z" fill="#CCCCCC"/>
<path d="M296.152 167.69H251.732C250.077 167.689 248.491 167.029 247.321 165.857C246.151 164.685 245.493 163.096 245.491 161.439V94.5717C245.493 92.9142 246.151 91.3252 247.321 90.1532C248.491 88.9812 250.077 88.3219 251.732 88.3201H296.152C297.806 88.3219 299.392 88.9812 300.562 90.1532C301.732 91.3252 302.39 92.9142 302.392 94.5717V161.439C302.39 163.096 301.732 164.685 300.562 165.857C299.392 167.029 297.806 167.689 296.152 167.69ZM251.732 89.0556C250.272 89.0572 248.872 89.6389 247.84 90.673C246.808 91.7071 246.227 93.1092 246.225 94.5717V161.439C246.227 162.901 246.808 164.303 247.84 165.337C248.872 166.372 250.272 166.953 251.732 166.955H296.152C297.611 166.953 299.011 166.372 300.043 165.337C301.076 164.303 301.656 162.901 301.658 161.439V94.5717C301.656 93.1092 301.076 91.7071 300.043 90.673C299.011 89.6389 297.611 89.0572 296.152 89.0556H251.732Z" fill="#3F3D56"/>
<path d="M287.157 104.837H260.726C259.947 104.837 259.2 104.528 258.649 103.976C258.098 103.424 257.789 102.676 257.789 101.896C257.789 101.115 258.098 100.367 258.649 99.8153C259.2 99.2636 259.947 98.9536 260.726 98.9536H287.157C287.936 98.9536 288.683 99.2636 289.234 99.8153C289.785 100.367 290.094 101.115 290.094 101.896C290.094 102.676 289.785 103.424 289.234 103.976C288.683 104.528 287.936 104.837 287.157 104.837Z" fill="#CCCCCC"/>
<path d="M287.157 115.87H260.726C259.947 115.87 259.2 115.56 258.649 115.008C258.098 114.456 257.789 113.708 257.789 112.928C257.789 112.148 258.098 111.399 258.649 110.848C259.2 110.296 259.947 109.986 260.726 109.986H287.157C287.936 109.986 288.683 110.296 289.234 110.848C289.785 111.399 290.094 112.148 290.094 112.928C290.094 113.708 289.785 114.456 289.234 115.008C288.683 115.56 287.936 115.87 287.157 115.87Z" fill="#CCCCCC"/>
<path d="M289.36 144.002H258.524C257.696 144.001 256.903 143.671 256.318 143.085C255.733 142.499 255.404 141.705 255.403 140.876V126.166C255.404 125.338 255.733 124.543 256.318 123.957C256.903 123.371 257.696 123.042 258.524 123.041H289.36C290.188 123.042 290.981 123.371 291.566 123.957C292.151 124.543 292.48 125.338 292.481 126.166V140.876C292.48 141.705 292.151 142.499 291.566 143.085C290.981 143.671 290.188 144.001 289.36 144.002Z" fill="#E6E6E6"/>
<path d="M287.157 157.057H260.726C259.947 157.057 259.2 156.747 258.649 156.195C258.098 155.643 257.789 154.895 257.789 154.115C257.789 153.335 258.098 152.586 258.649 152.035C259.2 151.483 259.947 151.173 260.726 151.173H287.157C287.936 151.173 288.683 151.483 289.234 152.035C289.785 152.586 290.094 153.335 290.094 154.115C290.094 154.895 289.785 155.643 289.234 156.195C288.683 156.747 287.936 157.057 287.157 157.057Z" fill="#CCCCCC"/>
<path d="M268.985 61.4129H224.566C222.911 61.411 221.325 60.7517 220.155 59.5797C218.985 58.4077 218.327 56.8187 218.325 55.1613V13.6684C218.327 12.0109 218.985 10.4219 220.155 9.24986C221.325 8.07786 222.911 7.41861 224.566 7.41675H268.985C270.64 7.41861 272.226 8.07786 273.396 9.24986C274.566 10.4219 275.224 12.0109 275.226 13.6684V55.1613C275.224 56.8187 274.566 58.4077 273.396 59.5797C272.226 60.7517 270.64 61.411 268.985 61.4129ZM224.566 8.15223C223.106 8.15389 221.706 8.73558 220.674 9.7697C219.642 10.8038 219.061 12.2059 219.059 13.6684V55.1613C219.061 56.6237 219.642 58.0258 220.674 59.0599C221.706 60.094 223.106 60.6757 224.566 60.6774H268.985C270.445 60.6757 271.845 60.094 272.877 59.0599C273.91 58.0258 274.49 56.6237 274.492 55.1613V13.6684C274.49 12.2059 273.91 10.8038 272.877 9.7697C271.845 8.73558 270.445 8.15389 268.985 8.15223H224.566Z" fill="#3F3D56"/>
<path d="M259.991 48.389H233.56C232.781 48.389 232.034 48.079 231.483 47.5273C230.932 46.9756 230.623 46.2273 230.623 45.4471C230.623 44.6668 230.932 43.9185 231.483 43.3668C232.034 42.8151 232.781 42.5051 233.56 42.5051H259.991C260.77 42.5051 261.517 42.8151 262.068 43.3668C262.619 43.9185 262.928 44.6668 262.928 45.4471C262.928 46.2273 262.619 46.9756 262.068 47.5273C261.517 48.079 260.77 48.389 259.991 48.389Z" fill="#CCCCCC"/>
<path d="M259.991 37.3568H233.56C232.781 37.3568 232.034 37.0468 231.483 36.4951C230.932 35.9434 230.623 35.1951 230.623 34.4148C230.623 33.6346 230.932 32.8863 231.483 32.3346C232.034 31.7829 232.781 31.4729 233.56 31.4729H259.991C260.77 31.4729 261.517 31.7829 262.068 32.3346C262.619 32.8863 262.928 33.6346 262.928 34.4148C262.928 35.1951 262.619 35.9434 262.068 36.4951C261.517 37.0468 260.77 37.3568 259.991 37.3568Z" fill="#CCCCCC"/>
<path d="M259.991 26.3245H233.56C232.781 26.3245 232.034 26.0146 231.483 25.4629C230.932 24.9112 230.623 24.1629 230.623 23.3826C230.623 22.6024 230.932 21.8541 231.483 21.3024C232.034 20.7506 232.781 20.4407 233.56 20.4407H259.991C260.77 20.4407 261.517 20.7506 262.068 21.3024C262.619 21.8541 262.928 22.6024 262.928 23.3826C262.928 24.1629 262.619 24.9112 262.068 25.4629C261.517 26.0146 260.77 26.3245 259.991 26.3245Z" fill="#CCCCCC"/>
<path d="M190.426 61.0453C195.089 61.0453 198.869 57.2585 198.869 52.5872C198.869 47.916 195.089 44.1292 190.426 44.1292C185.763 44.1292 181.982 47.916 181.982 52.5872C181.982 57.2585 185.763 61.0453 190.426 61.0453Z" fill="#31572C"/>
<path d="M189.588 55.8138C189.398 55.8141 189.213 55.7526 189.061 55.6384L189.052 55.6314L187.068 54.1095C186.975 54.0391 186.898 53.9512 186.839 53.8507C186.781 53.7503 186.743 53.6393 186.728 53.5241C186.712 53.4089 186.72 53.2917 186.749 53.1794C186.779 53.0671 186.831 52.9618 186.902 52.8695C186.972 52.7773 187.06 52.6999 187.161 52.6418C187.261 52.5837 187.372 52.546 187.487 52.531C187.602 52.5159 187.719 52.5238 187.831 52.5541C187.943 52.5844 188.048 52.6365 188.14 52.7075L189.425 53.6947L192.462 49.7269C192.533 49.6348 192.621 49.5576 192.721 49.4996C192.821 49.4415 192.932 49.4039 193.047 49.3887C193.161 49.3735 193.278 49.3811 193.39 49.4111C193.502 49.4411 193.607 49.4928 193.698 49.5634L193.68 49.5891L193.699 49.5638C193.884 49.7065 194.005 49.9169 194.036 50.1491C194.067 50.3812 194.004 50.616 193.862 50.8019L190.29 55.4691C190.207 55.5767 190.101 55.6637 189.979 55.7235C189.857 55.7832 189.724 55.8141 189.588 55.8138Z" fill="white"/>
<path d="M300.557 98.9225C305.22 98.9225 309 95.1357 309 90.4644C309 85.7932 305.22 82.0063 300.557 82.0063C295.894 82.0063 292.113 85.7932 292.113 90.4644C292.113 95.1357 295.894 98.9225 300.557 98.9225Z" fill="#3F3D56"/>
<path d="M299.72 93.691C299.53 93.6913 299.345 93.6298 299.193 93.5156L299.184 93.5086L297.199 91.9867C297.107 91.9163 297.03 91.8284 296.971 91.7279C296.913 91.6275 296.875 91.5165 296.859 91.4013C296.844 91.2861 296.851 91.1689 296.881 91.0566C296.911 90.9443 296.963 90.839 297.033 90.7467C297.104 90.6545 297.192 90.5771 297.292 90.519C297.393 90.4609 297.504 90.4232 297.619 90.4082C297.734 90.3931 297.851 90.4009 297.963 90.4312C298.075 90.4616 298.18 90.5137 298.272 90.5847L299.557 91.5719L302.594 87.6041C302.665 87.512 302.753 87.4348 302.853 87.3768C302.953 87.3187 303.064 87.2811 303.178 87.2659C303.293 87.2507 303.41 87.2583 303.522 87.2883C303.634 87.3183 303.738 87.37 303.83 87.4406L303.811 87.4663L303.831 87.441C304.016 87.5837 304.137 87.7941 304.168 88.0263C304.198 88.2584 304.136 88.4932 303.994 88.6791L300.421 93.3463C300.339 93.4539 300.233 93.5409 300.111 93.6007C299.989 93.6604 299.855 93.6913 299.72 93.691Z" fill="white"/>
<path d="M273.758 16.9161C278.421 16.9161 282.201 13.1293 282.201 8.45806C282.201 3.7868 278.421 0 273.758 0C269.095 0 265.314 3.7868 265.314 8.45806C265.314 13.1293 269.095 16.9161 273.758 16.9161Z" fill="#3F3D56"/>
<path d="M272.921 11.6846C272.731 11.685 272.546 11.6234 272.394 11.5093L272.385 11.5022L270.401 9.98035C270.308 9.90998 270.231 9.82205 270.172 9.72158C270.114 9.62112 270.076 9.51011 270.061 9.39491C270.045 9.27971 270.053 9.16259 270.082 9.05027C270.112 8.93795 270.164 8.83263 270.235 8.74037C270.305 8.64811 270.393 8.57071 270.494 8.51261C270.594 8.45451 270.705 8.41685 270.82 8.4018C270.935 8.38675 271.052 8.3946 271.164 8.4249C271.276 8.4552 271.381 8.50736 271.473 8.57838L272.758 9.56561L275.795 5.59771C275.866 5.50568 275.954 5.42844 276.054 5.37042C276.154 5.3124 276.265 5.27473 276.38 5.25955C276.494 5.24437 276.611 5.25199 276.723 5.28197C276.835 5.31194 276.94 5.3637 277.031 5.43427L277.013 5.45995L277.032 5.43464C277.217 5.57731 277.338 5.7878 277.369 6.01991C277.4 6.25203 277.337 6.48682 277.195 6.67278L273.623 11.34C273.54 11.4475 273.434 11.5346 273.312 11.5943C273.19 11.6541 273.057 11.685 272.921 11.6846Z" fill="white"/>
<path d="M151.234 228H11.3671C11.2697 228 11.1764 227.961 11.1075 227.892C11.0387 227.823 11 227.73 11 227.632C11 227.535 11.0387 227.441 11.1075 227.372C11.1764 227.303 11.2697 227.264 11.3671 227.264H151.234C151.331 227.264 151.424 227.303 151.493 227.372C151.562 227.441 151.601 227.535 151.601 227.632C151.601 227.73 151.562 227.823 151.493 227.892C151.424 227.961 151.331 228 151.234 228Z" fill="#3F3D56"/>
</g>
<defs>
<clipPath id="clip0_638_1046">
<rect width="298" height="228" fill="white" transform="translate(11)"/>
</clipPath>
</defs>
</svg>
