<svg width="297" height="226" viewBox="0 0 297 226" fill="none" xmlns="http://www.w3.org/2000/svg">
<g clip-path="url(#clip0_786_1176)">
<path d="M118.845 46.8672H117.761V17.1814C117.761 14.9251 117.317 12.6909 116.453 10.6063C115.59 8.52181 114.325 6.62775 112.73 5.03231C111.134 3.43688 109.241 2.1713 107.156 1.30786C105.072 0.444414 102.838 1.9117e-06 100.582 0H37.6983C33.1422 -8.68678e-06 28.7728 1.81015 25.5511 5.03227C22.3294 8.2544 20.5195 12.6245 20.5195 17.1813V180.04C20.5195 182.296 20.9639 184.531 21.8272 186.615C22.6905 188.7 23.9559 190.594 25.5511 192.189C27.1463 193.785 29.04 195.05 31.1243 195.914C33.2085 196.777 35.4423 197.222 37.6983 197.222H100.582C105.138 197.222 109.508 195.411 112.73 192.189C115.951 188.967 117.761 184.597 117.761 180.04V67.9981H118.845V46.8672Z" fill="#3F3D56"/>
<path d="M101.276 4.46997H93.0671C93.4446 5.39558 93.5887 6.39984 93.4867 7.39426C93.3847 8.38869 93.0398 9.34278 92.4823 10.1725C91.9248 11.0022 91.1718 11.682 90.2897 12.1521C89.4076 12.6222 88.4235 12.8681 87.424 12.8681H51.3985C50.399 12.8681 49.4149 12.6222 48.5328 12.1521C47.6507 11.682 46.8978 11.0022 46.3402 10.1725C45.7827 9.34278 45.4378 8.3887 45.3358 7.39427C45.2338 6.39984 45.3779 5.39558 45.7554 4.46997H38.0887C36.404 4.46997 34.7358 4.80185 33.1793 5.44666C31.6228 6.09147 30.2086 7.03658 29.0173 8.22803C27.826 9.41948 26.881 10.8339 26.2363 12.3907C25.5916 13.9474 25.2598 15.6158 25.2598 17.3008V179.921C25.2598 181.606 25.5916 183.274 26.2363 184.831C26.881 186.387 27.826 187.802 29.0173 188.993C30.2085 190.185 31.6228 191.13 33.1793 191.775C34.7357 192.42 36.404 192.751 38.0887 192.751H101.276C102.96 192.751 104.629 192.42 106.185 191.775C107.741 191.13 109.156 190.185 110.347 188.993C111.538 187.802 112.483 186.388 113.128 184.831C113.773 183.274 114.104 181.606 114.104 179.921V17.3008C114.104 15.6158 113.773 13.9474 113.128 12.3907C112.483 10.8339 111.538 9.41949 110.347 8.22803C109.156 7.03658 107.741 6.09147 106.185 5.44666C104.629 4.80185 102.96 4.46997 101.276 4.46997Z" fill="white"/>
<path d="M139 197.25H0.363875C0.267369 197.25 0.174816 197.211 0.106576 197.143C0.0383364 197.075 0 196.982 0 196.886C0 196.789 0.0383364 196.697 0.106576 196.628C0.174816 196.56 0.267369 196.522 0.363875 196.522H139C139.097 196.522 139.189 196.56 139.257 196.628C139.326 196.697 139.364 196.789 139.364 196.886C139.364 196.982 139.326 197.075 139.257 197.143C139.189 197.211 139.097 197.25 139 197.25Z" fill="#CBCBCB"/>
<path d="M69.6819 125.803C86.6524 125.803 100.41 112.044 100.41 95.0706C100.41 78.0975 86.6524 64.3381 69.6819 64.3381C52.7114 64.3381 38.9541 78.0975 38.9541 95.0706C38.9541 112.044 52.7114 125.803 69.6819 125.803Z" fill="#31572C"/>
<path d="M66.6372 106.794C65.9459 106.795 65.273 106.572 64.7199 106.157L64.6856 106.131L57.4642 100.606C57.1297 100.35 56.849 100.03 56.6382 99.6649C56.4273 99.3 56.2903 98.8971 56.2352 98.4792C56.18 98.0614 56.2076 97.6367 56.3165 97.2295C56.4254 96.8223 56.6134 96.4406 56.8698 96.1061C57.1262 95.7716 57.446 95.4909 57.8109 95.28C58.1758 95.0691 58.5786 94.9321 58.9964 94.8769C59.4142 94.8217 59.8388 94.8494 60.2459 94.9583C60.6531 95.0672 61.0347 95.2552 61.3692 95.5117L66.0467 99.0991L77.0998 84.677C77.3561 84.3426 77.6757 84.062 78.0405 83.8512C78.4052 83.6404 78.8079 83.5035 79.2255 83.4483C79.6431 83.3931 80.0675 83.4207 80.4745 83.5296C80.8814 83.6385 81.263 83.8265 81.5973 84.0828L81.5982 84.0835L81.5296 84.1788L81.6001 84.0835C82.2745 84.602 82.7158 85.3668 82.8271 86.2103C82.9383 87.0538 82.7104 87.907 82.1934 88.5826L69.1926 105.539C68.8918 105.929 68.5051 106.245 68.0624 106.463C67.6197 106.68 67.133 106.792 66.64 106.79L66.6372 106.794Z" fill="white"/>
<path d="M252.618 200.27C252.992 199.666 253.432 199.105 253.93 198.598C254.136 198.385 254.352 198.184 254.576 197.989C255.934 196.779 257.591 195.953 259.374 195.596C261.158 195.239 263.004 195.364 264.723 195.957C266.443 196.55 267.973 197.591 269.157 198.972C270.341 200.353 271.136 202.024 271.46 203.814C272.961 198.263 269.054 192.796 265.127 188.596C261.197 184.398 256.706 179.792 256.728 174.04C256.739 170.839 258.305 167.983 260.669 165.866C260.741 165.802 260.814 165.737 260.889 165.676C263.746 163.226 267.422 161.945 271.182 162.088C278.168 162.462 284.268 167.158 288.504 172.728C295.323 181.691 298.311 194.272 293.537 204.474C289.338 213.448 280.384 218.776 271.244 223.06C269.968 223.658 268.695 224.238 267.423 224.801C267.415 224.803 267.406 224.809 267.397 224.811C267.336 224.838 267.275 224.865 267.218 224.892C266.955 225.008 266.693 225.124 266.433 225.238L266.553 225.317L266.929 225.56C266.799 225.482 266.67 225.405 266.54 225.326C266.501 225.302 266.46 225.28 266.421 225.256C261.933 222.562 257.381 219.712 254.28 215.507C251.064 211.14 249.771 204.886 252.618 200.27Z" fill="#F1F1F1"/>
<path d="M282.566 190.13C283.56 192.391 284.219 194.786 284.522 197.237C284.76 199.424 284.671 201.633 284.256 203.793C283.365 208.231 281.421 212.39 278.588 215.92C276.45 218.6 273.983 220.999 271.244 223.06C269.968 223.658 268.694 224.239 267.423 224.801C267.415 224.803 267.406 224.809 267.397 224.811C267.336 224.838 267.275 224.865 267.218 224.893C266.955 225.008 266.693 225.124 266.433 225.239L266.553 225.317L266.929 225.561C266.799 225.482 266.67 225.405 266.54 225.326C266.501 225.302 266.46 225.28 266.421 225.256C267.409 221.8 267.554 218.158 266.845 214.634C266.135 211.111 264.591 207.809 262.343 205.005C260.083 202.236 257.2 200.041 253.93 198.598C254.136 198.385 254.352 198.184 254.576 197.989C255.835 198.567 257.041 199.256 258.179 200.047C262.25 202.861 265.307 206.911 266.897 211.598C268.317 215.85 268.494 220.419 267.408 224.768C267.634 224.621 267.86 224.469 268.08 224.319C272.261 221.499 276.115 218.111 279.018 213.958C281.522 210.447 283.124 206.375 283.684 202.099C284.24 197.429 283.071 192.836 280.987 188.668C278.684 184.21 275.783 180.087 272.364 176.415C268.93 172.641 265.047 169.302 260.802 166.471C260.706 166.407 260.639 166.308 260.614 166.195C260.589 166.083 260.609 165.965 260.668 165.866C260.714 165.776 260.793 165.708 260.889 165.676C260.937 165.663 260.988 165.662 261.037 165.672C261.086 165.682 261.132 165.703 261.172 165.733C261.696 166.083 262.216 166.436 262.729 166.799C267.004 169.827 270.887 173.374 274.288 177.359C277.574 181.2 280.565 185.468 282.566 190.13Z" fill="white"/>
<path d="M191.049 14.2698C194.653 14.2698 197.575 11.3476 197.575 7.74304C197.575 4.13842 194.653 1.21631 191.049 1.21631C187.445 1.21631 184.523 4.13842 184.523 7.74304C184.523 11.3476 187.445 14.2698 191.049 14.2698Z" fill="#F1F1F1"/>
<path d="M272.193 101.613C274.391 101.613 276.172 99.8312 276.172 97.6335C276.172 95.4359 274.391 93.6543 272.193 93.6543C269.996 93.6543 268.215 95.4359 268.215 97.6335C268.215 99.8312 269.996 101.613 272.193 101.613Z" fill="#F1F1F1"/>
<path d="M155.754 112.531C157.951 112.531 159.732 110.749 159.732 108.551C159.732 106.354 157.951 104.572 155.754 104.572C153.556 104.572 151.775 106.354 151.775 108.551C151.775 110.749 153.556 112.531 155.754 112.531Z" fill="#F1F1F1"/>
<path d="M158 226H296.636C296.733 226 296.825 225.962 296.894 225.893C296.962 225.825 297 225.733 297 225.636C297 225.54 296.962 225.447 296.894 225.379C296.825 225.311 296.733 225.272 296.636 225.272H158C157.904 225.272 157.811 225.311 157.743 225.379C157.675 225.447 157.636 225.54 157.636 225.636C157.636 225.733 157.675 225.825 157.743 225.893C157.811 225.962 157.904 226 158 226Z" fill="#CBCBCB"/>
<path d="M281.337 35.1683C281.519 33.8757 281.22 32.5612 280.498 31.4738C279.776 30.3865 278.68 29.602 277.418 29.2689C276.156 28.9357 274.816 29.0771 273.651 29.6663C272.486 30.2555 271.578 31.2516 271.099 32.4657L259.849 45.3649L263.15 54.5857L274.464 39.5135C275.202 39.75 275.983 39.8218 276.752 39.7237C277.521 39.6256 278.259 39.3601 278.914 38.9458C279.57 38.5315 280.126 37.9786 280.545 37.3259C280.963 36.6733 281.234 35.9368 281.337 35.1683Z" fill="#FFB7B7"/>
<path d="M234.704 85.3592L272.048 45.4984L267.011 37.489L220.172 77.1078L234.704 85.3592Z" fill="#3F3D56"/>
<path d="M226.369 61.1402C233.604 61.1402 239.468 55.2744 239.468 48.0387C239.468 40.803 233.604 34.9373 226.369 34.9373C219.134 34.9373 213.27 40.803 213.27 48.0387C213.27 55.2744 219.134 61.1402 226.369 61.1402Z" fill="#2F2E41"/>
<path d="M227.422 40.6375C230.241 37.7787 233.652 35.5725 237.415 34.1744C239.831 33.2794 242.46 32.7264 244.986 33.2347C247.511 33.743 249.9 35.4903 250.604 37.9686C251.18 39.9951 250.586 42.177 249.691 44.0846C248.797 45.9922 247.604 47.7612 246.881 49.74C246.143 51.7591 245.921 53.9305 246.235 56.0571C246.549 58.1837 247.39 60.1982 248.68 61.9176C249.97 63.6371 251.669 65.007 253.622 65.9032C255.576 66.7994 257.722 67.1933 259.867 67.0493C257.386 67.3821 255.098 68.5483 252.673 69.1692C250.247 69.7899 247.385 69.7478 245.582 68.0099C243.675 66.1712 243.637 63.1816 243.729 60.5339C243.866 56.5981 244.003 52.6622 244.141 48.7263C244.21 46.719 244.27 44.6475 243.546 42.774C242.823 40.9006 241.102 39.26 239.094 39.2771C237.572 39.29 236.225 40.2121 235.005 41.1215C233.784 42.0309 232.493 43.0011 230.977 43.1363C229.461 43.2716 227.73 42.1496 227.843 40.6316L227.422 40.6375Z" fill="#2F2E41"/>
<path d="M176.616 136.009C175.359 136.358 174.017 136.234 172.845 135.66C171.672 135.086 170.752 134.101 170.256 132.894C169.761 131.686 169.726 130.338 170.158 129.106C170.59 127.875 171.459 126.844 172.6 126.21L183.916 113.369L193.488 115.437L180.026 128.625C180.357 129.327 180.53 130.092 180.533 130.867C180.536 131.643 180.37 132.409 180.045 133.113C179.719 133.817 179.244 134.441 178.652 134.941C178.06 135.442 177.365 135.806 176.616 136.009Z" fill="#FFB7B7"/>
<path d="M213.848 90.0378L185.643 125.448L177.045 121.5L210.198 69.8787L213.848 90.0378Z" fill="#3F3D56"/>
<path d="M191.343 196.962L184.621 196.857L185.429 219.772H191.342L191.343 196.962Z" fill="#FFB7B7"/>
<path d="M192.85 217.842L181.205 217.841H181.205C179.237 217.841 177.349 218.623 175.958 220.015C174.566 221.407 173.784 223.294 173.784 225.263V225.504L192.849 225.505L192.85 217.842Z" fill="#2F2E41"/>
<path d="M235.851 190.885L228.507 195.6L243.196 213.274L248.172 210.079L235.851 190.885Z" fill="#FFB7B7"/>
<path d="M248.398 207.639L238.599 213.931L238.599 213.931C236.943 214.995 235.777 216.673 235.358 218.596C234.939 220.519 235.3 222.53 236.364 224.187L236.494 224.39L252.537 214.088L248.398 207.639Z" fill="#2F2E41"/>
<path d="M238.467 120.912C238.467 120.912 222.151 66.7129 216.907 65.9805C211.664 65.248 203.216 79.8873 203.216 79.8873C192.262 93.8652 180.967 139.143 180.967 139.143C180.967 139.143 199.796 140.321 213.56 147.645C227.324 154.969 243.568 147.274 243.568 147.274L238.467 120.912Z" fill="#3F3D56"/>
<path opacity="0.1" d="M238.467 120.912C238.467 120.912 222.151 66.7129 216.907 65.9804C211.664 65.248 205.361 80.0358 205.361 80.0358C199.903 102.599 180.967 139.143 180.967 139.143C180.967 139.143 199.796 140.321 213.56 147.645C227.324 154.969 243.568 147.274 243.568 147.274L238.467 120.912Z" fill="black"/>
<path d="M225.081 104.696V131.93L228.286 171.382L244.296 201.224L236.655 206.683L214.822 178.296L206.187 150.111L192.626 212.506L182.438 211.778L189.513 125.268L202.941 100.917L225.081 104.696Z" fill="#2F2E41"/>
<path d="M208.63 78.3538C203.536 83.4488 208.266 88.9078 208.266 88.9078L202.444 102.009L225.368 108.196L233.38 72.3933L227.921 66.5704C217.005 66.2065 216.999 65.9802 216.999 65.9802C215.087 67.8522 208.63 78.3538 208.63 78.3538Z" fill="#31572C"/>
<path d="M234.303 68.6842C233.262 67.9156 232.078 67.3612 230.821 67.0531C229.564 66.7451 228.259 66.6895 226.98 66.8897C225.702 67.0898 224.476 67.5417 223.373 68.2191C222.27 68.8966 221.313 69.7861 220.557 70.8362C214.794 78.8616 209.465 91.8207 216.807 107.983C228.596 133.935 238.855 147.22 243.026 147.218C243.208 147.22 243.389 147.192 243.562 147.134C246.129 146.263 249.841 141.918 250.513 138.09C250.753 136.719 250.696 134.81 249.058 133.5C244.351 129.734 235.901 118.01 233.265 102.579C231.808 94.0521 234.633 86.285 237.259 81.2709C238.369 79.1961 238.693 76.7911 238.173 74.4964C237.654 72.2018 236.324 70.1715 234.429 68.7775L234.303 68.6842Z" fill="#3F3D56"/>
<path d="M227.043 59.8529C231.716 57.2981 233.433 51.4383 230.879 46.7647C228.324 42.0911 222.465 40.3735 217.793 42.9283C213.12 45.4831 211.402 51.3429 213.957 56.0165C216.511 60.6901 222.37 62.4077 227.043 59.8529Z" fill="#FFB7B7"/>
<path d="M208.856 50.6614H222.78L222.923 48.6621L223.637 50.6614H225.781L226.064 46.6988L227.479 50.6614H231.627V50.4651C231.624 47.7063 230.527 45.0615 228.577 43.1107C226.626 41.16 223.982 40.0627 221.224 40.0596H219.26C216.502 40.0627 213.858 41.16 211.907 43.1107C209.957 45.0614 208.86 47.7063 208.856 50.4651V50.6614Z" fill="#2F2E41"/>
<path d="M229.524 57.8482L235.466 55.9199V41.488H224.243L224.521 41.7655C228.387 45.6271 232.686 59.3277 229.524 57.8482Z" fill="#2F2E41"/>
</g>
<defs>
<clipPath id="clip0_786_1176">
<rect width="297" height="226" fill="white"/>
</clipPath>
</defs>
</svg>
