<svg width="320" height="427" viewBox="0 0 320 427" fill="none" xmlns="http://www.w3.org/2000/svg">
<rect y="203" width="320" height="224" rx="8" fill="#F4F6EE"/>
<path d="M61.6625 235.12L56.7625 226.54H58.9625L62.1825 232.32C62.3825 232.66 62.5025 232.94 62.6625 233.28C62.8425 232.92 62.8825 232.8 63.1425 232.32L66.3425 226.54H68.4825L63.6225 235.12V241H61.6625V235.12ZM67.4388 236.1C67.4388 233.08 69.5988 230.96 72.5388 230.96C75.4588 230.96 77.6188 233.08 77.6188 236.1C77.6188 239.12 75.4588 241.24 72.5388 241.24C69.5988 241.24 67.4388 239.12 67.4388 236.1ZM69.3388 236.1C69.3388 238.14 70.6388 239.56 72.5388 239.56C74.4188 239.56 75.7388 238.14 75.7388 236.1C75.7388 234.06 74.4188 232.64 72.5388 232.64C70.6388 232.64 69.3388 234.06 69.3388 236.1ZM86.2255 231.22H88.0855V241H86.4055L86.2055 239.52C85.6455 240.54 84.3455 241.24 82.9055 241.24C80.6255 241.24 79.3455 239.7 79.3455 237.3V231.22H81.2255V236.68C81.2255 238.78 82.1255 239.58 83.5655 239.58C85.2855 239.58 86.2255 238.48 86.2255 236.38V231.22ZM98.1619 240.98H96.2819V226.28H98.1619V232.72C98.7819 231.66 99.9619 230.94 101.482 230.94C103.982 230.94 105.182 232.52 105.182 235.02V241H103.302V235.44C103.302 233.46 102.362 232.66 100.962 232.66C99.1419 232.66 98.1619 233.98 98.1619 235.66V240.98ZM110.646 241.24C108.546 241.24 107.306 240.06 107.306 238.28C107.306 236.48 108.646 235.36 110.946 235.18L114.026 234.94V234.66C114.026 233.02 113.046 232.44 111.726 232.44C110.146 232.44 109.246 233.14 109.246 234.32H107.606C107.606 232.28 109.286 230.94 111.806 230.94C114.226 230.94 115.866 232.22 115.866 234.86V241H114.266L114.066 239.42C113.566 240.54 112.226 241.24 110.646 241.24ZM111.186 239.78C112.966 239.78 114.046 238.62 114.046 236.78V236.26L111.546 236.46C109.886 236.62 109.206 237.26 109.206 238.22C109.206 239.26 109.966 239.78 111.186 239.78ZM120.819 241L116.879 231.22H118.879L121.019 236.68C121.359 237.6 121.639 238.42 121.799 239.02C121.959 238.38 122.279 237.54 122.619 236.68L124.799 231.22H126.759L122.679 241H120.819ZM132.025 241.24C129.145 241.24 127.165 239.16 127.165 236.12C127.165 233.06 129.105 230.94 131.945 230.94C134.725 230.94 136.545 232.86 136.545 235.76V236.46L128.985 236.48C129.125 238.54 130.205 239.68 132.065 239.68C133.525 239.68 134.485 239.08 134.805 237.96H136.565C136.085 240.06 134.445 241.24 132.025 241.24ZM131.945 232.52C130.305 232.52 129.265 233.5 129.025 235.22H134.665C134.665 233.6 133.605 232.52 131.945 232.52ZM145.994 241H144.114V231.22H145.814L146.014 232.72C146.634 231.6 147.874 230.94 149.254 230.94C151.834 230.94 153.014 232.52 153.014 235.02V241H151.134V235.44C151.134 233.46 150.214 232.66 148.774 232.66C147.014 232.66 145.994 233.92 145.994 235.82V241ZM154.978 236.1C154.978 233.08 157.138 230.96 160.078 230.96C162.998 230.96 165.158 233.08 165.158 236.1C165.158 239.12 162.998 241.24 160.078 241.24C157.138 241.24 154.978 239.12 154.978 236.1ZM156.878 236.1C156.878 238.14 158.178 239.56 160.078 239.56C161.958 239.56 163.278 238.14 163.278 236.1C163.278 234.06 161.958 232.64 160.078 232.64C158.178 232.64 156.878 234.06 156.878 236.1ZM169.901 241H168.021V232.8H166.101V231.22H168.021V228.16H169.901V231.22H171.821V232.8H169.901V241ZM178.337 236.12C178.337 233.06 180.277 230.94 183.137 230.94C185.597 230.94 187.317 232.34 187.657 234.52H185.777C185.457 233.28 184.457 232.62 183.197 232.62C181.417 232.62 180.197 233.98 180.197 236.1C180.197 238.2 181.337 239.56 183.117 239.56C184.457 239.56 185.457 238.86 185.797 237.7H187.677C187.297 239.82 185.477 241.24 183.117 241.24C180.237 241.24 178.337 239.2 178.337 236.12ZM192.521 241.24C190.421 241.24 189.181 240.06 189.181 238.28C189.181 236.48 190.521 235.36 192.821 235.18L195.901 234.94V234.66C195.901 233.02 194.921 232.44 193.601 232.44C192.021 232.44 191.121 233.14 191.121 234.32H189.481C189.481 232.28 191.161 230.94 193.681 230.94C196.101 230.94 197.741 232.22 197.741 234.86V241H196.141L195.941 239.42C195.441 240.54 194.101 241.24 192.521 241.24ZM193.061 239.78C194.841 239.78 195.921 238.62 195.921 236.78V236.26L193.421 236.46C191.761 236.62 191.081 237.26 191.081 238.22C191.081 239.26 191.841 239.78 193.061 239.78ZM200.344 245.38V231.22H202.044L202.184 232.98C202.844 231.64 204.164 230.94 205.724 230.94C208.524 230.94 210.264 233.04 210.264 236.04C210.264 239.02 208.624 241.26 205.724 241.26C204.164 241.26 202.864 240.6 202.224 239.4V245.38H200.344ZM202.244 236.12C202.244 238.12 203.404 239.56 205.324 239.56C207.244 239.56 208.384 238.12 208.384 236.12C208.384 234.1 207.244 232.66 205.324 232.66C203.404 232.66 202.244 234.08 202.244 236.12ZM214.999 241H213.119V232.8H211.199V231.22H213.119V228.16H214.999V231.22H216.919V232.8H214.999V241ZM225.366 231.22H227.226V241H225.546L225.346 239.52C224.786 240.54 223.486 241.24 222.046 241.24C219.766 241.24 218.486 239.7 218.486 237.3V231.22H220.366V236.68C220.366 238.78 221.266 239.58 222.706 239.58C224.426 239.58 225.366 238.48 225.366 236.38V231.22ZM235.554 231.14V232.86H234.714C232.934 232.86 231.834 233.94 231.834 235.82V241H229.954V231.24H231.714L231.834 232.72C232.234 231.7 233.214 231.02 234.554 231.02C234.894 231.02 235.174 231.06 235.554 231.14ZM241.185 241.24C238.305 241.24 236.325 239.16 236.325 236.12C236.325 233.06 238.265 230.94 241.105 230.94C243.885 230.94 245.705 232.86 245.705 235.76V236.46L238.145 236.48C238.285 238.54 239.365 239.68 241.225 239.68C242.685 239.68 243.645 239.08 243.965 237.96H245.725C245.245 240.06 243.605 241.24 241.185 241.24ZM241.105 232.52C239.465 232.52 238.425 233.5 238.185 235.22H243.825C243.825 233.6 242.765 232.52 241.105 232.52ZM251.725 241.24C248.885 241.24 247.165 239.12 247.165 236.14C247.165 233.14 248.905 230.94 251.805 230.94C253.305 230.94 254.565 231.6 255.225 232.8V226.28H257.085V241H255.405L255.245 239.22C254.605 240.56 253.285 241.24 251.725 241.24ZM252.105 239.54C254.025 239.54 255.205 238.12 255.205 236.08C255.205 234.08 254.025 232.64 252.105 232.64C250.185 232.64 249.065 234.08 249.065 236.08C249.065 238.1 250.185 239.54 252.105 239.54ZM83.9173 263.24C81.8173 263.24 80.5773 262.06 80.5773 260.28C80.5773 258.48 81.9173 257.36 84.2173 257.18L87.2973 256.94V256.66C87.2973 255.02 86.3173 254.44 84.9973 254.44C83.4173 254.44 82.5173 255.14 82.5173 256.32H80.8773C80.8773 254.28 82.5573 252.94 85.0773 252.94C87.4973 252.94 89.1373 254.22 89.1373 256.86V263H87.5373L87.3373 261.42C86.8373 262.54 85.4973 263.24 83.9173 263.24ZM84.4573 261.78C86.2373 261.78 87.3173 260.62 87.3173 258.78V258.26L84.8173 258.46C83.1573 258.62 82.4773 259.26 82.4773 260.22C82.4773 261.26 83.2373 261.78 84.4573 261.78ZM93.6209 263H91.7409V253.22H93.4409L93.6409 254.72C94.2609 253.6 95.5009 252.94 96.8809 252.94C99.4609 252.94 100.641 254.52 100.641 257.02V263H98.7609V257.44C98.7609 255.46 97.8409 254.66 96.4009 254.66C94.6409 254.66 93.6209 255.92 93.6209 257.82V263ZM102.109 267.38V265.84H103.369C104.269 265.84 104.989 265.7 105.449 264.46L105.789 263.52L101.849 253.22H103.829L106.669 261.1L109.569 253.22H111.509L106.889 265.2C106.229 266.88 105.249 267.58 103.749 267.58C103.129 267.58 102.609 267.5 102.109 267.38ZM122.399 263.24C119.559 263.24 117.839 261.12 117.839 258.14C117.839 255.14 119.579 252.94 122.479 252.94C123.979 252.94 125.239 253.6 125.899 254.8V248.28H127.759V263H126.079L125.919 261.22C125.279 262.56 123.959 263.24 122.399 263.24ZM122.779 261.54C124.699 261.54 125.879 260.12 125.879 258.08C125.879 256.08 124.699 254.64 122.779 254.64C120.859 254.64 119.739 256.08 119.739 258.08C119.739 260.1 120.859 261.54 122.779 261.54ZM133.331 263.24C131.231 263.24 129.991 262.06 129.991 260.28C129.991 258.48 131.331 257.36 133.631 257.18L136.711 256.94V256.66C136.711 255.02 135.731 254.44 134.411 254.44C132.831 254.44 131.931 255.14 131.931 256.32H130.291C130.291 254.28 131.971 252.94 134.491 252.94C136.911 252.94 138.551 254.22 138.551 256.86V263H136.951L136.751 261.42C136.251 262.54 134.911 263.24 133.331 263.24ZM133.871 261.78C135.651 261.78 136.731 260.62 136.731 258.78V258.26L134.231 258.46C132.571 258.62 131.891 259.26 131.891 260.22C131.891 261.26 132.651 261.78 133.871 261.78ZM143.759 263H141.879V254.8H139.959V253.22H141.879V250.16H143.759V253.22H145.679V254.8H143.759V263ZM150.109 263.24C148.009 263.24 146.769 262.06 146.769 260.28C146.769 258.48 148.109 257.36 150.409 257.18L153.489 256.94V256.66C153.489 255.02 152.509 254.44 151.189 254.44C149.609 254.44 148.709 255.14 148.709 256.32H147.069C147.069 254.28 148.749 252.94 151.269 252.94C153.689 252.94 155.329 254.22 155.329 256.86V263H153.729L153.529 261.42C153.029 262.54 151.689 263.24 150.109 263.24ZM150.649 261.78C152.429 261.78 153.509 260.62 153.509 258.78V258.26L151.009 258.46C149.349 258.62 148.669 259.26 148.669 260.22C148.669 261.26 149.429 261.78 150.649 261.78ZM166.161 263H164.281V254.8H162.361V253.22H164.281V250.16H166.161V253.22H168.081V254.8H166.161V263ZM170.688 250.9C170.008 250.9 169.448 250.34 169.448 249.66C169.448 248.96 170.008 248.42 170.688 248.42C171.368 248.42 171.928 248.96 171.928 249.66C171.928 250.34 171.368 250.9 170.688 250.9ZM169.768 263V253.22H171.648V263H169.768ZM176.298 263H174.418V248.28H176.298V263ZM180.985 263H179.105V248.28H180.985V263ZM191.101 263H189.221V253.22H190.921L191.121 254.72C191.741 253.6 192.981 252.94 194.361 252.94C196.941 252.94 198.121 254.52 198.121 257.02V263H196.241V257.44C196.241 255.46 195.321 254.66 193.881 254.66C192.121 254.66 191.101 255.92 191.101 257.82V263ZM200.085 258.1C200.085 255.08 202.245 252.96 205.185 252.96C208.105 252.96 210.265 255.08 210.265 258.1C210.265 261.12 208.105 263.24 205.185 263.24C202.245 263.24 200.085 261.12 200.085 258.1ZM201.985 258.1C201.985 260.14 203.285 261.56 205.185 261.56C207.065 261.56 208.385 260.14 208.385 258.1C208.385 256.06 207.065 254.64 205.185 254.64C203.285 254.64 201.985 256.06 201.985 258.1ZM213.997 263L210.797 253.22H212.737L214.357 258.3C214.577 259.02 214.777 259.76 214.957 260.62C215.117 259.76 215.377 258.94 215.597 258.3L217.237 253.22H219.157L220.777 258.3C220.937 258.78 221.257 259.92 221.417 260.62C221.577 259.84 221.757 259.16 222.037 258.3L223.677 253.22H225.637L222.297 263H220.517L218.817 257.76C218.497 256.78 218.297 256.02 218.197 255.48C218.097 255.96 217.917 256.6 217.557 257.78L215.857 263H213.997ZM227.067 263.24C226.287 263.24 225.627 262.6 225.627 261.84C225.627 261.06 226.287 260.42 227.067 260.42C227.827 260.42 228.487 261.06 228.487 261.84C228.487 262.6 227.827 263.24 227.067 263.24ZM59.0667 308.22C54.9467 308.22 52.2067 305.26 52.2067 300.78C52.2067 296.32 55.0267 293.3 59.1667 293.3C62.4267 293.3 64.9267 295.24 65.4667 298.2H63.3667C62.8267 296.32 61.2067 295.18 59.1067 295.18C56.1867 295.18 54.2667 297.38 54.2667 300.76C54.2667 304.14 56.1867 306.34 59.1067 306.34C61.2267 306.34 62.9067 305.2 63.4467 303.42H65.5267C64.9067 306.3 62.3267 308.22 59.0667 308.22ZM70.2747 308.24C68.1747 308.24 66.9347 307.06 66.9347 305.28C66.9347 303.48 68.2747 302.36 70.5747 302.18L73.6547 301.94V301.66C73.6547 300.02 72.6747 299.44 71.3547 299.44C69.7747 299.44 68.8747 300.14 68.8747 301.32H67.2347C67.2347 299.28 68.9147 297.94 71.4347 297.94C73.8547 297.94 75.4947 299.22 75.4947 301.86V308H73.8947L73.6947 306.42C73.1947 307.54 71.8547 308.24 70.2747 308.24ZM70.8147 306.78C72.5947 306.78 73.6747 305.62 73.6747 303.78V303.26L71.1747 303.46C69.5147 303.62 68.8347 304.26 68.8347 305.22C68.8347 306.26 69.5947 306.78 70.8147 306.78ZM78.0983 312.38V298.22H79.7983L79.9383 299.98C80.5983 298.64 81.9183 297.94 83.4783 297.94C86.2783 297.94 88.0183 300.04 88.0183 303.04C88.0183 306.02 86.3783 308.26 83.4783 308.26C81.9183 308.26 80.6183 307.6 79.9783 306.4V312.38H78.0983ZM79.9983 303.12C79.9983 305.12 81.1583 306.56 83.0783 306.56C84.9983 306.56 86.1383 305.12 86.1383 303.12C86.1383 301.1 84.9983 299.66 83.0783 299.66C81.1583 299.66 79.9983 301.08 79.9983 303.12ZM92.7528 308H90.8728V299.8H88.9528V298.22H90.8728V295.16H92.7528V298.22H94.6728V299.8H92.7528V308ZM103.12 298.22H104.98V308H103.3L103.1 306.52C102.54 307.54 101.24 308.24 99.8 308.24C97.52 308.24 96.24 306.7 96.24 304.3V298.22H98.12V303.68C98.12 305.78 99.02 306.58 100.46 306.58C102.18 306.58 103.12 305.48 103.12 303.38V298.22ZM113.308 298.14V299.86H112.468C110.688 299.86 109.588 300.94 109.588 302.82V308H107.708V298.24H109.468L109.588 299.72C109.988 298.7 110.968 298.02 112.308 298.02C112.648 298.02 112.928 298.06 113.308 298.14ZM118.939 308.24C116.059 308.24 114.079 306.16 114.079 303.12C114.079 300.06 116.019 297.94 118.859 297.94C121.639 297.94 123.459 299.86 123.459 302.76V303.46L115.899 303.48C116.039 305.54 117.119 306.68 118.979 306.68C120.439 306.68 121.399 306.08 121.719 304.96H123.479C122.999 307.06 121.359 308.24 118.939 308.24ZM118.859 299.52C117.219 299.52 116.179 300.5 115.939 302.22H121.579C121.579 300.6 120.519 299.52 118.859 299.52ZM130.088 312.38V310.84H131.348C132.248 310.84 132.968 310.7 133.428 309.46L133.768 308.52L129.828 298.22H131.808L134.648 306.1L137.548 298.22H139.488L134.868 310.2C134.208 311.88 133.228 312.58 131.728 312.58C131.108 312.58 130.588 312.5 130.088 312.38ZM139.978 303.1C139.978 300.08 142.138 297.96 145.078 297.96C147.998 297.96 150.158 300.08 150.158 303.1C150.158 306.12 147.998 308.24 145.078 308.24C142.138 308.24 139.978 306.12 139.978 303.1ZM141.878 303.1C141.878 305.14 143.178 306.56 145.078 306.56C146.958 306.56 148.278 305.14 148.278 303.1C148.278 301.06 146.958 299.64 145.078 299.64C143.178 299.64 141.878 301.06 141.878 303.1ZM158.765 298.22H160.625V308H158.945L158.745 306.52C158.185 307.54 156.885 308.24 155.445 308.24C153.165 308.24 151.885 306.7 151.885 304.3V298.22H153.765V303.68C153.765 305.78 154.665 306.58 156.105 306.58C157.825 306.58 158.765 305.48 158.765 303.38V298.22ZM168.952 298.14V299.86H168.112C166.332 299.86 165.232 300.94 165.232 302.82V308H163.352V298.24H165.112L165.232 299.72C165.632 298.7 166.612 298.02 167.952 298.02C168.292 298.02 168.572 298.06 168.952 298.14ZM182.804 308V299.8H178.464V308H176.584V299.8H175.144V298.22H176.584V296.66C176.584 294.26 177.884 293.28 179.584 293.28C179.944 293.28 180.384 293.3 180.744 293.36V294.98H179.904C178.764 294.98 178.464 295.6 178.464 296.66V298.22H184.684V308H182.804ZM183.744 295.82C183.064 295.82 182.544 295.3 182.544 294.62C182.544 293.94 183.064 293.42 183.744 293.42C184.404 293.42 184.924 293.94 184.924 294.62C184.924 295.3 184.404 295.82 183.744 295.82ZM192.956 298.14V299.86H192.116C190.336 299.86 189.236 300.94 189.236 302.82V308H187.356V298.24H189.116L189.236 299.72C189.636 298.7 190.616 298.02 191.956 298.02C192.296 298.02 192.576 298.06 192.956 298.14ZM193.919 305.16H195.719C195.719 306.16 196.479 306.76 197.719 306.76C199.039 306.76 199.799 306.22 199.799 305.32C199.799 304.66 199.479 304.26 198.459 304L196.739 303.6C194.999 303.18 194.179 302.32 194.179 300.88C194.179 299.08 195.699 297.94 197.859 297.94C199.999 297.94 201.399 299.14 201.439 301H199.639C199.599 300.02 198.939 299.4 197.799 299.4C196.619 299.4 195.959 299.92 195.959 300.82C195.959 301.48 196.439 301.92 197.399 302.16L199.119 302.58C200.779 302.98 201.599 303.74 201.599 305.2C201.599 307.06 199.999 308.24 197.679 308.24C195.379 308.24 193.919 307.02 193.919 305.16ZM206.444 308H204.564V299.8H202.644V298.22H204.564V295.16H206.444V298.22H208.364V299.8H206.444V308ZM214.72 305.16H216.52C216.52 306.16 217.28 306.76 218.52 306.76C219.84 306.76 220.6 306.22 220.6 305.32C220.6 304.66 220.28 304.26 219.26 304L217.54 303.6C215.8 303.18 214.98 302.32 214.98 300.88C214.98 299.08 216.5 297.94 218.66 297.94C220.8 297.94 222.2 299.14 222.24 301H220.44C220.4 300.02 219.74 299.4 218.6 299.4C217.42 299.4 216.76 299.92 216.76 300.82C216.76 301.48 217.24 301.92 218.2 302.16L219.92 302.58C221.58 302.98 222.4 303.74 222.4 305.2C222.4 307.06 220.8 308.24 218.48 308.24C216.18 308.24 214.72 307.02 214.72 305.16ZM228.705 308.24C225.825 308.24 223.845 306.16 223.845 303.12C223.845 300.06 225.785 297.94 228.625 297.94C231.405 297.94 233.225 299.86 233.225 302.76V303.46L225.665 303.48C225.805 305.54 226.885 306.68 228.745 306.68C230.205 306.68 231.165 306.08 231.485 304.96H233.245C232.765 307.06 231.125 308.24 228.705 308.24ZM228.625 299.52C226.985 299.52 225.945 300.5 225.705 302.22H231.345C231.345 300.6 230.285 299.52 228.625 299.52ZM237.987 308H236.107V299.8H234.187V298.22H236.107V295.16H237.987V298.22H239.907V299.8H237.987V308ZM246.423 303.1C246.423 300.08 248.583 297.96 251.523 297.96C254.443 297.96 256.603 300.08 256.603 303.1C256.603 306.12 254.443 308.24 251.523 308.24C248.583 308.24 246.423 306.12 246.423 303.1ZM248.323 303.1C248.323 305.14 249.623 306.56 251.523 306.56C253.403 306.56 254.723 305.14 254.723 303.1C254.723 301.06 253.403 299.64 251.523 299.64C249.623 299.64 248.323 301.06 248.323 303.1ZM257.586 298.22H259.026V296.66C259.026 294.26 260.346 293.28 262.126 293.28C262.486 293.28 262.906 293.3 263.286 293.36V294.98H262.446C261.226 294.98 260.906 295.6 260.906 296.66V298.22H263.226V299.8H260.906V308H259.026V299.8H257.586V298.22ZM140.114 331.24C137.274 331.24 135.554 329.12 135.554 326.14C135.554 323.14 137.294 320.94 140.194 320.94C141.694 320.94 142.954 321.6 143.614 322.8V316.28H145.474V331H143.794L143.634 329.22C142.994 330.56 141.674 331.24 140.114 331.24ZM140.494 329.54C142.414 329.54 143.594 328.12 143.594 326.08C143.594 324.08 142.414 322.64 140.494 322.64C138.574 322.64 137.454 324.08 137.454 326.08C137.454 328.1 138.574 329.54 140.494 329.54ZM151.046 331.24C148.946 331.24 147.706 330.06 147.706 328.28C147.706 326.48 149.046 325.36 151.346 325.18L154.426 324.94V324.66C154.426 323.02 153.446 322.44 152.126 322.44C150.546 322.44 149.646 323.14 149.646 324.32H148.006C148.006 322.28 149.686 320.94 152.206 320.94C154.626 320.94 156.266 322.22 156.266 324.86V331H154.666L154.466 329.42C153.966 330.54 152.626 331.24 151.046 331.24ZM151.586 329.78C153.366 329.78 154.446 328.62 154.446 326.78V326.26L151.946 326.46C150.286 326.62 149.606 327.26 149.606 328.22C149.606 329.26 150.366 329.78 151.586 329.78ZM161.474 331H159.594V322.8H157.674V321.22H159.594V318.16H161.474V321.22H163.394V322.8H161.474V331ZM167.824 331.24C165.724 331.24 164.484 330.06 164.484 328.28C164.484 326.48 165.824 325.36 168.124 325.18L171.204 324.94V324.66C171.204 323.02 170.224 322.44 168.904 322.44C167.324 322.44 166.424 323.14 166.424 324.32H164.784C164.784 322.28 166.464 320.94 168.984 320.94C171.404 320.94 173.044 322.22 173.044 324.86V331H171.444L171.244 329.42C170.744 330.54 169.404 331.24 167.824 331.24ZM168.364 329.78C170.144 329.78 171.224 328.62 171.224 326.78V326.26L168.724 326.46C167.064 326.62 166.384 327.26 166.384 328.22C166.384 329.26 167.144 329.78 168.364 329.78ZM177.947 326.66H176.487C176.287 325.16 176.147 322.5 176.147 319.9V316.54H178.307V319.9C178.307 322.54 178.147 325.18 177.947 326.66ZM177.227 331.28C176.427 331.28 175.787 330.64 175.787 329.86C175.787 329.08 176.427 328.44 177.227 328.44C177.987 328.44 178.647 329.08 178.647 329.86C178.647 330.64 177.987 331.28 177.227 331.28Z" fill="#132A13"/>
<g clip-path="url(#clip0_6_84)">
<path d="M99.66 8.87572C100.83 5.11676 103.491 1.66918 107.171 0.398448C110.851 -0.872285 116.24 1.06346 119.007 3.84282C124.068 8.92682 125.303 26.3922 121.826 31.9115C121.134 31.8745 118.748 31.8473 118.048 31.8208L117.058 28.4942V31.788C111.594 31.6179 105.906 31.7244 100.215 31.8346C99.705 27.9269 98.4898 12.6347 99.66 8.87572Z" fill="#2F2E41"/>
<path d="M153.746 67.0354C153.254 66.969 152.783 66.7949 152.366 66.5252C151.948 66.2555 151.594 65.8967 151.329 65.4743C151.064 65.0518 150.894 64.5759 150.831 64.0801C150.768 63.5842 150.814 63.0805 150.965 62.6044L141.322 55.3126L147.219 53.1819L155.472 60.4329C156.249 60.7418 156.886 61.3271 157.263 62.078C157.64 62.8289 157.731 63.6931 157.518 64.507C157.306 65.3208 156.804 66.0277 156.109 66.4937C155.414 66.9597 154.573 67.1524 153.746 67.0354Z" fill="#9E616A"/>
<path d="M115.438 28.8159L116.361 25.5256C116.361 25.5256 118.662 24.7695 122.588 27.6397C126.514 30.5099 150.749 56.1298 150.749 56.1298L143.534 57.1467L121.482 41.2676L115.438 28.8159Z" fill="#E6E6E6"/>
<path d="M266.419 154.486C281.178 146.89 292.928 131.658 292.604 114.957C278.806 126.642 261.352 133.031 243.331 132.993C236.381 132.953 228.655 132.179 223.253 136.587C219.892 139.331 218.13 143.676 217.609 148.003C217.087 152.33 217.673 156.707 218.257 161.026L217.894 162.051C234.427 163.194 251.66 162.083 266.419 154.486Z" fill="#F0F0F0"/>
<path d="M292.259 114.917C285.83 126.966 275.541 137.022 263.275 142.927C260.623 144.203 257.823 145.266 254.895 145.652C252.038 146.006 249.139 145.583 246.499 144.426C244.016 143.398 241.595 142.056 238.907 141.653C236.074 141.229 233.366 142.164 231.169 143.969C228.482 146.177 226.742 149.227 225.143 152.269C223.368 155.646 221.577 159.183 218.441 161.49C218.061 161.77 218.514 162.348 218.893 162.069C224.348 158.054 225.662 150.82 230.129 145.964C232.213 143.698 234.987 142.051 238.141 142.306C240.899 142.528 243.397 143.91 245.902 144.973C248.532 146.09 251.2 146.708 254.067 146.48C257 146.246 259.847 145.292 262.52 144.089C268.56 141.317 274.13 137.604 279.026 133.087C284.642 127.964 289.348 121.909 292.938 115.186C293.16 114.77 292.479 114.504 292.259 114.917Z" fill="white"/>
<path d="M267.362 141.22C268.648 143.169 270.579 144.595 272.811 145.242C275.043 145.889 277.431 145.715 279.547 144.751C279.975 144.555 279.692 143.876 279.264 144.072C277.294 144.973 275.07 145.135 272.993 144.528C270.916 143.922 269.122 142.587 267.936 140.764C267.678 140.368 267.105 140.826 267.362 141.22Z" fill="white"/>
<path d="M247.69 145.115C248.586 140.416 251.206 136.229 255.029 133.391C255.408 133.11 254.955 132.532 254.577 132.813C250.605 135.774 247.886 140.136 246.965 145.028C246.877 145.495 247.603 145.579 247.69 145.115Z" fill="white"/>
<path d="M283.761 127.56C283.107 126.91 282.624 126.107 282.355 125.222C282.086 124.337 282.039 123.399 282.218 122.492C282.312 122.027 281.586 121.943 281.493 122.405C281.3 123.409 281.353 124.445 281.648 125.423C281.943 126.401 282.472 127.291 283.187 128.015C283.249 128.089 283.336 128.137 283.432 128.148C283.527 128.16 283.623 128.134 283.7 128.077C283.776 128.016 283.824 127.928 283.836 127.831C283.847 127.734 283.82 127.637 283.761 127.56Z" fill="white"/>
<path d="M248.675 79.7726C248.608 80.0613 248.542 80.35 248.47 80.6411C247.556 84.5178 246.331 88.3134 244.807 91.9902C244.694 92.2764 244.575 92.5646 244.454 92.8469C240.689 101.666 235.333 109.703 228.657 116.551C225.999 119.274 223.138 121.789 220.101 124.074C215.906 127.229 211.109 130.314 208.276 134.557C207.976 134.997 207.703 135.454 207.458 135.928L216.682 161.525C216.732 161.573 216.776 161.623 216.826 161.671L217.148 162.71C217.313 162.603 217.482 162.488 217.646 162.382C217.742 162.32 217.836 162.253 217.932 162.191C217.995 162.148 218.058 162.105 218.118 162.07C218.139 162.056 218.16 162.042 218.175 162.029C218.235 161.994 218.287 161.956 218.34 161.923C219.285 161.286 220.227 160.642 221.165 159.989C221.171 159.987 221.171 159.987 221.175 159.979C228.317 154.991 235.108 149.359 240.835 142.866C241.007 142.67 241.185 142.473 241.353 142.266C243.919 139.325 246.241 136.177 248.298 132.855C249.418 131.032 250.447 129.153 251.378 127.225C253.777 122.24 255.382 116.905 256.136 111.416C257.637 100.475 255.649 89.1714 249.176 80.4352C249.01 80.2118 248.846 79.9938 248.675 79.7726Z" fill="#F0F0F0"/>
<path d="M248.373 79.9481C250.437 93.4698 248.228 107.744 241.962 119.902C240.607 122.53 239.006 125.078 236.899 127.163C234.829 129.18 232.262 130.602 229.463 131.28C226.866 131.965 224.131 132.363 221.745 133.673C219.229 135.054 217.626 137.444 216.95 140.218C216.123 143.612 216.555 147.103 217.095 150.502C217.695 154.276 218.378 158.187 217.253 161.932C217.116 162.386 217.823 162.573 217.959 162.119C219.917 155.603 216.645 149.03 217.311 142.442C217.621 139.368 218.853 136.37 221.523 134.659C223.858 133.163 226.678 132.75 229.313 132.079C232.08 131.374 234.579 130.249 236.732 128.327C238.935 126.36 240.638 123.87 242.054 121.288C245.22 115.409 247.45 109.064 248.661 102.486C250.085 94.9871 250.226 87.2977 249.077 79.7506C249.006 79.2835 248.303 79.4841 248.373 79.9481Z" fill="white"/>
<path d="M244.206 116.058C246.397 116.835 248.79 116.801 250.959 115.963C253.127 115.125 254.93 113.537 256.044 111.483C256.268 111.067 255.637 110.696 255.412 111.113C254.378 113.028 252.699 114.507 250.678 115.283C248.657 116.059 246.427 116.082 244.392 115.346C243.949 115.187 243.765 115.9 244.206 116.058Z" fill="white"/>
<path d="M230.825 131.107C228.734 126.811 228.325 121.878 229.682 117.292C229.817 116.838 229.11 116.651 228.976 117.105C227.573 121.88 228.008 127.012 230.194 131.478C230.403 131.904 231.033 131.53 230.825 131.107Z" fill="white"/>
<path d="M249.14 95.1997C248.23 95.0773 247.365 94.729 246.621 94.1861C245.878 93.6432 245.28 92.9228 244.881 92.0894C244.678 91.6614 244.049 92.0351 244.25 92.4603C244.695 93.379 245.357 94.1738 246.176 94.7755C246.996 95.3771 247.95 95.7672 248.954 95.9117C249.048 95.9333 249.146 95.9182 249.229 95.8695C249.311 95.8208 249.373 95.7421 249.4 95.6494C249.424 95.555 249.41 95.4548 249.362 95.3706C249.313 95.2864 249.233 95.225 249.14 95.1997Z" fill="white"/>
<path d="M88.9039 33.6895C76.261 22.8903 57.7883 17.8323 42.625 24.5709C58.6399 32.9007 71.2157 46.672 78.1272 63.4481C80.7694 69.9277 83.0389 77.4118 89.1566 80.7364C92.9631 82.8052 97.62 82.769 101.782 81.5862C105.945 80.4032 109.725 78.172 113.454 75.9636L114.532 75.9059C109.206 60.088 101.547 44.4886 88.9039 33.6895Z" fill="#F0F0F0"/>
<path d="M42.7211 24.9078C56.2288 26.2431 69.4007 31.9368 79.5336 41.0691C81.7243 43.0435 83.7762 45.2385 85.2584 47.813C86.6841 50.3335 87.4141 53.1929 87.3726 56.094C87.3879 58.7999 87.0926 61.5694 87.7601 64.2243C88.4637 67.0228 90.3638 69.1811 92.8625 70.5285C95.9197 72.177 99.3822 72.6201 102.783 72.9347C106.559 73.284 110.487 73.5865 113.808 75.6135C114.21 75.8591 114.565 75.2154 114.163 74.9702C108.385 71.4435 101.257 73.0102 95.0896 70.7274C92.212 69.6623 89.6354 67.7165 88.6526 64.6853C87.7932 62.0346 88.0953 59.1784 88.1033 56.4386C88.1118 53.5617 87.6496 50.8427 86.3354 48.2638C84.991 45.6257 83.02 43.3452 80.8889 41.323C76.0226 36.7738 70.4769 33.0241 64.455 30.2113C57.6 26.9627 50.2441 24.92 42.7057 24.1716C42.2391 24.1255 42.2575 24.862 42.7211 24.9078Z" fill="white"/>
<path d="M76.3953 37.9255C77.6846 35.9784 78.2453 33.6327 77.9772 31.3073C77.7091 28.982 76.6297 26.8284 74.9317 25.2312C74.5871 24.9092 74.0745 25.4339 74.4196 25.7563C76.0035 27.2407 77.0087 29.2469 77.254 31.4128C77.4992 33.5787 76.9683 35.7616 75.7571 37.5675C75.4943 37.9603 76.134 38.3161 76.3953 37.9255Z" fill="white"/>
<path d="M87.5441 54.7211C82.8967 55.699 78.0543 54.8754 73.9826 52.4144C73.5794 52.1703 73.2247 52.8139 73.6274 53.0578C77.8693 55.6107 82.9103 56.4575 87.7443 55.4291C88.205 55.3308 88.0023 54.6233 87.5441 54.7211Z" fill="white"/>
<path d="M57.57 27.9384C57.2269 28.7966 56.6777 29.5554 55.9718 30.1467C55.2658 30.7381 54.4251 31.1434 53.5253 31.3264C53.0637 31.4188 53.2668 32.1262 53.7255 32.0344C54.7187 31.8276 55.6465 31.3788 56.428 30.7272C57.2094 30.0756 57.8206 29.241 58.2083 28.2964C58.2522 28.2104 58.262 28.1108 58.2357 28.0178C58.2095 27.9248 58.149 27.8454 58.0667 27.7957C57.982 27.7488 57.8823 27.7374 57.7893 27.7641C57.6963 27.7908 57.6175 27.8534 57.57 27.9384Z" fill="white"/>
<path d="M27.348 78.9908C27.6379 78.9413 27.9278 78.8919 28.2221 78.8468C32.1233 78.2026 36.0699 77.8788 40.023 77.8788C40.3287 77.8739 40.6385 77.8735 40.9436 77.8775C50.4677 77.9797 59.8901 79.8634 68.732 83.4328C72.2491 84.8563 75.6536 86.5476 78.9161 88.4918C83.4216 91.1772 88.0948 94.4501 93.0708 95.4489C93.5888 95.559 94.1131 95.6366 94.6406 95.6814L114.518 77.236C114.542 77.1712 114.571 77.1108 114.596 77.0458L115.423 76.346C115.261 76.2338 115.092 76.121 114.93 76.0089C114.837 75.9435 114.739 75.8822 114.646 75.8168C114.582 75.7744 114.518 75.7323 114.463 75.6904C114.442 75.6763 114.421 75.6623 114.404 75.6527C114.349 75.6108 114.294 75.5779 114.243 75.5406C113.296 74.9075 112.343 74.28 111.384 73.6581C111.38 73.6535 111.38 73.6535 111.371 73.653C104.052 68.9333 96.2782 64.788 88.1271 61.9638C87.8818 61.8789 87.6326 61.7893 87.3783 61.7128C83.6971 60.4604 79.9206 59.5133 76.0863 58.881C73.9857 58.5416 71.8694 58.3096 69.7455 58.1859C64.2571 57.8769 58.7546 58.44 53.4398 59.8546C42.8452 62.6761 33.2637 68.8815 27.7614 78.2694C27.6208 78.5096 27.4844 78.7459 27.348 78.9908Z" fill="#F0F0F0"/>
<path d="M27.6249 79.2036C39.2076 72.0724 53.1255 68.6248 66.6708 69.7671C69.5993 70.014 72.5487 70.5214 75.2699 71.6774C77.9137 72.8247 80.2045 74.6648 81.9043 77.0063C83.5327 79.1575 84.9512 81.548 87.07 83.2627C89.3033 85.0701 92.1095 85.6403 94.9094 85.1998C98.3351 84.6607 101.364 82.9131 104.268 81.1003C107.492 79.0876 110.808 76.9455 114.671 76.5486C115.139 76.5005 115.037 75.7714 114.57 75.8194C107.85 76.5099 103.094 82.0871 96.8064 84.007C93.8726 84.9029 90.6531 84.913 88.0579 83.0892C85.7884 81.4943 84.3236 79.0305 82.6935 76.838C80.9819 74.5359 78.9888 72.6454 76.399 71.3838C73.7499 70.0933 70.814 69.4686 67.9046 69.1473C61.3018 68.4682 54.6342 68.8398 48.146 70.2485C40.7322 71.8148 33.6388 74.6479 27.1728 78.6252C26.7727 78.8715 27.2274 79.4484 27.6249 79.2036Z" fill="white"/>
<path d="M62.2874 69.1616C62.1538 66.8245 61.2004 64.6113 59.5974 62.9174C57.9944 61.2234 55.8462 60.1589 53.5364 59.9141C53.0689 59.8662 52.9731 60.5962 53.4412 60.6442C55.5925 60.8682 57.5934 61.86 59.0829 63.4405C60.5724 65.0209 61.4524 67.0861 61.564 69.2631C61.5888 69.7362 62.3121 69.632 62.2874 69.1616Z" fill="white"/>
<path d="M81.2212 75.806C78.0946 79.4072 73.7363 81.6883 69.0153 82.1944C68.5475 82.2442 68.6487 82.9733 69.116 82.9236C74.0278 82.3877 78.5585 80.0046 81.8039 76.2499C82.113 75.8918 81.5286 75.4499 81.2212 75.806Z" fill="white"/>
<path d="M41.2911 72.612C41.5298 73.5054 41.5445 74.4446 41.3341 75.3452C41.1236 76.2458 40.6945 77.0796 40.0853 77.7717C39.7719 78.1257 40.3567 78.5672 40.6681 78.2156C41.3376 77.4477 41.8103 76.5263 42.045 75.5318C42.2798 74.5373 42.2693 73.5 42.0146 72.5105C41.9983 72.4152 41.9466 72.3297 41.8701 72.2714C41.7936 72.2131 41.6979 72.1864 41.6025 72.1967C41.5068 72.2106 41.4204 72.262 41.3621 72.3398C41.3038 72.4176 41.2783 72.5154 41.2911 72.612Z" fill="white"/>
<path d="M223.226 98.3278C223.173 97.3979 222.796 96.5168 222.161 95.8407C221.525 95.1646 220.673 94.7371 219.754 94.6342L163.25 88.2075C162.708 88.1452 162.159 88.1978 161.638 88.362L148.676 92.4527L141.239 94.8022L127.514 99.1328C126.685 99.3953 125.967 99.9274 125.471 100.646C124.974 101.364 124.729 102.229 124.772 103.103L127.089 158.613C127.139 159.515 127.492 160.374 128.09 161.046C128.689 161.719 129.497 162.166 130.381 162.313L188.075 162.439C188.346 162.484 188.621 162.499 188.895 162.483C189.294 162.464 189.688 162.383 190.063 162.243L223.872 162.007C224.66 161.715 225.333 161.174 225.792 160.466C226.25 159.757 226.47 158.918 226.419 158.074L223.226 98.3278Z" fill="white"/>
<path d="M130.926 158.899L188.619 159.025C188.703 159.039 188.79 159.031 188.87 159.001L222.674 158.768C222.773 158.732 222.858 158.664 222.916 158.575C222.973 158.486 223.001 158.381 222.994 158.275L219.805 98.5276C219.797 98.412 219.749 98.3027 219.67 98.2185C219.591 98.1342 219.486 98.0803 219.371 98.0659L218.991 98.0207L162.864 91.6439C162.839 91.6404 162.813 91.6397 162.787 91.6417C162.745 91.6429 162.703 91.6496 162.662 91.6616L131.047 101.641L128.538 102.431C128.435 102.465 128.346 102.532 128.285 102.621C128.223 102.71 128.192 102.818 128.197 102.926L130.514 158.435C130.52 158.548 130.564 158.656 130.639 158.74C130.714 158.825 130.815 158.881 130.926 158.899Z" fill="#31572C"/>
<path d="M131.047 101.641L162.662 91.6616C162.703 91.6496 162.745 91.6429 162.787 91.6417C162.813 91.6397 162.839 91.6404 162.864 91.6439L218.991 98.0207L205.474 102.455L200.414 104.111L186.019 108.83C185.976 108.841 185.933 108.85 185.889 108.856C185.862 108.853 185.834 108.851 185.8 108.849L131.047 101.641Z" fill="#2F2E41"/>
<path d="M130.381 162.316L188.074 162.441C188.346 162.485 188.621 162.498 188.895 162.48C189.295 162.462 189.69 162.383 190.066 162.245L223.87 162.011C224.658 161.718 225.331 161.177 225.791 160.468C226.25 159.759 226.47 158.92 226.419 158.074L223.225 98.3279C223.185 97.6281 222.961 96.9516 222.578 96.367C222.525 96.2896 222.472 96.2123 222.414 96.1411C222.017 95.6174 221.493 95.2048 220.893 94.9427C220.531 94.7826 220.147 94.6788 219.755 94.6346L219.687 94.6256L163.252 88.2065C163.022 88.1833 162.791 88.1765 162.56 88.1862C162.246 88.2078 161.936 88.2679 161.637 88.3649L148.676 92.4509L141.24 94.8042L127.513 99.1344C126.951 99.3109 126.436 99.6137 126.007 100.02C125.973 100.047 125.942 100.076 125.913 100.109C125.892 100.13 125.872 100.153 125.854 100.177C125.487 100.564 125.201 101.023 125.015 101.526C124.83 102.028 124.747 102.563 124.773 103.099L127.086 158.613C127.136 159.516 127.489 160.375 128.088 161.048C128.687 161.721 129.496 162.168 130.381 162.316ZM125.75 103.053C125.724 102.498 125.854 101.946 126.127 101.463C126.208 101.309 126.304 101.164 126.414 101.03C126.714 100.657 127.1 100.365 127.537 100.177C127.623 100.139 127.712 100.107 127.802 100.08L150.916 92.7878L161.931 89.3043C162.006 89.2791 162.076 89.2654 162.145 89.2463C162.315 89.2063 162.488 89.1826 162.661 89.1756C162.82 89.1628 162.98 89.1668 163.137 89.1875L219.64 95.6156C219.685 95.6216 219.724 95.6282 219.769 95.6341C220.286 95.7114 220.773 95.9304 221.176 96.2672C221.492 96.5234 221.751 96.8439 221.936 97.2079C222.121 97.5719 222.227 97.971 222.249 98.3794L225.438 158.132C225.477 158.765 225.312 159.393 224.969 159.924C224.626 160.456 224.122 160.862 223.533 161.082L189.723 161.317C189.246 161.494 188.731 161.543 188.228 161.462L130.535 161.341C129.873 161.229 129.268 160.894 128.82 160.39C128.372 159.885 128.107 159.243 128.069 158.567L125.75 103.053Z" fill="#3F3D56"/>
<path d="M189.07 162.59C188.941 162.597 188.815 162.551 188.719 162.465C188.622 162.378 188.564 162.256 188.556 162.126L185.377 108.389C185.369 108.259 185.413 108.13 185.5 108.032C185.586 107.934 185.707 107.875 185.837 107.867L185.841 107.867C185.97 107.86 186.097 107.905 186.193 107.992C186.289 108.079 186.347 108.201 186.355 108.331L189.535 162.067C189.542 162.198 189.498 162.327 189.412 162.425C189.326 162.523 189.204 162.582 189.075 162.59L189.07 162.59Z" fill="#3F3D56"/>
<path d="M209.016 158.955L203.481 158.917L198.228 103.789C198.228 103.789 204.877 101.047 205.169 101.514C205.346 101.792 208.996 158.613 209.016 158.955Z" fill="#3F3D56"/>
<path d="M221.463 96.7374L221.064 96.4077C220.652 96.0667 220.151 95.8541 219.622 95.7957L163.12 89.3678C162.808 89.3333 162.493 89.3509 162.187 89.4199L161.975 89.4727L161.933 88.6206L171.303 78.1722C171.861 77.5528 172.553 77.0716 173.326 76.7661C174.099 76.4606 174.931 76.3389 175.758 76.4107L213.955 79.8172C215.096 79.9151 216.176 80.3799 217.035 81.1432C217.894 81.9064 218.487 82.9277 218.727 84.0565L221.463 96.7374Z" fill="#3F3D56"/>
<path d="M136.063 138.781C136.123 138.771 136.184 138.768 136.245 138.772L153.635 139.834C153.853 139.848 154.056 139.948 154.201 140.112C154.346 140.277 154.42 140.492 154.406 140.712C154.393 140.931 154.294 141.136 154.131 141.282C153.968 141.428 153.754 141.503 153.536 141.489L136.146 140.427C135.944 140.415 135.754 140.328 135.611 140.183C135.469 140.038 135.385 139.845 135.374 139.642C135.364 139.438 135.429 139.238 135.556 139.079C135.683 138.92 135.863 138.814 136.063 138.781Z" fill="white"/>
<path d="M136.354 144.939C136.414 144.929 136.476 144.926 136.536 144.93L153.927 145.992C154.144 146.005 154.348 146.105 154.492 146.27C154.637 146.434 154.711 146.65 154.698 146.87C154.685 147.089 154.586 147.294 154.422 147.44C154.259 147.586 154.045 147.66 153.827 147.647L136.437 146.585C136.235 146.572 136.045 146.485 135.903 146.341C135.761 146.196 135.676 146.003 135.666 145.799C135.656 145.596 135.72 145.395 135.847 145.237C135.974 145.078 136.154 144.972 136.354 144.939Z" fill="white"/>
<path d="M219.531 71.4116L185.987 89.8209L172.205 64.3065L205.749 45.8972L219.531 71.4116Z" fill="white"/>
<path d="M219.531 71.4116L185.987 89.8209L172.205 64.3065L205.749 45.8972L219.531 71.4116ZM186.268 88.8604L218.578 71.1283L205.468 46.8577L173.158 64.5898L186.268 88.8604Z" fill="#E6E6E6"/>
<path d="M205.078 55.2744L180.383 68.8275L181.279 70.487L205.975 56.934L205.078 55.2744Z" fill="#31572C"/>
<path d="M207.767 60.2526L183.072 73.8057L183.968 75.4652L208.664 61.9122L207.767 60.2526Z" fill="#31572C"/>
<path d="M210.456 65.2312L185.761 78.7842L186.657 80.4438L211.353 66.8907L210.456 65.2312Z" fill="#31572C"/>
<path d="M143.091 48.9275C142.744 48.5361 142.626 48.4962 142.503 48.5817L123.414 61.8574C123.292 61.942 123.285 62.067 123.521 62.5271C124.145 63.5005 124.908 64.65 125.743 65.8694L150.303 101.751C152.605 105.114 154.605 107.762 154.761 107.654L173.85 94.3779C174.006 94.2695 172.26 91.4448 169.958 88.0815L145.398 52.2002C144.565 50.9835 143.771 49.8596 143.091 48.9275Z" fill="white"/>
<path d="M145.634 52.286C145.2 51.6726 144.786 51.1039 144.417 50.6084C143.972 50.0147 143.608 49.5442 143.331 49.2078C143.24 49.0983 143.162 49.0044 143.091 48.9275C142.744 48.5361 142.626 48.4962 142.503 48.5817L123.414 61.8574C123.292 61.942 123.285 62.067 123.521 62.5271C123.57 62.6215 123.63 62.7324 123.701 62.8599C123.914 63.2386 124.221 63.7491 124.614 64.3803C125.273 65.4312 126.14 66.7443 127.054 68.0794L150.377 102.153C151.436 103.7 152.463 105.136 153.268 106.197C154.608 107.963 154.707 107.895 154.856 107.791L173.945 94.5157C174.094 94.4121 174.192 94.3436 173.029 92.4535C172.331 91.3183 171.364 89.841 170.305 88.2937L146.982 54.2201C146.525 53.5518 146.068 52.897 145.634 52.286ZM127.327 67.8893C126.416 66.5583 125.551 65.2479 124.896 64.2026C124.504 63.5765 124.2 63.0678 123.991 62.6946C123.873 62.4971 123.77 62.291 123.682 62.0778L142.612 48.9124C142.779 49.0706 142.934 49.2411 143.075 49.4227C143.212 49.5877 143.371 49.7863 143.551 50.0187C143.731 50.2517 143.931 50.5158 144.152 50.8109C144.889 51.7993 145.797 53.0778 146.709 54.4102L170.032 88.4838C172.245 91.7176 173.52 93.8488 173.678 94.2943L154.745 107.462C154.388 107.155 152.864 105.197 150.65 101.963L127.327 67.8893Z" fill="#E4E4E4"/>
<path d="M139.01 59.9639L135.395 62.4773C135.214 62.6035 135.09 62.7969 135.05 63.0152C135.011 63.2336 135.059 63.4588 135.184 63.6416L137.343 66.7968C137.469 66.9792 137.66 67.1041 137.877 67.1442C138.093 67.1842 138.317 67.1361 138.498 67.0104L142.112 64.4969C142.293 64.3704 142.417 64.177 142.457 63.9588C142.496 63.7407 142.449 63.5156 142.324 63.3327L140.165 60.1774C140.039 59.995 139.847 59.8701 139.631 59.8301C139.414 59.7901 139.191 59.8382 139.01 59.9639Z" fill="#31572C"/>
<path d="M148.014 63.4353L135.417 72.1954C135.377 72.2237 135.342 72.2599 135.315 72.3018C135.288 72.3437 135.27 72.3905 135.261 72.4396C135.252 72.4887 135.253 72.5391 135.263 72.5879C135.273 72.6366 135.293 72.6829 135.321 72.724C135.349 72.7651 135.385 72.8001 135.427 72.8272C135.468 72.8543 135.515 72.8729 135.564 72.8819C135.612 72.8909 135.662 72.8902 135.711 72.8797C135.759 72.8693 135.805 72.8493 135.846 72.821L148.442 64.0608C148.483 64.0325 148.517 63.9963 148.544 63.9544C148.571 63.9125 148.59 63.8657 148.599 63.8166C148.607 63.7676 148.607 63.7172 148.596 63.6684C148.586 63.6196 148.566 63.5733 148.538 63.5323C148.51 63.4912 148.474 63.4561 148.432 63.429C148.391 63.4019 148.344 63.3833 148.296 63.3743C148.247 63.3653 148.197 63.3661 148.149 63.3765C148.1 63.387 148.054 63.407 148.014 63.4353Z" fill="#E4E4E4"/>
<path d="M141.205 70.3342L136.421 73.6614C136.38 73.6897 136.345 73.7259 136.318 73.7678C136.292 73.8097 136.273 73.8565 136.264 73.9056C136.255 73.9547 136.256 74.0051 136.266 74.0539C136.277 74.1027 136.297 74.1489 136.325 74.19C136.353 74.231 136.389 74.2661 136.43 74.2932C136.472 74.3204 136.518 74.3389 136.567 74.3479C136.616 74.3569 136.666 74.3562 136.714 74.3457C136.762 74.3353 136.808 74.3153 136.849 74.287L141.633 70.9597C141.716 70.9025 141.772 70.8146 141.79 70.7155C141.808 70.6164 141.786 70.5141 141.73 70.4311C141.673 70.3482 141.586 70.2914 141.487 70.2732C141.389 70.255 141.287 70.2769 141.205 70.3342Z" fill="#E4E4E4"/>
<path d="M148.346 73.6043L144.732 76.1178C144.551 76.2439 144.427 76.4374 144.387 76.6557C144.347 76.874 144.395 77.0993 144.52 77.282L146.68 80.4373C146.805 80.6197 146.997 80.7446 147.214 80.7846C147.43 80.8247 147.654 80.7766 147.835 80.6509L151.449 78.1374C151.63 78.0109 151.754 77.8174 151.793 77.5993C151.833 77.3812 151.786 77.1561 151.661 76.9731L149.501 73.8179C149.376 73.6355 149.184 73.5106 148.968 73.4706C148.751 73.4305 148.528 73.4786 148.346 73.6043Z" fill="#31572C"/>
<path d="M157.35 77.0758L144.754 85.8359C144.672 85.8931 144.616 85.981 144.598 86.0801C144.58 86.1792 144.601 86.2815 144.658 86.3645C144.715 86.4474 144.802 86.5042 144.9 86.5224C144.999 86.5406 145.1 86.5187 145.182 86.4614L157.779 77.7013C157.819 77.673 157.854 77.6368 157.881 77.5949C157.908 77.553 157.926 77.5062 157.935 77.4571C157.944 77.408 157.943 77.3577 157.933 77.3089C157.923 77.2601 157.903 77.2138 157.875 77.1727C157.847 77.1317 157.811 77.0966 157.769 77.0695C157.728 77.0424 157.681 77.0238 157.633 77.0148C157.584 77.0058 157.534 77.0065 157.485 77.017C157.437 77.0275 157.391 77.0474 157.35 77.0758Z" fill="#E4E4E4"/>
<path d="M150.542 83.9747L145.758 87.3019C145.675 87.3591 145.619 87.447 145.601 87.5461C145.583 87.6452 145.605 87.7475 145.662 87.8305C145.718 87.9134 145.805 87.9702 145.904 87.9884C146.002 88.0066 146.104 87.9847 146.186 87.9274L150.97 84.6002C151.011 84.5719 151.046 84.5357 151.073 84.4938C151.099 84.4519 151.118 84.4051 151.127 84.356C151.136 84.3069 151.135 84.2565 151.125 84.2078C151.114 84.159 151.094 84.1127 151.066 84.0716C151.038 84.0306 151.002 83.9955 150.961 83.9684C150.919 83.9413 150.873 83.9227 150.824 83.9137C150.775 83.9047 150.725 83.9054 150.677 83.9159C150.629 83.9264 150.583 83.9463 150.542 83.9747Z" fill="#E4E4E4"/>
<path d="M157.683 87.2448L154.069 89.7583C153.888 89.8844 153.764 90.0779 153.724 90.2962C153.684 90.5145 153.732 90.7398 153.857 90.9225L156.017 94.0778C156.142 94.2602 156.334 94.3851 156.551 94.4251C156.767 94.4651 156.991 94.417 157.172 94.2913L160.786 91.7779C160.967 91.6514 161.09 91.4579 161.13 91.2398C161.17 91.0217 161.122 90.7965 160.998 90.6136L158.838 87.4584C158.713 87.276 158.521 87.1511 158.304 87.1111C158.088 87.071 157.865 87.1191 157.683 87.2448Z" fill="#31572C"/>
<path d="M166.687 90.7162L154.091 99.4764C154.05 99.5047 154.016 99.5409 153.989 99.5828C153.962 99.6247 153.943 99.6715 153.934 99.7206C153.925 99.7696 153.926 99.82 153.937 99.8688C153.947 99.9176 153.967 99.9639 153.995 100.005C154.023 100.046 154.059 100.081 154.1 100.108C154.142 100.135 154.188 100.154 154.237 100.163C154.286 100.172 154.336 100.171 154.384 100.161C154.433 100.15 154.478 100.13 154.519 100.102L167.115 91.3418C167.198 91.2846 167.254 91.1967 167.272 91.0976C167.29 90.9985 167.268 90.8962 167.212 90.8132C167.155 90.7303 167.068 90.6734 166.969 90.6553C166.871 90.6371 166.77 90.659 166.687 90.7162Z" fill="#E4E4E4"/>
<path d="M159.879 97.6151L155.095 100.942C155.054 100.971 155.019 101.007 154.992 101.049C154.965 101.091 154.947 101.137 154.938 101.187C154.929 101.236 154.93 101.286 154.94 101.335C154.95 101.384 154.97 101.43 154.998 101.471C155.026 101.512 155.062 101.547 155.104 101.574C155.145 101.601 155.192 101.62 155.241 101.629C155.289 101.638 155.339 101.637 155.388 101.627C155.436 101.616 155.482 101.596 155.523 101.568L160.307 98.2407C160.389 98.1835 160.446 98.0956 160.464 97.9965C160.482 97.8974 160.46 97.7951 160.403 97.7121C160.346 97.6292 160.259 97.5723 160.161 97.5542C160.063 97.536 159.961 97.5579 159.879 97.6151Z" fill="#E4E4E4"/>
<path d="M199.947 64.9451C199.872 63.0775 199.757 61.8735 199.623 61.8735H150.911C150.778 61.8735 150.663 63.0775 150.588 64.9451C150.537 66.2469 150.505 67.8715 150.505 69.6303V103.841L150.703 103.867L158.711 104.918L167.058 106.021L170.871 106.521L179.027 107.595L185.801 108.487C185.834 108.49 185.862 108.49 185.891 108.494C185.934 108.487 185.978 108.479 186.017 108.468L188.683 107.595L191.759 106.586L199.832 103.939L200.03 103.874V69.6303C200.03 67.8715 199.998 66.2469 199.947 64.9451Z" fill="white"/>
<path d="M200.109 64.1364C200.084 63.6504 200.059 63.2588 200.03 62.9469C200.01 62.6211 199.964 62.2973 199.893 61.9787C199.814 61.6741 199.724 61.6741 199.623 61.6741H150.911C150.811 61.6741 150.721 61.6741 150.642 61.9787C150.572 62.3134 150.526 62.6528 150.505 62.9941C150.48 63.2987 150.454 63.6758 150.429 64.1364C150.35 65.605 150.307 67.556 150.307 69.6303V103.812L150.505 103.841L150.703 103.867V69.6303C150.703 67.8244 150.735 66.294 150.782 65.0865C150.791 64.0762 150.871 63.068 151.023 62.0693H199.516C199.667 63.0667 199.748 64.0738 199.757 65.0828C199.8 66.2904 199.832 67.8207 199.832 69.6303V103.939L200.228 103.809V69.6303C200.228 67.556 200.185 65.605 200.109 64.1364Z" fill="#E4E4E4"/>
<path d="M165.881 72.3029H159.668C159.514 72.3026 159.361 72.3329 159.218 72.3921C159.076 72.4514 158.946 72.5384 158.837 72.6482C158.727 72.758 158.641 72.8884 158.581 73.032C158.522 73.1756 158.492 73.3296 158.492 73.4851V78.9101C158.491 79.0659 158.522 79.2202 158.581 79.3642C158.64 79.5082 158.726 79.639 158.836 79.7492C158.945 79.8593 159.075 79.9467 159.218 80.0062C159.36 80.0657 159.514 80.0962 159.668 80.0959H165.881C166.193 80.0958 166.492 79.9708 166.713 79.7485C166.934 79.5261 167.057 79.2246 167.058 78.9101V73.4851C167.057 73.1712 166.932 72.8705 166.712 72.6489C166.491 72.4272 166.193 72.3028 165.881 72.3029Z" fill="#31572C"/>
<path d="M191.511 74.4026H169.853C169.712 74.4026 169.576 74.4591 169.476 74.5598C169.377 74.6604 169.321 74.7969 169.321 74.9393C169.321 75.0816 169.377 75.2181 169.476 75.3188C169.576 75.4194 169.712 75.476 169.853 75.476H191.511C191.652 75.476 191.787 75.4194 191.887 75.3188C191.987 75.2181 192.043 75.0816 192.043 74.9393C192.043 74.7969 191.987 74.6604 191.887 74.5598C191.787 74.4591 191.652 74.4026 191.511 74.4026Z" fill="#E4E4E4"/>
<path d="M178.077 76.9229H169.853C169.712 76.9229 169.576 76.9794 169.476 77.0801C169.377 77.1807 169.321 77.3172 169.321 77.4596C169.321 77.6019 169.377 77.7384 169.476 77.8391C169.576 77.9397 169.712 77.9963 169.853 77.9963H178.077C178.218 77.9963 178.354 77.9397 178.454 77.8391C178.554 77.7384 178.61 77.6019 178.61 77.4596C178.61 77.3172 178.554 77.1807 178.454 77.0801C178.354 76.9794 178.218 76.9229 178.077 76.9229Z" fill="#E4E4E4"/>
<path d="M165.881 88.3604H159.668C159.356 88.3605 159.057 88.4855 158.836 88.7078C158.616 88.9302 158.492 89.2317 158.492 89.5462V94.9712C158.492 95.2857 158.616 95.5872 158.836 95.8096C159.057 96.0319 159.356 96.1569 159.668 96.157H165.881C166.193 96.1563 166.492 96.0311 166.712 95.8089C166.933 95.5867 167.057 95.2855 167.058 94.9712V89.5462C167.057 89.2319 166.933 88.9307 166.712 88.7085C166.492 88.4863 166.193 88.3611 165.881 88.3604Z" fill="#31572C"/>
<path d="M191.511 90.46H169.853C169.711 90.46 169.575 90.5168 169.475 90.6178C169.375 90.7187 169.319 90.8557 169.319 90.9985C169.319 91.1414 169.375 91.2783 169.475 91.3793C169.575 91.4803 169.711 91.537 169.853 91.537H191.511C191.652 91.537 191.788 91.4803 191.889 91.3793C191.989 91.2783 192.045 91.1414 192.045 90.9985C192.045 90.8557 191.989 90.7187 191.889 90.6178C191.788 90.5168 191.652 90.46 191.511 90.46Z" fill="#E4E4E4"/>
<path d="M178.077 92.9803H169.853C169.711 92.9803 169.575 93.0371 169.475 93.1381C169.375 93.239 169.319 93.376 169.319 93.5188C169.319 93.6617 169.375 93.7986 169.475 93.8996C169.575 94.0006 169.711 94.0573 169.853 94.0573H178.077C178.219 94.0573 178.355 94.0006 178.455 93.8996C178.555 93.7986 178.611 93.6617 178.611 93.5188C178.611 93.376 178.555 93.239 178.455 93.1381C178.355 93.0371 178.219 92.9803 178.077 92.9803Z" fill="#E4E4E4"/>
<path d="M166.889 104.998C166.785 104.822 166.637 104.676 166.461 104.575C166.284 104.474 166.084 104.421 165.881 104.421H159.668C159.481 104.421 159.296 104.466 159.13 104.552C158.963 104.639 158.82 104.764 158.711 104.918L167.058 106.021V105.604C167.058 105.39 166.999 105.18 166.889 104.998Z" fill="#31572C"/>
<path d="M191.511 106.521H170.871L179.027 107.595H188.683L191.759 106.586C191.684 106.542 191.598 106.52 191.511 106.521Z" fill="#E4E4E4"/>
<path d="M221.857 97.0636C221.818 97.0892 221.775 97.1099 221.731 97.1252L219.943 97.7091L205.473 102.456L200.415 104.11L200.228 104.171L199.832 104.302L191.759 106.949L188.683 107.957L186.017 108.831C185.978 108.842 185.934 108.849 185.891 108.856C185.862 108.853 185.834 108.853 185.801 108.849L179.027 107.957L170.871 106.884L167.058 106.383L158.711 105.281L150.703 104.229L150.505 104.204L150.307 104.175L126.415 101.031L126.214 101.002C126.167 100.997 126.122 100.984 126.08 100.962C125.984 100.918 125.904 100.845 125.853 100.752C125.801 100.659 125.78 100.553 125.793 100.447C125.802 100.358 125.836 100.274 125.89 100.204C125.911 100.182 125.929 100.161 125.951 100.142C125.969 100.131 125.991 100.11 126.012 100.099C126.109 100.032 126.227 100.003 126.343 100.019L127.537 100.179L150.307 103.178L150.505 103.203L150.703 103.228L162.499 104.784L166.889 105.361L178.441 106.884L185.819 107.856L188.787 106.884L198.228 103.79L199.832 103.265L200.03 103.199L200.228 103.134L205.167 101.517L219.86 96.6973L221.177 96.2658L221.432 96.1824C221.542 96.1474 221.661 96.1525 221.768 96.197C221.874 96.2414 221.962 96.3223 222.015 96.4254C222.028 96.4498 222.039 96.4753 222.048 96.5015C222.08 96.6034 222.079 96.7131 222.044 96.8143C222.01 96.9155 221.944 97.0029 221.857 97.0636Z" fill="#3F3D56"/>
<path d="M172.176 131.166C171.86 131.166 171.545 131.141 171.233 131.092L135.111 125.406C133.871 125.207 132.719 124.632 131.81 123.759C130.901 122.886 130.276 121.755 130.019 120.515L125.988 100.792L126.236 100.822L186.621 108.18L177.792 127.544C177.296 128.624 176.503 129.539 175.508 130.181C174.513 130.822 173.357 131.164 172.176 131.166Z" fill="#3F3D56"/>
<path d="M109.474 154.017L113.873 153.092L112.429 135.55L105.937 136.914L109.474 154.017Z" fill="#9E616A"/>
<path d="M107.531 152.142L108.846 162.912L108.848 162.934L108.951 162.912L111.971 162.276L111.914 159.189L113.954 161.862L115.907 161.453V161.45L119.852 160.621L120.171 160.556L121.389 160.299L122.233 160.122C122.549 160.055 122.843 159.908 123.087 159.695C123.331 159.481 123.518 159.209 123.628 158.903C123.739 158.598 123.771 158.268 123.721 157.947C123.671 157.625 123.541 157.322 123.342 157.065C123.19 156.87 123.003 156.707 122.79 156.582C122.763 156.568 122.736 156.552 122.709 156.538H122.706C122.666 156.517 122.625 156.497 122.582 156.478L122.509 156.446L121.218 155.898L121.213 155.895L117.807 154.449L115.02 153.266L114.4 150.263L113.656 150.468L109.003 151.739L107.531 152.142Z" fill="#2F2E41"/>
<path d="M79.2424 139.695L82.6587 142.638L95.544 130.756L90.5023 126.413L79.2424 139.695Z" fill="#9E616A"/>
<path d="M74.2842 146.739L76.6732 144.804L75.8259 148.064L82.2545 153.602C82.4421 153.765 82.6601 153.889 82.8958 153.966C83.0735 154.024 83.2586 154.056 83.4454 154.06C83.7402 154.067 84.0327 154.005 84.2997 153.879C84.5667 153.753 84.8008 153.565 84.9836 153.332C85.1663 153.098 85.2927 152.825 85.3526 152.534C85.4126 152.243 85.4045 151.942 85.329 151.655L83.2242 143.658L85.2024 141.327L84.5866 140.859L80.7415 137.926L79.5253 136.999L71.8614 144.649L74.2842 146.739Z" fill="#2F2E41"/>
<path d="M96.5222 69.6483L117.7 68.8273L118.497 47.1686L100.602 47.7477L96.5222 69.6483Z" fill="#9E616A"/>
<path d="M112.356 21.3338C116.811 21.3338 120.421 17.6942 120.421 13.2045C120.421 8.71481 116.811 5.0752 112.356 5.0752C107.902 5.0752 104.292 8.71481 104.292 13.2045C104.292 17.6942 107.902 21.3338 112.356 21.3338Z" fill="#9E616A"/>
<path d="M105.396 6.065L114.682 1.37816C116.581 2.24047 118.216 3.59904 119.418 5.31297C120.62 7.02689 121.345 9.03375 121.518 11.1254L121.75 13.92L117.861 12.9222L117.435 9.34884L116.775 12.6435L114.98 12.1833L114.997 6.63556L113.202 12.1793L106.792 10.695L105.396 6.065Z" fill="#2F2E41"/>
<path d="M118.107 63.9013C118.107 63.9013 125.163 76.2628 118.351 95.0182L108.718 119.777L91.9808 136.85L82.9859 131.491L99.7098 117.198L92.2516 91.7141C90.5342 85.9388 90.0047 79.8707 90.6956 73.8819C91.2331 69.4004 95.2454 65.9035 97.9901 61.6741C107.155 67.6328 117.711 66.6741 118.107 63.9013Z" fill="#2F2E41"/>
<path d="M108.73 113.516L115.01 142.921L105.925 144.647L100.752 119.928L108.73 113.516Z" fill="#2F2E41"/>
<path d="M106.446 24.0521L116.873 24.1922L120.267 28.5358C121.887 28.9211 123.36 29.7781 124.502 31.0002C125.643 32.2223 126.403 33.7557 126.687 35.4097L127.007 37.2746C127.67 41.1326 126.967 45.1025 125.021 48.4911L118.655 54.5479L118.931 55.0535C119.067 55.3035 119.107 55.5954 119.043 55.8733C118.98 56.1511 118.816 56.3955 118.585 56.5594C118.78 57.0561 118.803 57.6049 118.649 58.1163L118.514 58.5645C118.514 58.5645 122.083 59.5209 100.065 56.2264C99.5981 56.1564 99.1669 55.9351 98.8363 55.596C98.5056 55.2569 98.2935 54.8184 98.2321 54.347C97.9928 54.1044 97.8352 53.7922 97.7813 53.4544C97.7275 53.1166 97.7802 52.7704 97.9319 52.4644L97.9768 52.374L97.7507 52.1056C97.4991 51.8069 97.3538 51.432 97.3378 51.0405C97.3218 50.649 97.4361 50.2634 97.6625 49.9449L97.6047 37.2265C97.34 35.3181 97.7566 33.3768 98.7802 31.7493C99.8038 30.1217 101.368 28.9136 103.193 28.3406L106.446 24.0521Z" fill="#E6E6E6"/>
<path d="M136.106 78.424C136.101 77.9241 135.987 77.4315 135.772 76.9808C135.557 76.5302 135.247 76.1324 134.864 75.8156C134.48 75.4988 134.032 75.2706 133.552 75.1471C133.071 75.0236 132.57 75.0078 132.082 75.1008L126.08 64.563L123.262 70.2025L129.394 79.3448C129.603 80.1595 130.102 80.8686 130.795 81.3375C131.488 81.8065 132.328 82.0029 133.156 81.8894C133.983 81.7759 134.74 81.3604 135.284 80.7217C135.828 80.083 136.12 79.2655 136.106 78.424Z" fill="#9E616A"/>
<path d="M103.15 35.433L99.7973 35.9542C99.7973 35.9542 98.7719 38.1637 101.119 42.4419C103.465 46.7201 125.734 74.0939 125.734 74.0939L127.616 66.9997L114.673 42.9995L103.15 35.433Z" fill="#E6E6E6"/>
<path d="M314.572 163H5.42836C5.31497 163 5.20633 162.954 5.12627 162.873C5.0462 162.792 5.00124 162.683 5.00124 162.568C5.00124 162.454 5.0462 162.344 5.12627 162.263C5.20633 162.182 5.31497 162.137 5.42836 162.136H314.572C314.685 162.136 314.794 162.182 314.875 162.263C314.955 162.344 315 162.454 315 162.568C315 162.683 314.955 162.793 314.875 162.874C314.794 162.955 314.685 163 314.572 163Z" fill="#CCCCCC"/>
</g>
<defs>
<clipPath id="clip0_6_84">
<rect width="310" height="163" fill="white" transform="translate(5)"/>
</clipPath>
</defs>
</svg>
