<svg width="320" height="326" viewBox="0 0 320 326" fill="none" xmlns="http://www.w3.org/2000/svg">
<rect y="232" width="320" height="94" rx="8" fill="#F4F6EE"/>
<path d="M60.7714 285H59.2034V273.432H60.7714L66.6914 282.376V273.432H68.2594V285H66.6914L60.7714 276.056V285ZM70.1854 281.08C70.1854 278.664 71.9134 276.968 74.2654 276.968C76.6014 276.968 78.3294 278.664 78.3294 281.08C78.3294 283.496 76.6014 285.192 74.2654 285.192C71.9134 285.192 70.1854 283.496 70.1854 281.08ZM71.7054 281.08C71.7054 282.712 72.7454 283.848 74.2654 283.848C75.7694 283.848 76.8254 282.712 76.8254 281.08C76.8254 279.448 75.7694 278.312 74.2654 278.312C72.7454 278.312 71.7054 279.448 71.7054 281.08ZM85.8733 285H84.3693V277.176H85.7293L85.8893 278.376C86.3853 277.48 87.3773 276.952 88.4813 276.952C90.5453 276.952 91.4893 278.216 91.4893 280.216V285H89.9853V280.552C89.9853 278.968 89.2493 278.328 88.0973 278.328C86.6893 278.328 85.8733 279.336 85.8733 280.856V285ZM93.0604 281.08C93.0604 278.664 94.7884 276.968 97.1404 276.968C99.4764 276.968 101.204 278.664 101.204 281.08C101.204 283.496 99.4764 285.192 97.1404 285.192C94.7884 285.192 93.0604 283.496 93.0604 281.08ZM94.5804 281.08C94.5804 282.712 95.6204 283.848 97.1404 283.848C98.6444 283.848 99.7004 282.712 99.7004 281.08C99.7004 279.448 98.6444 278.312 97.1404 278.312C95.6204 278.312 94.5804 279.448 94.5804 281.08ZM104.999 285H103.495V278.44H101.959V277.176H103.495V274.728H104.999V277.176H106.535V278.44H104.999V285ZM108.621 275.32C108.077 275.32 107.629 274.872 107.629 274.328C107.629 273.768 108.077 273.336 108.621 273.336C109.165 273.336 109.613 273.768 109.613 274.328C109.613 274.872 109.165 275.32 108.621 275.32ZM107.885 285V277.176H109.389V285H107.885ZM116.868 285V278.44H113.396V285H111.892V278.44H110.74V277.176H111.892V275.928C111.892 274.008 112.932 273.224 114.292 273.224C114.58 273.224 114.932 273.24 115.22 273.288V274.584H114.548C113.636 274.584 113.396 275.08 113.396 275.928V277.176H118.372V285H116.868ZM117.62 275.256C117.076 275.256 116.66 274.84 116.66 274.296C116.66 273.752 117.076 273.336 117.62 273.336C118.148 273.336 118.564 273.752 118.564 274.296C118.564 274.84 118.148 275.256 117.62 275.256ZM119.998 281.096C119.998 278.648 121.55 276.952 123.838 276.952C125.806 276.952 127.182 278.072 127.454 279.816H125.95C125.694 278.824 124.894 278.296 123.886 278.296C122.462 278.296 121.486 279.384 121.486 281.08C121.486 282.76 122.398 283.848 123.822 283.848C124.894 283.848 125.694 283.288 125.966 282.36H127.47C127.166 284.056 125.71 285.192 123.822 285.192C121.518 285.192 119.998 283.56 119.998 281.096ZM131.345 285.192C129.665 285.192 128.673 284.248 128.673 282.824C128.673 281.384 129.745 280.488 131.585 280.344L134.049 280.152V279.928C134.049 278.616 133.265 278.152 132.209 278.152C130.945 278.152 130.225 278.712 130.225 279.656H128.913C128.913 278.024 130.257 276.952 132.273 276.952C134.209 276.952 135.521 277.976 135.521 280.088V285H134.241L134.081 283.736C133.681 284.632 132.609 285.192 131.345 285.192ZM131.777 284.024C133.201 284.024 134.065 283.096 134.065 281.624V281.208L132.065 281.368C130.737 281.496 130.193 282.008 130.193 282.776C130.193 283.608 130.801 284.024 131.777 284.024ZM139.687 285H138.183V278.44H136.647V277.176H138.183V274.728H139.687V277.176H141.223V278.44H139.687V285ZM143.308 275.32C142.764 275.32 142.316 274.872 142.316 274.328C142.316 273.768 142.764 273.336 143.308 273.336C143.852 273.336 144.3 273.768 144.3 274.328C144.3 274.872 143.852 275.32 143.308 275.32ZM142.572 285V277.176H144.076V285H142.572ZM145.748 281.08C145.748 278.664 147.476 276.968 149.828 276.968C152.164 276.968 153.892 278.664 153.892 281.08C153.892 283.496 152.164 285.192 149.828 285.192C147.476 285.192 145.748 283.496 145.748 281.08ZM147.268 281.08C147.268 282.712 148.308 283.848 149.828 283.848C151.332 283.848 152.388 282.712 152.388 281.08C152.388 279.448 151.332 278.312 149.828 278.312C148.308 278.312 147.268 279.448 147.268 281.08ZM157.061 285H155.557V277.176H156.917L157.077 278.376C157.573 277.48 158.565 276.952 159.669 276.952C161.733 276.952 162.677 278.216 162.677 280.216V285H161.173V280.552C161.173 278.968 160.437 278.328 159.285 278.328C157.877 278.328 157.061 279.336 157.061 280.856V285ZM164.026 282.728H165.466C165.466 283.528 166.074 284.008 167.066 284.008C168.122 284.008 168.73 283.576 168.73 282.856C168.73 282.328 168.474 282.008 167.658 281.8L166.282 281.48C164.89 281.144 164.234 280.456 164.234 279.304C164.234 277.864 165.45 276.952 167.178 276.952C168.89 276.952 170.01 277.912 170.042 279.4H168.602C168.57 278.616 168.042 278.12 167.13 278.12C166.186 278.12 165.658 278.536 165.658 279.256C165.658 279.784 166.042 280.136 166.81 280.328L168.186 280.664C169.514 280.984 170.17 281.592 170.17 282.76C170.17 284.248 168.89 285.192 167.034 285.192C165.194 285.192 164.026 284.216 164.026 282.728ZM178.421 285H176.917V278.44H175.381V277.176H176.917V274.728H178.421V277.176H179.957V278.44H178.421V285ZM180.717 281.08C180.717 278.664 182.445 276.968 184.797 276.968C187.133 276.968 188.861 278.664 188.861 281.08C188.861 283.496 187.133 285.192 184.797 285.192C182.445 285.192 180.717 283.496 180.717 281.08ZM182.237 281.08C182.237 282.712 183.277 283.848 184.797 283.848C186.301 283.848 187.357 282.712 187.357 281.08C187.357 279.448 186.301 278.312 184.797 278.312C183.277 278.312 182.237 279.448 182.237 281.08ZM194.261 282.728H195.701C195.701 283.528 196.309 284.008 197.301 284.008C198.357 284.008 198.965 283.576 198.965 282.856C198.965 282.328 198.709 282.008 197.893 281.8L196.517 281.48C195.125 281.144 194.469 280.456 194.469 279.304C194.469 277.864 195.685 276.952 197.413 276.952C199.125 276.952 200.245 277.912 200.277 279.4H198.837C198.805 278.616 198.277 278.12 197.365 278.12C196.421 278.12 195.893 278.536 195.893 279.256C195.893 279.784 196.277 280.136 197.045 280.328L198.421 280.664C199.749 280.984 200.405 281.592 200.405 282.76C200.405 284.248 199.125 285.192 197.269 285.192C195.429 285.192 194.261 284.216 194.261 282.728ZM203.576 284.984H202.072V273.224H203.576V278.376C204.072 277.528 205.016 276.952 206.232 276.952C208.232 276.952 209.192 278.216 209.192 280.216V285H207.688V280.552C207.688 278.968 206.936 278.328 205.816 278.328C204.36 278.328 203.576 279.384 203.576 280.728V284.984ZM210.764 281.08C210.764 278.664 212.492 276.968 214.844 276.968C217.18 276.968 218.908 278.664 218.908 281.08C218.908 283.496 217.18 285.192 214.844 285.192C212.492 285.192 210.764 283.496 210.764 281.08ZM212.284 281.08C212.284 282.712 213.324 283.848 214.844 283.848C216.348 283.848 217.404 282.712 217.404 281.08C217.404 279.448 216.348 278.312 214.844 278.312C213.324 278.312 212.284 279.448 212.284 281.08ZM221.893 285L219.333 277.176H220.885L222.181 281.24C222.357 281.816 222.517 282.408 222.661 283.096C222.789 282.408 222.997 281.752 223.173 281.24L224.485 277.176H226.021L227.317 281.24C227.445 281.624 227.701 282.536 227.829 283.096C227.957 282.472 228.101 281.928 228.325 281.24L229.637 277.176H231.205L228.533 285H227.109L225.749 280.808C225.493 280.024 225.333 279.416 225.253 278.984C225.173 279.368 225.029 279.88 224.741 280.824L223.381 285H221.893ZM236.117 288.504V287.272H237.125C237.845 287.272 238.421 287.16 238.789 286.168L239.061 285.416L235.909 277.176H237.493L239.765 283.48L242.085 277.176H243.637L239.941 286.76C239.413 288.104 238.629 288.664 237.429 288.664C236.933 288.664 236.517 288.6 236.117 288.504ZM247.917 285.192C245.613 285.192 244.029 283.528 244.029 281.096C244.029 278.648 245.581 276.952 247.853 276.952C250.077 276.952 251.533 278.488 251.533 280.808V281.368L245.485 281.384C245.597 283.032 246.461 283.944 247.949 283.944C249.117 283.944 249.885 283.464 250.141 282.568H251.549C251.165 284.248 249.853 285.192 247.917 285.192ZM247.853 278.216C246.541 278.216 245.709 279 245.517 280.376H250.029C250.029 279.08 249.181 278.216 247.853 278.216ZM255.343 285H253.839V278.44H252.303V277.176H253.839V274.728H255.343V277.176H256.879V278.44H255.343V285Z" fill="#132A13"/>
<path d="M274.256 150.554C274.187 150.466 274.118 150.379 274.05 150.291C273.982 150.203 273.914 150.115 273.846 150.027C273.779 149.938 273.711 149.85 273.645 149.761C273.578 149.672 273.511 149.583 273.445 149.493C273.334 146.921 273.332 144.37 273.44 141.843C273.545 139.333 273.759 136.854 274.079 134.405C274.396 131.974 274.816 129.581 275.339 127.225C275.858 124.887 276.476 122.594 277.194 120.344C277.276 120.085 277.359 119.826 277.444 119.569C277.529 119.312 277.615 119.056 277.703 118.802C277.791 118.547 277.88 118.293 277.97 118.04C278.061 117.787 278.153 117.535 278.246 117.284C278.937 115.406 279.698 113.574 280.529 111.787C281.354 110.013 282.245 108.288 283.202 106.613C284.151 104.949 285.163 103.336 286.239 101.774C287.306 100.224 288.433 98.7287 289.619 97.2872L289.806 97.061L289.994 96.8362L290.182 96.6124L290.371 96.3899L290.507 96.2302L290.644 96.0711C290.69 96.0182 290.737 95.9656 290.783 95.9132C290.829 95.8608 290.877 95.8089 290.924 95.7576L291.037 95.6962L291.149 95.6353L291.261 95.5745L291.372 95.5139L291.379 95.5117L291.386 95.5083L291.393 95.505L291.4 95.5024L291.445 95.478L291.489 95.4533L291.532 95.4286L291.575 95.4039L291.768 95.3004L291.961 95.1984L292.154 95.0968L292.346 94.9942L292.2 94.9212L291.833 94.7393L291.835 94.7378C291.867 94.7512 291.898 94.7654 291.929 94.7803C291.96 94.7952 291.991 94.8096 292.023 94.8234C292.054 94.8381 292.085 94.8527 292.116 94.8672C292.146 94.8818 292.177 94.8967 292.209 94.912L292.244 94.927L292.28 94.9423L292.316 94.9578C292.329 94.9626 292.34 94.9683 292.352 94.975C292.362 94.9804 292.372 94.9849 292.383 94.9884L292.415 95.0019L292.446 95.0153L292.478 95.0288C293.815 95.6392 295.156 96.2589 296.479 96.9088C297.802 97.5587 299.105 98.236 300.372 98.965C301.636 99.6883 302.862 100.477 304.042 101.329C305.22 102.176 306.335 103.107 307.378 104.115C308.478 105.186 309.463 106.369 310.314 107.646C311.157 108.899 311.85 110.247 312.379 111.661C312.888 113.007 313.191 114.421 313.279 115.857C313.363 117.238 313.168 118.621 312.705 119.926C312.643 120.096 312.575 120.263 312.503 120.429C312.43 120.594 312.353 120.757 312.271 120.917C312.189 121.077 312.103 121.235 312.011 121.39C311.919 121.544 311.823 121.696 311.722 121.845C311.68 121.907 311.637 121.969 311.593 122.03C311.549 122.091 311.505 122.151 311.46 122.211C311.415 122.271 311.369 122.331 311.323 122.39C311.277 122.45 311.23 122.509 311.183 122.567C310.308 123.664 309.195 124.549 307.928 125.158C306.654 125.764 305.269 126.106 303.858 126.163C302.376 126.225 300.895 126.011 299.491 125.532C297.985 125.02 296.586 124.238 295.362 123.224C294.94 122.876 294.539 122.502 294.162 122.105C293.789 121.711 293.442 121.294 293.121 120.857C292.802 120.424 292.512 119.971 292.251 119.501C291.992 119.035 291.763 118.553 291.567 118.057C291.475 119.597 291.714 121.138 292.27 122.577C292.857 124.091 293.654 125.514 294.639 126.806C295.679 128.182 296.832 129.468 298.088 130.652C299.352 131.86 300.695 132.992 302.021 134.034C303.347 135.077 304.721 136.143 306.05 137.255C307.378 138.348 308.643 139.516 309.837 140.753C310.995 141.948 312.02 143.265 312.892 144.68C313.75 146.078 314.37 147.606 314.727 149.205C315.109 150.946 315.09 152.751 314.67 154.484C314.466 155.327 314.176 156.147 313.803 156.93C313.428 157.721 312.978 158.473 312.459 159.179L312.411 159.243L312.362 159.307L312.313 159.372L312.262 159.435C310.997 161.082 309.409 162.456 307.594 163.473C306.681 163.984 305.718 164.403 304.721 164.723C303.7 165.05 302.648 165.276 301.582 165.396C299.554 165.582 297.51 165.465 295.516 165.05C293.464 164.622 291.468 163.956 289.57 163.068C287.608 162.153 285.732 161.064 283.966 159.814C282.184 158.558 280.496 157.173 278.918 155.671C278.498 155.272 278.086 154.867 277.682 154.454C277.277 154.041 276.881 153.621 276.492 153.194C276.103 152.767 275.722 152.334 275.35 151.894C274.977 151.454 274.613 151.007 274.256 150.554Z" fill="#F2F2F2"/>
<path d="M306.86 120.743C305.606 120.095 304.401 119.359 303.254 118.539C300.961 116.902 298.914 114.95 297.171 112.74C296.307 111.644 295.525 110.486 294.83 109.276C294.25 108.254 293.735 107.197 293.289 106.111C292.853 105.051 292.486 103.964 292.192 102.857C291.904 101.775 291.689 100.676 291.549 99.5658C291.412 98.4784 291.352 97.3828 291.369 96.2871C291.371 96.2253 291.373 96.1639 291.374 96.1029C291.375 96.0419 291.376 95.9805 291.378 95.9187C291.38 95.8569 291.382 95.796 291.385 95.7358L291.394 95.5536C291.342 95.595 291.289 95.6367 291.237 95.6789L291.08 95.806L290.924 95.9341L290.768 96.0624L290.668 96.1449L290.568 96.2279L290.468 96.3116L290.37 96.3953L290.506 96.236L290.645 96.0714C290.691 96.0186 290.738 95.966 290.784 95.9136C290.83 95.8612 290.877 95.8093 290.925 95.758L291.038 95.6966L291.15 95.6357L291.259 95.575L291.37 95.5145L291.377 95.5122L291.384 95.5089L291.391 95.5055L291.398 95.503L291.443 95.4785L291.488 95.454L291.531 95.4293L291.574 95.4045L291.767 95.301L291.96 95.1991L292.153 95.0975L292.346 94.9955L292.196 94.9208L291.829 94.7386L291.831 94.7371C291.863 94.7505 291.894 94.7647 291.925 94.7796C291.956 94.7945 291.987 94.8089 292.018 94.8228C292.05 94.8374 292.081 94.852 292.112 94.8665C292.142 94.8811 292.173 94.896 292.204 94.9113L292.24 94.9263L292.276 94.9416L292.312 94.9571C292.324 94.9619 292.336 94.9676 292.347 94.9742L292.344 95.0323L292.339 95.0867L292.336 95.1408L292.333 95.1957C292.198 97.0414 292.295 98.8967 292.621 100.719C292.956 102.594 293.507 104.425 294.262 106.175C295.042 107.986 296.017 109.708 297.17 111.31C298.361 112.967 299.726 114.493 301.242 115.862C302.768 117.221 304.432 118.418 306.207 119.432C307.084 119.932 307.987 120.386 308.912 120.792C309.83 121.193 310.768 121.544 311.724 121.844C311.682 121.906 311.639 121.968 311.595 122.029C311.551 122.09 311.507 122.15 311.462 122.21C311.417 122.27 311.371 122.33 311.325 122.389C311.279 122.449 311.232 122.508 311.185 122.566C310.816 122.444 310.45 122.315 310.085 122.178C309.72 122.041 309.358 121.896 308.997 121.744C308.636 121.592 308.277 121.432 307.921 121.265C307.565 121.098 307.211 120.924 306.86 120.743Z" fill="white"/>
<path d="M282.051 134.538C281.641 133.927 281.253 133.305 280.889 132.672C280.525 132.04 280.184 131.398 279.868 130.747C279.551 130.096 279.259 129.437 278.991 128.77C278.722 128.103 278.479 127.43 278.262 126.751C278.151 126.391 278.048 126.029 277.954 125.667C277.86 125.304 277.775 124.941 277.699 124.577C277.623 124.213 277.555 123.849 277.496 123.483C277.437 123.118 277.387 122.753 277.346 122.388C277.326 122.218 277.307 122.048 277.291 121.877C277.274 121.706 277.26 121.536 277.247 121.365C277.234 121.195 277.223 121.025 277.214 120.854C277.205 120.684 277.198 120.514 277.193 120.345C277.275 120.085 277.358 119.827 277.443 119.57C277.527 119.312 277.614 119.056 277.701 118.801C277.789 118.546 277.878 118.292 277.968 118.039C278.059 117.786 278.151 117.534 278.244 117.283C278.224 117.493 278.207 117.704 278.192 117.916C278.178 118.127 278.166 118.339 278.158 118.551C278.149 118.764 278.143 118.977 278.141 119.191C278.138 119.405 278.139 119.619 278.142 119.833C278.142 119.95 278.143 120.067 278.145 120.184C278.148 120.301 278.151 120.417 278.155 120.534C278.159 120.651 278.164 120.768 278.17 120.885C278.176 121.002 278.183 121.119 278.191 121.236C278.281 122.548 278.488 123.849 278.808 125.124C279.133 126.415 279.556 127.679 280.075 128.905C280.603 130.155 281.212 131.37 281.899 132.541C282.597 133.733 283.36 134.885 284.185 135.994C285.073 137.19 286.012 138.355 287.001 139.488C287.991 140.622 289.018 141.724 290.082 142.795C291.148 143.866 292.244 144.903 293.372 145.907C294.5 146.911 295.647 147.88 296.813 148.815C298.006 149.775 299.224 150.698 300.466 151.585C301.708 152.471 302.97 153.319 304.252 154.128C305.534 154.937 306.836 155.706 308.156 156.436C309.476 157.166 310.812 157.854 312.162 158.501C312.224 158.531 312.28 158.572 312.327 158.623C312.373 158.672 312.411 158.728 312.438 158.79C312.464 158.851 312.48 158.916 312.484 158.983C312.488 159.049 312.48 159.116 312.458 159.18C312.451 159.207 312.442 159.234 312.429 159.259C312.417 159.284 312.403 159.308 312.386 159.33C312.37 159.351 312.351 159.371 312.33 159.389C312.309 159.407 312.287 159.422 312.263 159.435C312.237 159.446 312.211 159.454 312.183 159.459C312.156 159.464 312.128 159.466 312.1 159.464C312.072 159.462 312.044 159.457 312.016 159.448C311.988 159.44 311.961 159.428 311.936 159.414C311.769 159.334 311.602 159.254 311.435 159.174C311.269 159.093 311.102 159.012 310.936 158.931C310.77 158.85 310.604 158.767 310.438 158.685C310.273 158.602 310.107 158.518 309.942 158.432C308.566 157.728 307.208 156.982 305.868 156.193C304.529 155.404 303.209 154.574 301.91 153.703C300.611 152.833 299.336 151.923 298.084 150.974C296.832 150.025 295.607 149.038 294.408 148.013C293.249 147.027 292.106 146.007 290.99 144.953C289.874 143.899 288.786 142.811 287.738 141.688C286.691 140.565 285.685 139.408 284.732 138.216C283.779 137.024 282.882 135.798 282.051 134.538Z" fill="white"/>
<path d="M307.978 36.5623L306.992 36.6898L313.602 11.9753C314.089 10.325 314.168 8.5819 313.833 6.8945C313.542 5.51574 312.823 4.26323 311.777 3.31469C310.682 2.36628 309.34 1.74572 307.906 1.52462C306.159 1.25514 304.376 1.33468 302.66 1.75859L257.737 11.9504C256.17 12.3293 254.669 12.9444 253.287 13.7743C251.784 14.6645 250.387 15.7202 249.121 16.9214C247.818 18.1463 246.649 19.5046 245.632 20.9739C244.639 22.3961 243.83 23.937 243.223 25.5605L196.22 154.351C195.439 156.469 194.931 158.677 194.71 160.922C194.504 162.916 194.601 164.929 194.998 166.893C195.329 168.6 196.02 170.218 197.026 171.638C197.949 172.93 199.249 173.907 200.749 174.436L248.213 190.714C250.321 191.429 252.585 191.563 254.764 191.102C257.093 190.597 259.283 189.592 261.183 188.157C263.316 186.56 265.15 184.602 266.602 182.372C268.21 179.921 269.411 177.229 270.16 174.398L301.981 55.4218L302.979 55.3421L307.978 36.5623Z" fill="#2F2E41"/>
<path d="M304.544 35.1939L303.558 35.3215L310.168 10.607C310.655 8.95674 310.735 7.2136 310.399 5.5262C310.108 4.14744 309.389 2.89493 308.344 1.94639C307.248 0.99798 305.906 0.377423 304.472 0.156317C302.725 -0.113159 300.942 -0.0336246 299.227 0.390293L254.304 10.5821C252.736 10.961 251.235 11.5761 249.853 12.406C248.351 13.2962 246.953 14.3519 245.687 15.5531C244.384 16.778 243.215 18.1363 242.198 19.6056C241.206 21.0278 240.396 22.5687 239.789 24.1922L192.787 152.983C192.005 155.1 191.498 157.309 191.276 159.554C191.07 161.547 191.167 163.56 191.564 165.525C191.895 167.232 192.587 168.849 193.593 170.27C194.515 171.561 195.815 172.538 197.315 173.067L244.779 189.345C246.888 190.061 249.151 190.195 251.33 189.734C253.659 189.228 255.85 188.223 257.749 186.789C259.882 185.192 261.717 183.234 263.168 181.003C264.776 178.553 265.977 175.861 266.726 173.03L298.547 54.0535L299.546 53.9738L304.544 35.1939Z" fill="#3F3D56"/>
<path d="M298.829 3.61503L292.226 5.05619C292.298 5.62535 292.241 6.20339 292.059 6.74775C291.854 7.38447 291.555 7.98769 291.174 8.53816C290.315 9.78785 289.169 10.8151 287.831 11.5344C287.671 11.6192 287.512 11.6976 287.352 11.7694C287.193 11.8412 287.034 11.9065 286.875 11.9651C286.717 12.0237 286.559 12.0754 286.403 12.1204C286.247 12.1653 286.092 12.2031 285.939 12.2339L260.121 17.442C259.642 17.5529 259.143 17.5473 258.667 17.4256C258.283 17.3231 257.945 17.096 257.706 16.7804C257.464 16.4416 257.328 16.0396 257.313 15.6242C257.294 15.0944 257.378 14.5659 257.561 14.0681C257.607 13.9338 257.659 13.7986 257.718 13.6624C257.776 13.5263 257.84 13.3901 257.909 13.254C257.978 13.1172 258.053 12.981 258.134 12.8456C258.215 12.7101 258.301 12.5748 258.391 12.4395L253.503 13.5064C252.325 13.7815 251.198 14.2361 250.16 14.8542C249.025 15.5199 247.971 16.3117 247.016 17.2145C246.031 18.1369 245.148 19.1612 244.382 20.2699C243.635 21.3414 243.027 22.5031 242.574 23.7273L195.66 153.637C195.076 155.233 194.702 156.898 194.545 158.59C194.4 160.083 194.486 161.59 194.798 163.057C195.058 164.326 195.59 165.523 196.356 166.569C197.059 167.517 198.038 168.226 199.16 168.599L246.973 184.074C248.551 184.578 250.235 184.653 251.851 184.292C253.573 183.899 255.19 183.143 256.593 182.075C258.163 180.891 259.515 179.444 260.588 177.8C261.775 175.993 262.666 174.009 263.227 171.923L306.913 11.3257C307.28 10.0998 307.348 8.80447 307.111 7.54717C306.906 6.51683 306.383 5.57603 305.615 4.85608C304.81 4.13628 303.817 3.65923 302.75 3.48059C301.448 3.26265 300.114 3.30838 298.829 3.61503Z" fill="white"/>
<path d="M273.188 65.1419H178.075V33.0329H273.188V65.1419Z" fill="white"/>
<path d="M245.381 76.4745H152.164V121.49H245.381V76.4745Z" fill="white"/>
<path d="M167.307 98.091C171.031 98.091 174.05 95.0836 174.05 91.3738C174.05 87.664 171.031 84.6566 167.307 84.6566C163.584 84.6566 160.565 87.664 160.565 91.3738C160.565 95.0836 163.584 98.091 167.307 98.091Z" fill="#31572C"/>
<path d="M182.88 86.8957C182.582 86.8957 182.296 87.0136 182.085 87.2236C181.875 87.4335 181.756 87.7183 181.756 88.0152C181.756 88.3121 181.875 88.5969 182.085 88.8068C182.296 89.0168 182.582 89.1347 182.88 89.1347H235.859C236.156 89.134 236.441 89.0157 236.651 88.8058C236.862 88.596 236.98 88.3116 236.98 88.0152C236.98 87.7188 236.862 87.4344 236.651 87.2245C236.441 87.0147 236.156 86.8964 235.859 86.8957H182.88Z" fill="#E6E6E6"/>
<path d="M182.88 93.6129C182.732 93.6124 182.586 93.6409 182.449 93.6968C182.313 93.7527 182.188 93.8348 182.084 93.9386C181.979 94.0423 181.896 94.1656 181.839 94.3014C181.782 94.4372 181.753 94.5829 181.752 94.73C181.752 94.8772 181.781 95.0229 181.837 95.159C181.893 95.295 181.976 95.4187 182.08 95.5229C182.185 95.6271 182.309 95.7098 182.445 95.7662C182.581 95.8227 182.728 95.8518 182.875 95.8519H205.677C205.824 95.8519 205.971 95.823 206.107 95.7667C206.243 95.7105 206.367 95.628 206.472 95.524C206.576 95.4201 206.659 95.2967 206.715 95.1608C206.772 95.025 206.801 94.8794 206.801 94.7324C206.801 94.5854 206.772 94.4398 206.715 94.304C206.659 94.1681 206.576 94.0447 206.472 93.9408C206.367 93.8368 206.243 93.7543 206.107 93.6981C205.971 93.6418 205.824 93.6129 205.677 93.6129H182.88Z" fill="#E6E6E6"/>
<path d="M162.136 104.352C161.281 104.352 160.585 104.854 160.585 105.471C160.585 106.089 161.281 106.591 162.136 106.591H235.23C236.085 106.591 236.78 106.089 236.78 105.471C236.78 104.854 236.085 104.352 235.23 104.352H162.136Z" fill="#E6E6E6"/>
<path d="M162.136 111.069C161.281 111.069 160.585 111.571 160.585 112.189C160.585 112.806 161.281 113.308 162.136 113.308H218.405C219.259 113.308 219.955 112.806 219.955 112.189C219.955 111.571 219.259 111.069 218.405 111.069H162.136Z" fill="#E6E6E6"/>
<path d="M246.329 122.434H151.216V75.5301H246.329V122.434ZM153.112 120.546H244.433V77.4189H153.112V120.546Z" fill="#E6E6E6"/>
<path d="M194.167 55.5938C197.891 55.5938 200.909 52.5864 200.909 48.8766C200.909 45.1667 197.891 42.1593 194.167 42.1593C190.443 42.1593 187.424 45.1667 187.424 48.8766C187.424 52.5864 190.443 55.5938 194.167 55.5938Z" fill="#31572C"/>
<path d="M209.739 44.3984C209.441 44.3984 209.155 44.5164 208.944 44.7263C208.734 44.9363 208.615 45.221 208.615 45.5179C208.615 45.8149 208.734 46.0996 208.944 46.3096C209.155 46.5195 209.441 46.6375 209.739 46.6375H262.718C263.015 46.6368 263.301 46.5185 263.511 46.3086C263.721 46.0987 263.839 45.8144 263.839 45.5179C263.839 45.2215 263.721 44.9372 263.511 44.7273C263.301 44.5174 263.015 44.3991 262.718 44.3984H209.739Z" fill="#E6E6E6"/>
<path d="M209.739 51.1156C209.591 51.1151 209.445 51.1436 209.308 51.1995C209.172 51.2554 209.048 51.3376 208.943 51.4413C208.838 51.5451 208.755 51.6684 208.698 51.8042C208.641 51.94 208.612 52.0856 208.612 52.2328C208.611 52.3799 208.64 52.5257 208.696 52.6617C208.753 52.7978 208.835 52.9214 208.94 53.0256C209.044 53.1298 209.168 53.2125 209.304 53.269C209.44 53.3254 209.587 53.3546 209.734 53.3547H251.422C251.72 53.3547 252.005 53.2367 252.216 53.0268C252.427 52.8168 252.545 52.5321 252.545 52.2351C252.545 51.9382 252.427 51.6535 252.216 51.4435C252.005 51.2336 251.72 51.1156 251.422 51.1156H209.739Z" fill="#E6E6E6"/>
<path d="M273.188 65.1419H178.075V33.0329H273.188V65.1419ZM179.971 63.2532H271.292V34.9217H179.971V63.2532Z" fill="#E6E6E6"/>
<path d="M86.3015 187.453H91.096L93.377 169.029L86.3004 169.029L86.3015 187.453Z" fill="#FFB6B6"/>
<path d="M100.343 191.887L85.2742 191.888L85.2739 186.088L95.2309 186.088C96.5866 186.088 97.8869 186.624 98.8456 187.579C99.8042 188.534 100.343 189.829 100.343 191.18L100.343 191.887Z" fill="#2F2E41"/>
<path d="M38.358 181.262L42.5595 183.564L53.4684 168.514L47.2675 165.118L38.358 181.262Z" fill="#FFB6B6"/>
<path d="M48.5175 191.888L35.3127 184.656L38.1176 179.573L46.8429 184.352C48.0309 185.003 48.9108 186.097 49.289 187.394C49.6673 188.691 49.5128 190.084 48.8597 191.268L48.5175 191.888Z" fill="#2F2E41"/>
<path d="M86.0774 177.227C85.6502 177.226 85.2377 177.071 84.9169 176.79C84.596 176.509 84.3888 176.121 84.3339 175.699L78.3377 129.668C78.3112 129.464 78.2208 129.274 78.0794 129.125C77.938 128.976 77.7528 128.875 77.5503 128.836C77.3479 128.798 77.1384 128.824 76.9519 128.912C76.7654 128.999 76.6114 129.143 76.5119 129.323L51.5222 174.49C51.316 174.859 50.9838 175.142 50.586 175.287C50.1882 175.432 49.7512 175.431 49.3545 175.282L43.9075 173.215C43.6884 173.132 43.4882 173.006 43.3186 172.845C43.1491 172.683 43.0136 172.49 42.9201 172.276C42.8266 172.062 42.777 171.831 42.7743 171.597C42.7715 171.364 42.8156 171.132 42.904 170.916L60.215 128.551C60.2588 128.444 60.2886 128.331 60.3034 128.216C62.6481 110.137 68.6137 100.943 70.3862 98.5559C70.5157 98.3804 70.6009 98.1765 70.6346 97.9614C70.6684 97.7462 70.6497 97.5261 70.5802 97.3197L70.3365 96.5915C70.2392 96.3025 70.2192 95.9931 70.2786 95.6941C70.338 95.395 70.4747 95.1165 70.6752 94.8862C77.0621 87.639 88.1942 91.5936 88.3059 91.6343L88.3617 91.6549L88.3966 91.7024C100.879 108.756 96.2638 164.147 95.212 175.078C95.1727 175.488 94.9889 175.872 94.693 176.161C94.3971 176.45 94.0082 176.625 93.5952 176.656L86.2141 177.222C86.1682 177.225 86.1227 177.227 86.0774 177.227Z" fill="#2F2E41"/>
<path d="M82.6931 49.323C88.5861 49.323 93.3634 44.5638 93.3634 38.6931C93.3634 32.8223 88.5861 28.0631 82.6931 28.0631C76.8001 28.0631 72.0228 32.8223 72.0228 38.6931C72.0228 44.5638 76.8001 49.323 82.6931 49.323Z" fill="#FFB8B8"/>
<path d="M66.1966 106.333L97.5946 109.18C94.8572 99.6979 92.3492 90.2488 94.3935 80.8339C96.9895 72.4286 97.2308 67.7723 90.3827 63.8138L85.7589 53.5382L77.3906 53.235L73.3102 52.1208C70.0135 57.4012 68.665 63.6602 69.4962 69.8232C71.2699 83.2251 70.7909 95.6613 66.1966 106.333Z" fill="#31572C"/>
<path d="M70.9625 58.8988L67.8043 44.4582C67.1453 41.0399 67.3107 37.5146 68.2867 34.1724C68.393 33.8299 68.5211 33.4945 68.6702 33.1682C69.5444 31.2702 70.9189 29.6439 72.6474 28.4624C74.3759 27.2809 76.3936 26.5884 78.4857 26.4587C85.6633 25.9648 86.717 26.7186 86.9765 27.0904C91.0324 26.9272 94.1773 28.4883 95.6123 31.377C95.7528 31.6637 95.8286 31.9777 95.8341 32.2967C95.8397 32.6158 95.775 32.9321 95.6446 33.2236C95.5141 33.515 95.3211 33.7744 95.0792 33.9835C94.8372 34.1926 94.5522 34.3463 94.2442 34.4338C92.2397 35.0095 89.4223 35.6491 87.3093 35.461C83.0739 40.522 84.8054 49.7946 89.1024 55.3194L89.2712 55.5365L85.0139 56.4057L80.0664 49.542C79.9685 49.4062 79.8268 49.308 79.6649 49.2638C79.503 49.2196 79.3308 49.2321 79.1771 49.2992C79.0234 49.3663 78.8974 49.4839 78.8203 49.6324C78.7432 49.7809 78.7196 49.9513 78.7534 50.1151L80.2555 57.3845L70.9625 58.8988Z" fill="#2F2E41"/>
<path d="M301.733 192H4V191.254H301.868L301.733 192Z" fill="#CACACA"/>
<path d="M131.952 97.783L54.2943 152.491L35.6848 126.275L113.342 71.5667L131.952 97.783Z" fill="white"/>
<path d="M61.8988 135.44C64.9393 133.298 65.6611 129.106 63.511 126.077C61.3609 123.048 57.1531 122.329 54.1126 124.471C51.0721 126.613 50.3503 130.805 52.5004 133.834C54.6505 136.863 58.8583 137.582 61.8988 135.44Z" fill="#31572C"/>
<path d="M68.1249 117.342C67.8815 117.513 67.7165 117.774 67.6661 118.067C67.6157 118.359 67.6841 118.66 67.8562 118.902C68.0283 119.145 68.29 119.309 68.5837 119.359C68.8775 119.41 69.1792 119.341 69.4226 119.17L112.678 88.697C112.921 88.5252 113.085 88.2646 113.135 87.9724C113.185 87.6802 113.117 87.3802 112.945 87.1381C112.773 86.8961 112.512 86.7318 112.219 86.6813C111.925 86.6309 111.624 86.6983 111.381 86.8688L68.1249 117.342Z" fill="#E6E6E6"/>
<path d="M72.018 122.826C71.7746 122.997 71.6094 123.258 71.5586 123.55C71.5078 123.842 71.5755 124.143 71.747 124.386C71.9184 124.628 72.1796 124.793 72.473 124.844C72.7664 124.895 73.0681 124.828 73.3118 124.657L73.3157 124.654L107.348 100.679C107.592 100.508 107.757 100.247 107.807 99.9542C107.858 99.6615 107.789 99.3609 107.617 99.1185C107.532 98.9985 107.424 98.8963 107.299 98.8179C107.174 98.7395 107.035 98.6863 106.89 98.6615C106.596 98.6113 106.294 98.6794 106.051 98.8508L72.018 122.826Z" fill="#E6E6E6"/>
<path d="M131.952 97.783L54.2943 152.491L35.6848 126.275L113.342 71.5667L131.952 97.783ZM54.7476 149.859L129.309 97.3314L112.889 74.1994L38.3275 126.727L54.7476 149.859Z" fill="#E6E6E6"/>
<path d="M309.275 88.0699C309.55 88.0593 309.825 88.1059 310.081 88.2067C310.325 88.3038 310.545 88.45 310.729 88.636C310.914 88.8232 311.058 89.0462 311.153 89.2911C311.253 89.5508 311.298 89.8281 311.287 90.1059C311.276 90.391 311.209 90.6712 311.091 90.931C310.975 91.1858 310.814 91.4176 310.615 91.6152C310.418 91.8117 310.187 91.9707 309.932 92.0845C309.674 92.2 309.395 92.2635 309.112 92.2713C308.836 92.2795 308.562 92.2305 308.306 92.1272C308.064 92.0286 307.845 91.8813 307.662 91.6945C307.479 91.5068 307.337 91.2837 307.244 91.0391C307.145 90.7804 307.101 90.5044 307.113 90.228C307.124 89.9444 307.191 89.6656 307.308 89.4071C307.423 89.1548 307.583 88.9251 307.78 88.7291C307.975 88.5329 308.205 88.3738 308.458 88.2594C308.715 88.1434 308.993 88.079 309.275 88.0699Z" fill="#F2F2F2"/>
<path d="M90.9441 114.738L85.8942 87.2364L86.2499 70.2285L74.8682 69.8741L77.0023 89.008L84.3615 115.54C83.7506 116.28 83.3763 117.185 83.2869 118.139C83.1974 119.092 83.3969 120.051 83.8595 120.89C84.3222 121.73 85.0267 122.412 85.8824 122.849C86.738 123.286 87.7054 123.457 88.6597 123.341C89.614 123.225 90.5114 122.826 91.2362 122.197C91.9609 121.567 92.4797 120.736 92.7256 119.81C92.9715 118.884 92.9332 117.906 92.6156 117.002C92.2981 116.098 91.7159 115.31 90.9441 114.738Z" fill="#FFB8B8"/>
<path d="M74.1569 71.6458C78.2805 70.0811 82.8376 70.0811 86.9612 71.6458L86.2499 57.4726C86.2499 56.7281 86.1027 55.9909 85.8167 55.3031C85.5307 54.6152 85.1115 53.9902 84.5831 53.4638C84.0546 52.9374 83.4273 52.5198 82.7368 52.2349C82.0464 51.9499 81.3064 51.8033 80.559 51.8033C79.8117 51.8033 79.0717 51.9499 78.3813 52.2349C77.6908 52.5198 77.0635 52.9374 76.535 53.4638C76.0066 53.9902 75.5874 54.6152 75.3014 55.3031C75.0154 55.9909 74.8682 56.7281 74.8682 57.4726L74.1569 71.6458Z" fill="#31572C"/>
</svg>
