<svg width="217" height="212" viewBox="0 0 217 212" fill="none" xmlns="http://www.w3.org/2000/svg">
<g clip-path="url(#clip0_786_1218)">
<path d="M137.761 47.6375H79.2888C77.9564 47.6391 76.6789 48.1691 75.7367 49.1113C74.7945 50.0535 74.2645 51.331 74.2629 52.6634V182.618L73.5927 182.823L59.2486 187.215C58.5688 187.423 57.8345 187.352 57.207 187.018C56.5794 186.685 56.1099 186.116 55.9014 185.436L13.2342 46.066C13.0265 45.3862 13.0973 44.6517 13.4309 44.0241C13.7645 43.3964 14.3337 42.9269 15.0134 42.7187L37.1177 35.9504L101.199 16.3357L123.303 9.5674C123.639 9.46388 123.993 9.4277 124.343 9.46094C124.694 9.49419 125.034 9.5962 125.345 9.76115C125.656 9.9261 125.931 10.1507 126.155 10.4222C126.379 10.6937 126.547 11.0067 126.65 11.3432L137.557 46.9673L137.761 47.6375Z" fill="#F2F2F2"/>
<path d="M150.52 46.9675L137.375 4.03231C137.157 3.31693 136.799 2.65166 136.323 2.0745C135.847 1.49734 135.262 1.01962 134.602 0.668624C133.941 0.31763 133.218 0.100241 132.473 0.0288899C131.728 -0.0424617 130.977 0.0336216 130.262 0.252784L99.1846 9.76527L35.1069 29.3833L4.02964 38.8991C2.58596 39.3424 1.37714 40.3405 0.668525 41.6741C-0.0400896 43.0077 -0.190609 44.5681 0.250012 46.0126L45.1755 192.747C45.5334 193.913 46.2557 194.934 47.2362 195.66C48.2168 196.385 49.404 196.777 50.6238 196.778C51.1883 196.779 51.7496 196.694 52.2889 196.527L73.5924 190.007L74.2625 189.799V189.099L73.5924 189.303L52.0913 195.887C50.817 196.275 49.4406 196.143 48.2641 195.518C47.0876 194.893 46.207 193.826 45.8155 192.553L0.893473 45.8149C0.699501 45.1839 0.631896 44.5209 0.694528 43.8638C0.757161 43.2067 0.948794 42.5684 1.25847 41.9854C1.56814 41.4025 1.98977 40.8863 2.4992 40.4665C3.00863 40.0468 3.59586 39.7316 4.22727 39.5391L35.3045 30.0233L99.3824 10.4086L130.46 0.892764C130.939 0.746609 131.436 0.672087 131.937 0.67162C133.012 0.674033 134.057 1.02048 134.921 1.6602C135.784 2.29993 136.42 3.19933 136.735 4.22666L149.82 46.9675L150.027 47.6376H150.724L150.52 46.9675Z" fill="#3F3D56"/>
<path d="M41.1058 42.8281C40.46 42.8276 39.8313 42.6202 39.312 42.2363C38.7927 41.8524 38.4102 41.3121 38.2204 40.6948L33.9046 26.5981C33.7887 26.2194 33.7484 25.8216 33.7862 25.4274C33.824 25.0332 33.9391 24.6503 34.1249 24.3005C34.3107 23.9508 34.5635 23.6411 34.869 23.3891C35.1745 23.1371 35.5267 22.9477 35.9054 22.8319L94.8563 4.78402C95.6211 4.55066 96.4472 4.63025 97.1533 5.00532C97.8594 5.38039 98.3879 6.02029 98.6227 6.78459L102.938 20.8815C103.172 21.6463 103.092 22.4723 102.717 23.1784C102.342 23.8845 101.702 24.4129 100.938 24.6479L41.9868 42.6957C41.7013 42.7833 41.4044 42.828 41.1058 42.8281Z" fill="#31572C"/>
<path d="M63.713 15.0627C67.414 15.0627 70.4143 12.0625 70.4143 8.36145C70.4143 4.66043 67.414 1.66016 63.713 1.66016C60.012 1.66016 57.0117 4.66043 57.0117 8.36145C57.0117 12.0625 60.012 15.0627 63.713 15.0627Z" fill="#31572C"/>
<path d="M63.7142 12.6049C66.0578 12.6049 67.9576 10.705 67.9576 8.36139C67.9576 6.01778 66.0578 4.11792 63.7142 4.11792C61.3706 4.11792 59.4707 6.01778 59.4707 8.36139C59.4707 10.705 61.3706 12.6049 63.7142 12.6049Z" fill="white"/>
<path d="M201.922 195.066H88.6703C87.9152 195.065 87.1913 194.765 86.6574 194.231C86.1235 193.697 85.8231 192.973 85.8223 192.218V56.5165C85.8231 55.7614 86.1234 55.0375 86.6574 54.5036C87.1913 53.9696 87.9152 53.6693 88.6703 53.6685H201.922C202.677 53.6693 203.401 53.9697 203.935 54.5036C204.469 55.0375 204.769 55.7614 204.77 56.5165V192.218C204.769 192.973 204.469 193.697 203.935 194.231C203.401 194.764 202.677 195.065 201.922 195.066Z" fill="#E6E6E6"/>
<path d="M149.819 46.9673H79.2879C77.7779 46.9694 76.3303 47.5702 75.2625 48.638C74.1947 49.7058 73.5939 51.1533 73.5918 52.6634V189.303L74.2619 189.098V52.6634C74.2635 51.3309 74.7936 50.0535 75.7358 49.1113C76.678 48.1691 77.9554 47.639 79.2879 47.6374H150.027L149.819 46.9673ZM211.303 46.9673H79.2879C77.7779 46.9694 76.3303 47.5702 75.2625 48.638C74.1947 49.7058 73.5939 51.1533 73.5918 52.6634V206.123C73.5939 207.633 74.1947 209.081 75.2625 210.148C76.3303 211.216 77.7779 211.817 79.2879 211.819H211.303C212.813 211.817 214.261 211.216 215.329 210.148C216.397 209.081 216.997 207.633 216.999 206.123V52.6634C216.997 51.1533 216.397 49.7058 215.329 48.638C214.261 47.5702 212.813 46.9694 211.303 46.9673ZM216.329 206.123C216.328 207.455 215.798 208.733 214.855 209.675C213.913 210.617 212.636 211.147 211.303 211.149H79.2879C77.9554 211.147 76.678 210.617 75.7358 209.675C74.7936 208.733 74.2635 207.455 74.2619 206.123V52.6634C74.2635 51.3309 74.7936 50.0535 75.7358 49.1113C76.678 48.1691 77.9554 47.639 79.2879 47.6374H211.303C212.636 47.639 213.913 48.1691 214.855 49.1113C215.798 50.0535 216.328 51.3309 216.329 52.6634V206.123Z" fill="#3F3D56"/>
<path d="M176.123 61.71H114.471C113.671 61.7091 112.905 61.3911 112.339 60.8258C111.774 60.2605 111.456 59.494 111.455 58.6945V43.9516C111.456 43.1521 111.774 42.3856 112.339 41.8203C112.905 41.2549 113.671 40.9369 114.471 40.936H176.123C176.922 40.9369 177.689 41.2549 178.254 41.8203C178.819 42.3856 179.137 43.1521 179.138 43.9516V58.6945C179.137 59.494 178.819 60.2605 178.254 60.8258C177.689 61.3911 176.922 61.7091 176.123 61.71Z" fill="#31572C"/>
<path d="M145.296 41.9414C148.997 41.9414 151.997 38.9411 151.997 35.2401C151.997 31.5391 148.997 28.5388 145.296 28.5388C141.595 28.5388 138.595 31.5391 138.595 35.2401C138.595 38.9411 141.595 41.9414 145.296 41.9414Z" fill="#31572C"/>
<path d="M145.296 39.3219C147.55 39.3219 149.377 37.4944 149.377 35.2402C149.377 32.9859 147.55 31.1584 145.296 31.1584C143.041 31.1584 141.214 32.9859 141.214 35.2402C141.214 37.4944 143.041 39.3219 145.296 39.3219Z" fill="white"/>
</g>
<defs>
<clipPath id="clip0_786_1218">
<rect width="217" height="211.819" fill="white"/>
</clipPath>
</defs>
</svg>
