<svg width="129" height="129" viewBox="0 0 129 129" fill="none" xmlns="http://www.w3.org/2000/svg">
<path d="M64.5 129C100.122 129 129 100.122 129 64.5C129 28.8776 100.122 0 64.5 0C28.8776 0 0 28.8776 0 64.5C0 100.122 28.8776 129 64.5 129Z" fill="#EF9038"/>
<path d="M57.9184 90C56.4656 90.0024 55.0514 89.5335 53.8891 88.664L53.817 88.6101L38.6409 77.0275C37.938 76.4899 37.3481 75.8194 36.905 75.0543C36.4618 74.2893 36.1741 73.4447 36.0581 72.5686C35.9421 71.6926 36.0002 70.8024 36.229 69.9488C36.4579 69.0952 36.853 68.2949 37.3919 67.5936C37.9307 66.8924 38.6028 66.3039 39.3696 65.8618C40.1364 65.4196 40.983 65.1325 41.861 65.0168C42.739 64.9011 43.6313 64.959 44.4869 65.1874C45.3425 65.4157 46.1446 65.8099 46.8475 66.3475L56.6774 73.8682L79.9059 43.6337C80.4446 42.9328 81.1163 42.3445 81.8828 41.9025C82.6493 41.4606 83.4955 41.1736 84.3732 41.0579C85.2509 40.9423 86.1428 41.0002 86.998 41.2284C87.8532 41.4567 88.655 41.8507 89.3576 42.3881L89.3596 42.3896L89.2154 42.5893L89.3635 42.3896C90.7809 43.4765 91.7082 45.08 91.942 46.8482C92.1758 48.6165 91.6969 50.405 90.6104 51.8214L63.2886 87.368C62.6565 88.187 61.8438 88.8498 60.9135 89.3049C59.9832 89.7599 58.9604 89.9951 57.9243 89.9921L57.9184 90Z" fill="white"/>
</svg>
