<svg width="181" height="74" viewBox="0 0 181 74" fill="none" xmlns="http://www.w3.org/2000/svg">
<path d="M172.454 40.5647V36.3828C168.83 39.1707 164.717 40.5647 160.117 40.5647C154.541 40.5647 149.767 38.5783 145.794 34.6055C141.821 30.6326 139.835 25.8583 139.835 20.2824V0H147.781V20.2824C147.781 23.6976 148.966 26.6249 151.335 29.0644C153.775 31.4342 156.702 32.619 160.117 32.619C163.533 32.619 166.425 31.4342 168.795 29.0644C171.234 26.6249 172.454 23.6976 172.454 20.2824V0H176.427C177.542 0 178.483 0.383343 179.25 1.15003C180.016 1.91672 180.4 2.85765 180.4 3.97283V40.5647H172.454Z" fill="#31572C"/>
<path d="M123.243 52.9014V36.3828C119.619 39.1707 115.507 40.5647 110.906 40.5647C105.33 40.5647 100.556 38.5783 96.5833 34.6055C92.6104 30.6326 90.624 25.8583 90.624 20.2824V0H98.5697V20.2824C98.5697 23.6976 99.7546 26.6249 102.124 29.0644C104.564 31.4342 107.491 32.619 110.906 32.619C114.322 32.619 117.214 31.4342 119.584 29.0644C122.023 26.6249 123.243 23.6976 123.243 20.2824V0H127.216C128.331 0 129.272 0.383343 130.039 1.15003C130.805 1.91672 131.189 2.85765 131.189 3.97283V52.9014C131.189 58.4773 129.202 63.2517 125.229 67.2245C121.326 71.1973 116.552 73.1837 110.906 73.1837C105.33 73.1837 100.556 71.1973 96.5833 67.2245C92.6104 63.2517 90.624 58.4773 90.624 52.9014H98.5697C98.5697 56.2469 99.7546 59.1046 102.124 61.4743C104.564 63.9138 107.491 65.1335 110.906 65.1335C114.322 65.1335 117.214 63.9138 119.584 61.4743C122.023 59.1046 123.243 56.2469 123.243 52.9014Z" fill="#31572C"/>
<path d="M74.0077 36.3828C70.3834 39.1707 66.2711 40.5647 61.671 40.5647C56.0951 40.5647 51.3208 38.5783 47.3479 34.6055C43.3751 30.6326 41.3887 25.8583 41.3887 20.2824C41.3887 14.6368 43.3751 9.86238 47.3479 5.95924C51.3208 1.98641 56.0951 0 61.671 0H77.9805C79.0957 0 80.0367 0.383343 80.8033 1.15003C81.57 1.91672 81.9534 2.85765 81.9534 3.97283V40.5647H74.0077V36.3828ZM61.671 7.94566C58.2558 7.94566 55.3284 9.16539 52.889 11.6049C50.5192 13.9746 49.3343 16.8671 49.3343 20.2824C49.3343 23.6976 50.5192 26.6249 52.889 29.0644C55.3284 31.4342 58.2558 32.619 61.671 32.619C65.0863 32.619 67.9788 31.4342 70.3485 29.0644C72.788 26.6249 74.0077 23.6976 74.0077 20.2824V7.94566H61.671Z" fill="#31572C"/>
<path d="M36.7144 0C37.7653 0 38.4904 1.0527 38.1159 2.03459L23.4188 40.5647H15.4731L0 0H7.94566L19.446 30.1099L30.8417 0H36.7144Z" fill="#31572C"/>
</svg>
