<?xml version="1.0" standalone="no"?>
<!DOCTYPE svg PUBLIC "-//W3C//DTD SVG 20010904//EN"
 "http://www.w3.org/TR/2001/REC-SVG-20010904/DTD/svg10.dtd">
<svg version="1.0" xmlns="http://www.w3.org/2000/svg"
 width="700.000000pt" height="700.000000pt" viewBox="0 0 700.000000 700.000000"
 preserveAspectRatio="xMidYMid meet">
<metadata>
Created by potrace 1.14, written by Peter Selinger 2001-2017
</metadata>
<g transform="translate(0.000000,700.000000) scale(0.100000,-0.100000)"
fill="#000000" stroke="none">
<path d="M212 4263 c-17 -3 -22 -10 -19 -21 14 -45 31 -90 43 -115 8 -16 14
-34 14 -40 0 -7 9 -29 20 -50 11 -20 20 -41 20 -47 0 -13 77 -216 96 -253 8
-16 14 -35 14 -43 0 -8 9 -31 20 -51 11 -21 20 -42 20 -48 0 -6 16 -49 35 -95
19 -46 35 -89 35 -95 1 -5 9 -28 20 -50 11 -22 19 -47 20 -55 0 -9 6 -24 13
-35 8 -11 19 -38 24 -60 6 -22 25 -76 43 -120 18 -44 40 -98 48 -120 9 -22 24
-59 34 -82 10 -23 18 -49 18 -57 0 -35 40 -46 163 -46 112 0 119 1 142 25 14
13 25 32 25 43 0 10 7 27 15 38 8 10 15 27 15 36 0 10 9 37 19 60 11 24 29 68
40 98 41 113 93 246 107 275 7 17 17 45 20 63 4 18 10 35 15 38 5 2 13 24 19
47 6 23 17 57 25 75 30 67 42 96 81 207 8 22 19 49 24 60 5 11 16 38 24 60 8
22 24 65 36 95 12 30 25 68 30 83 5 16 14 35 20 42 15 18 23 107 11 125 -7 11
-37 15 -115 18 -127 5 -147 -4 -169 -75 -8 -26 -25 -73 -37 -103 -12 -30 -28
-75 -36 -100 -8 -24 -19 -49 -24 -54 -6 -6 -10 -17 -10 -25 -1 -9 -9 -34 -20
-56 -11 -22 -20 -47 -20 -55 0 -8 -9 -33 -20 -55 -11 -22 -19 -45 -20 -52 0
-12 -15 -48 -51 -129 -11 -23 -19 -47 -19 -53 0 -7 -9 -36 -21 -64 -12 -29
-28 -70 -36 -92 -8 -22 -21 -53 -28 -70 -7 -16 -17 -42 -23 -57 -7 -16 -15
-28 -20 -28 -10 0 -52 90 -52 111 0 8 -6 23 -14 34 -7 11 -17 31 -20 45 -4 14
-23 66 -43 115 -19 50 -44 115 -55 145 -11 30 -26 68 -34 83 -8 16 -14 34 -14
40 -1 7 -9 30 -20 52 -11 22 -19 45 -20 50 0 6 -16 49 -35 95 -19 46 -35 89
-35 95 -1 5 -9 28 -20 50 -11 22 -20 47 -20 55 -1 8 -11 33 -24 55 l-23 40
-114 1 c-63 1 -125 0 -137 -3z"/>
<path d="M2335 4260 c-155 -22 -287 -85 -402 -194 -93 -88 -124 -129 -176
-237 -37 -75 -67 -218 -67 -311 1 -99 32 -231 78 -328 29 -60 139 -190 199
-236 32 -24 63 -48 68 -52 6 -4 28 -18 50 -29 143 -77 295 -100 482 -72 65 10
106 24 190 65 58 29 110 51 115 48 4 -3 8 -27 8 -54 0 -83 -5 -80 145 -80 112
0 134 2 139 16 3 9 6 323 6 698 l0 682 -39 40 c-22 21 -50 42 -63 46 -31 8
-670 7 -733 -2z m543 -550 c2 -239 1 -259 -19 -322 -32 -95 -103 -188 -188
-243 -38 -25 -77 -45 -86 -45 -10 0 -45 -7 -79 -16 -56 -15 -68 -15 -151 1
-107 20 -172 54 -245 128 -60 61 -94 124 -115 213 -20 86 -19 140 4 223 39
139 135 243 279 300 42 17 74 19 322 18 l275 -2 3 -255z"/>
<path d="M3506 4257 c-17 -12 -17 -41 -13 -457 4 -445 4 -445 28 -510 65 -169
161 -290 304 -383 107 -70 170 -93 297 -111 95 -13 120 -13 210 1 57 8 117 21
133 28 17 7 41 17 55 20 14 4 47 22 74 40 27 18 56 31 63 28 12 -5 14 -64 11
-357 l-4 -351 -27 -53 c-46 -86 -135 -174 -224 -218 -76 -38 -80 -38 -188 -38
-106 0 -112 1 -185 37 -144 71 -238 193 -255 332 -9 70 -19 75 -159 75 -141 0
-142 -1 -128 -120 6 -51 16 -98 22 -104 5 -5 10 -17 10 -25 0 -8 11 -38 25
-67 87 -183 258 -330 465 -400 79 -27 331 -27 410 0 111 37 221 99 291 164 64
59 129 141 129 162 0 5 6 13 14 17 16 9 37 57 72 162 l24 74 0 990 0 990 -39
37 c-21 20 -53 40 -71 44 -40 8 -117 6 -150 -3 l-25 -7 -5 -429 -5 -430 -28
-58 c-33 -71 -134 -174 -203 -209 -28 -14 -87 -34 -132 -43 -76 -17 -84 -17
-158 0 -161 36 -260 113 -328 255 l-31 65 -3 423 -3 423 -25 9 c-39 15 -227
12 -248 -3z"/>
<path d="M5296 4257 c-16 -12 -17 -41 -14 -442 3 -421 4 -432 27 -504 63 -197
230 -384 411 -460 14 -6 33 -16 43 -22 28 -16 174 -39 252 -40 141 -1 306 45
406 113 28 19 49 2 49 -39 0 -21 7 -49 16 -61 14 -21 23 -22 129 -22 106 0
115 1 129 22 14 20 16 100 15 678 0 480 -3 664 -12 689 -7 19 -28 47 -48 63
-29 24 -48 30 -105 34 -40 4 -81 1 -96 -5 l-28 -11 0 -367 c0 -379 -7 -474
-37 -540 -24 -50 -87 -132 -126 -160 -17 -13 -33 -27 -36 -32 -16 -24 -119
-60 -216 -75 -47 -8 -192 22 -248 50 -66 34 -155 131 -195 213 l-37 76 -3 421
-4 422 -30 6 c-57 11 -223 7 -242 -7z"/>
</g>
</svg>
