<svg width="91" height="56" viewBox="0 0 91 56" fill="none" xmlns="http://www.w3.org/2000/svg">
<path d="M0.756248 40.0578H3.07814V42.2611H3.13431C4.25781 40.5571 5.86815 39.7083 7.97782 39.7083C8.90783 39.7083 9.74421 39.9017 10.4995 40.2887C11.2547 40.6757 11.7852 41.3311 12.0973 42.2611C12.6029 41.4497 13.2645 40.8192 14.0821 40.3761C14.906 39.9329 15.8111 39.7083 16.7973 39.7083C17.5525 39.7083 18.2328 39.7894 18.8445 39.9517C19.4562 40.1139 19.9743 40.3699 20.4112 40.7194C20.8481 41.0689 21.1851 41.5183 21.4286 42.0676C21.672 42.6169 21.7906 43.2785 21.7906 44.0524V55.0502H19.3251V45.2134C19.3251 44.7515 19.2877 44.3146 19.2065 43.9089C19.1254 43.5032 18.9818 43.1474 18.7696 42.8478C18.5574 42.5482 18.264 42.311 17.8833 42.1362C17.5088 41.9615 17.0157 41.8741 16.4165 41.8741C15.1994 41.8741 14.2382 42.2236 13.5454 42.9164C12.8526 43.6093 12.503 44.5393 12.503 45.7002V55.044H10.0376V45.2071C10.0376 44.7203 9.99387 44.2771 9.90649 43.8714C9.8191 43.4657 9.6693 43.1099 9.45709 42.8103C9.24487 42.5107 8.95776 42.2798 8.60199 42.1113C8.24621 41.9427 7.78434 41.8678 7.22259 41.8616C6.5048 41.8616 5.89311 42.0052 5.3813 42.2985C4.86948 42.5919 4.45129 42.9352 4.13297 43.3409C3.81464 43.7466 3.58371 44.1648 3.43391 44.6017C3.28411 45.0386 3.21545 45.4006 3.21545 45.6877V55.0315H0.75V40.0328L0.756248 40.0578Z" fill="#0A4B73"/>
<path d="M28.1139 37.3616H25.6484V34.3469H28.1139V37.3616ZM25.6484 40.058H28.1139V55.0567H25.6484V40.058Z" fill="#0A4B73"/>
<path d="M33.4545 50.3251C33.4732 50.8682 33.5981 51.3238 33.829 51.7045C34.0599 52.079 34.3658 52.3786 34.7403 52.6033C35.1148 52.828 35.5454 52.9841 36.0136 53.084C36.4879 53.1776 36.9748 53.2275 37.4803 53.2275C37.8673 53.2275 38.273 53.1963 38.6975 53.1401C39.1219 53.084 39.5151 52.9778 39.8709 52.8218C40.2267 52.6658 40.5263 52.4411 40.7572 52.1415C40.9881 51.8419 41.1068 51.4611 41.1068 50.993C41.1068 50.3564 40.8633 49.8695 40.3827 49.5449C39.9021 49.2141 39.2967 48.952 38.5664 48.746C37.8424 48.54 37.0559 48.359 36.2008 48.1967C35.3457 48.0345 34.5593 47.8035 33.8352 47.4977C33.1112 47.1981 32.5058 46.7799 32.0252 46.2369C31.5445 45.6939 31.3011 44.9386 31.3011 43.9712C31.3011 43.2159 31.4696 42.5668 31.8067 42.03C32.1437 41.487 32.5807 41.0501 33.1112 40.713C33.6417 40.376 34.2409 40.1201 34.9088 39.9578C35.5766 39.7955 36.2383 39.7144 36.8936 39.7144C37.7425 39.7144 38.5289 39.7893 39.2405 39.9328C39.952 40.0764 40.5887 40.326 41.138 40.6881C41.6872 41.0501 42.1304 41.5307 42.4612 42.1361C42.792 42.7478 42.9855 43.503 43.0416 44.4143H40.5762C40.5388 43.9337 40.4139 43.528 40.2017 43.2097C39.9895 42.8914 39.7211 42.6354 39.3903 42.4419C39.0595 42.2485 38.6975 42.1049 38.3042 42.0238C37.9048 41.9364 37.5053 41.8927 37.0996 41.8927C36.7314 41.8927 36.3569 41.9239 35.9824 41.9801C35.6079 42.0362 35.2646 42.1424 34.9525 42.2859C34.6404 42.4295 34.3907 42.623 34.1973 42.8664C34.0038 43.1098 33.9101 43.4219 33.9101 43.8089C33.9101 44.2333 34.0599 44.5891 34.3595 44.87C34.6591 45.1508 35.0399 45.3818 35.508 45.569C35.9699 45.75 36.4942 45.9061 37.0746 46.0309C37.6551 46.1557 38.2356 46.2868 38.8161 46.4241C39.434 46.5614 40.0394 46.7237 40.6261 46.9172C41.2191 47.1107 41.7372 47.3666 42.1928 47.6849C42.6484 48.0033 43.0167 48.4027 43.2976 48.8896C43.5784 49.3702 43.7158 49.9694 43.7158 50.6872C43.7158 51.5985 43.5285 52.3537 43.1478 52.9529C42.7733 53.5521 42.2802 54.0327 41.6685 54.4009C41.0568 54.7692 40.3702 55.0251 39.6087 55.1687C38.8473 55.3122 38.0858 55.3871 37.3305 55.3871C36.5004 55.3871 35.7077 55.2997 34.9525 55.125C34.1972 54.9502 33.5294 54.6631 32.9489 54.2699C32.3685 53.8766 31.9066 53.3523 31.557 52.7032C31.2075 52.0541 31.014 51.2676 30.9766 50.3376H33.442L33.4545 50.3251Z" fill="#0A4B73"/>
<path d="M49.8785 40.0584H52.8683V42.2368H49.8785V51.5493C49.8785 51.8364 49.9035 52.0736 49.9534 52.2484C50.0033 52.4231 50.0907 52.5604 50.228 52.6541C50.3654 52.7477 50.5526 52.8101 50.796 52.8413C51.0395 52.8725 51.3516 52.885 51.7385 52.885H52.8683V55.0633H50.9833C50.3466 55.0633 49.7974 55.0196 49.3417 54.9323C48.8861 54.8449 48.5178 54.6826 48.237 54.4517C47.9561 54.2207 47.7501 53.8899 47.6128 53.4655C47.4755 53.041 47.4068 52.4793 47.4068 51.7802V42.2368H44.854V40.0584H47.4068V35.5645H49.8723V40.0584H49.8785Z" fill="#0A4B73"/>
<path d="M71.4727 54.9816C70.3742 53.9392 69.5066 52.7097 68.87 51.3053H60.3377V45.9375H67.5967C67.5655 45.5006 67.553 45.0512 67.553 44.5893C67.553 43.7966 67.5967 43.0351 67.6778 42.3048H60.3377V37.8733H68.8388C69.4629 36.4876 70.3118 35.2892 71.3854 34.2843V34.1782H56.0684V55.0565H71.5476L71.4727 54.9816Z" fill="#0A4B73"/>
<path d="M71.6733 51.3057C71.7358 51.418 71.8044 51.5241 71.8793 51.6302V51.3057H71.6733Z" fill="#0A4B73"/>
<path d="M86.8904 35.9762C85.3175 34.3534 83.0331 33.542 80.0496 33.542C77.0661 33.542 74.7816 34.3534 73.2087 35.9762C71.536 37.4867 70.5248 39.5964 70.1753 42.3052C70.0754 43.023 70.0317 43.7845 70.0317 44.5897C70.0317 45.0516 70.0505 45.501 70.0817 45.9379C70.2377 48.0413 70.7683 49.8264 71.6733 51.3057H71.8793V51.6303C72.26 52.2045 72.7094 52.7288 73.2087 53.2032C74.7816 54.826 77.0661 55.6374 80.0496 55.6374C83.0331 55.6374 85.3175 54.826 86.8904 53.2032C89.0001 51.2121 90.0487 48.3409 90.0487 44.5897C90.0487 40.8385 89.0001 37.8924 86.8904 35.9762ZM84.1628 50.0262C83.1517 51.3057 81.7785 51.9423 80.0496 51.9423C78.3206 51.9423 76.9412 51.3057 75.9114 50.0262C74.8815 48.7529 74.3697 46.9428 74.3697 44.5897C74.3697 42.2366 74.8815 40.4265 75.9114 39.147C76.9412 37.8737 78.3206 37.237 80.0496 37.237C81.7785 37.237 83.1517 37.8799 84.1628 39.1595C85.1802 40.439 85.6858 42.2491 85.6858 44.5897C85.6858 46.9303 85.1802 48.7529 84.1628 50.0262Z" fill="#0A4B73"/>
<path d="M40.4346 0L25.3486 21.9531L40.3812 9.44654L50.3617 21.9531L55.4675 16.9007L65.4477 22.0954L55.4851 9.32211L50.3617 13.7697L40.4346 0Z" fill="#0A4B73"/>
</svg>
