<svg width="94" height="38" viewBox="0 0 94 38" fill="none" xmlns="http://www.w3.org/2000/svg">
<path d="M89.5451 21.0629V18.8914C87.6632 20.3391 85.5279 21.0629 83.1393 21.0629C80.2441 21.0629 77.7651 20.0314 75.7022 17.9686C73.6393 15.9057 72.6079 13.4267 72.6079 10.5314V0H76.7336V10.5314C76.7336 12.3048 77.3489 13.8248 78.5793 15.0914C79.846 16.3219 81.366 16.9371 83.1393 16.9371C84.9127 16.9371 86.4146 16.3219 87.6451 15.0914C88.9117 13.8248 89.5451 12.3048 89.5451 10.5314V0H91.6079C92.187 0 92.6755 0.199047 93.0736 0.597143C93.4717 0.995237 93.6708 1.48381 93.6708 2.06286V21.0629H89.5451Z" fill="white"/>
<path d="M63.9928 27.4686V18.8914C62.1109 20.339 59.9757 21.0629 57.5871 21.0629C54.6919 21.0629 52.2128 20.0314 50.15 17.9686C48.0871 15.9057 47.0557 13.4267 47.0557 10.5314V0H51.1814V10.5314C51.1814 12.3048 51.7966 13.8248 53.0271 15.0914C54.2938 16.3219 55.8138 16.9371 57.5871 16.9371C59.3604 16.9371 60.8623 16.3219 62.0928 15.0914C63.3595 13.8248 63.9928 12.3048 63.9928 10.5314V0H66.0557C66.6347 0 67.1233 0.199047 67.5214 0.597143C67.9195 0.995237 68.1185 1.48381 68.1185 2.06286V27.4686C68.1185 30.3638 67.0871 32.8429 65.0242 34.9057C62.9976 36.9686 60.5185 38 57.5871 38C54.6919 38 52.2128 36.9686 50.15 34.9057C48.0871 32.8429 47.0557 30.3638 47.0557 27.4686H51.1814C51.1814 29.2057 51.7966 30.6895 53.0271 31.92C54.2938 33.1867 55.8138 33.82 57.5871 33.82C59.3604 33.82 60.8623 33.1867 62.0928 31.92C63.3595 30.6895 63.9928 29.2057 63.9928 27.4686Z" fill="white"/>
<path d="M38.4279 18.8914C36.546 20.3391 34.4107 21.0629 32.0222 21.0629C29.1269 21.0629 26.6479 20.0314 24.585 17.9686C22.5222 15.9057 21.4907 13.4267 21.4907 10.5314C21.4907 7.6 22.5222 5.12095 24.585 3.09428C26.6479 1.03143 29.1269 0 32.0222 0H40.4907C41.0698 0 41.5583 0.199047 41.9564 0.597143C42.3545 0.995237 42.5536 1.48381 42.5536 2.06286V21.0629H38.4279V18.8914ZM32.0222 4.12571C30.2488 4.12571 28.7288 4.75905 27.4622 6.02571C26.2317 7.25619 25.6164 8.7581 25.6164 10.5314C25.6164 12.3048 26.2317 13.8248 27.4622 15.0914C28.7288 16.3219 30.2488 16.9371 32.0222 16.9371C33.7955 16.9371 35.2974 16.3219 36.5279 15.0914C37.7945 13.8248 38.4279 12.3048 38.4279 10.5314V4.12571H32.0222Z" fill="white"/>
<path d="M18.0167 0C19.0676 0 19.7927 1.0527 19.4182 2.03459L12.16 21.0629H8.03429L0 0H4.12571L10.0971 15.6343L16.0143 0H18.0167Z" fill="white"/>
</svg>
