<svg width="24" height="24" viewBox="0 0 24 24" fill="none" xmlns="http://www.w3.org/2000/svg">
<g id="Project">
<path id="Vector" d="M5.78516 18.4318H7.92801C8.04587 18.4318 8.1423 18.3354 8.1423 18.2175V5.78897C8.1423 5.67111 8.04587 5.57469 7.92801 5.57469H5.78516C5.6673 5.57469 5.57087 5.67111 5.57087 5.78897V18.2175C5.57087 18.3354 5.6673 18.4318 5.78516 18.4318ZM10.928 10.9318H13.0709C13.1887 10.9318 13.2852 10.8354 13.2852 10.7175V5.78897C13.2852 5.67111 13.1887 5.57469 13.0709 5.57469H10.928C10.8102 5.57469 10.7137 5.67111 10.7137 5.78897V10.7175C10.7137 10.8354 10.8102 10.9318 10.928 10.9318ZM16.0709 12.8604H18.2137C18.3316 12.8604 18.428 12.764 18.428 12.6461V5.78897C18.428 5.67111 18.3316 5.57469 18.2137 5.57469H16.0709C15.953 5.57469 15.8566 5.67111 15.8566 5.78897V12.6461C15.8566 12.764 15.953 12.8604 16.0709 12.8604ZM21.8566 1.28897H2.1423C1.66819 1.28897 1.28516 1.67201 1.28516 2.14611V21.8604C1.28516 22.3345 1.66819 22.7175 2.1423 22.7175H21.8566C22.3307 22.7175 22.7137 22.3345 22.7137 21.8604V2.14611C22.7137 1.67201 22.3307 1.28897 21.8566 1.28897ZM20.7852 20.789H3.21373V3.21754H20.7852V20.789Z" fill="#90a955" fill-opacity="0.8"/>
</g>
</svg>
