<svg width="24" height="24" viewBox="0 0 24 24" fill="none" xmlns="http://www.w3.org/2000/svg">
<g id="FileSync">
<path id="Vector" d="M6.2154 5.13799C6.09754 5.13799 6.00112 5.23442 6.00112 5.35227V6.63799C6.00112 6.75585 6.09754 6.85227 6.2154 6.85227H16.5011C16.619 6.85227 16.7154 6.75585 16.7154 6.63799V5.35227C16.7154 5.23442 16.619 5.13799 16.5011 5.13799H6.2154ZM11.3583 10.4951V9.20942C11.3583 9.09156 11.2618 8.99513 11.144 8.99513H6.2154C6.09754 8.99513 6.00112 9.09156 6.00112 9.20942V10.4951C6.00112 10.613 6.09754 10.7094 6.2154 10.7094H11.144C11.2618 10.7094 11.3583 10.613 11.3583 10.4951ZM10.0725 21.1023H3.85826V2.24513H18.8583V11.4594C18.8583 11.5773 18.9547 11.6737 19.0725 11.6737H20.5725C20.6904 11.6737 20.7868 11.5773 20.7868 11.4594V1.1737C20.7868 0.699595 20.4038 0.316559 19.9297 0.316559H2.78683C2.31272 0.316559 1.92969 0.699595 1.92969 1.1737V22.1737C1.92969 22.6478 2.31272 23.0308 2.78683 23.0308H10.0725C10.1904 23.0308 10.2868 22.9344 10.2868 22.8166V21.3166C10.2868 21.1987 10.1904 21.1023 10.0725 21.1023ZM12.8609 18.0058C12.9092 17.0817 13.2949 16.2166 13.9538 15.5576C14.6556 14.8558 15.6145 14.4594 16.6083 14.4594C17.61 14.4594 18.5529 14.8505 19.2627 15.5576C19.3484 15.6433 19.4315 15.7344 19.5092 15.8282L18.8904 16.3076C18.8585 16.3323 18.8342 16.3655 18.8203 16.4034C18.8064 16.4412 18.8035 16.4823 18.8119 16.5217C18.8203 16.5612 18.8397 16.5975 18.8678 16.6264C18.8959 16.6553 18.9316 16.6758 18.9708 16.6853L21.4699 17.288C21.6038 17.3201 21.7324 17.2183 21.735 17.0817L21.7511 14.5264C21.7515 14.4861 21.7405 14.4466 21.7195 14.4123C21.6984 14.378 21.6681 14.3503 21.6321 14.3324C21.596 14.3145 21.5556 14.3071 21.5156 14.3111C21.4755 14.3151 21.4374 14.3303 21.4056 14.355L20.8618 14.7782C19.86 13.538 18.3252 12.7451 16.6083 12.7451C13.6645 12.7451 11.2618 15.0728 11.144 17.9871C11.1386 18.1076 11.2377 18.2094 11.3583 18.2094H12.6467C12.7618 18.2094 12.8556 18.121 12.8609 18.0058ZM21.8583 18.2094H20.5699C20.4547 18.2094 20.3609 18.2978 20.3556 18.413C20.3074 19.3371 19.9217 20.2023 19.2627 20.8612C18.5609 21.563 17.602 21.9594 16.6083 21.9594C15.6065 21.9594 14.6636 21.5683 13.9538 20.8612C13.8681 20.7755 13.785 20.6844 13.7074 20.5907L14.3261 20.1112C14.358 20.0865 14.3823 20.0533 14.3962 20.0155C14.4101 19.9776 14.413 19.9366 14.4046 19.8971C14.3962 19.8577 14.3768 19.8214 14.3487 19.7924C14.3206 19.7635 14.2849 19.7431 14.2458 19.7335L11.7467 19.1308C11.6127 19.0987 11.4842 19.2005 11.4815 19.3371L11.4654 21.8925C11.465 21.9327 11.476 21.9723 11.497 22.0066C11.5181 22.0409 11.5484 22.0686 11.5844 22.0865C11.6205 22.1044 11.6609 22.1117 11.7009 22.1077C11.741 22.1037 11.7791 22.0885 11.8109 22.0639L12.3547 21.6407C13.3565 22.8808 14.8913 23.6737 16.6083 23.6737C19.552 23.6737 21.9547 21.346 22.0725 18.4317C22.0779 18.3112 21.9788 18.2094 21.8583 18.2094Z" fill="#90a955" fill-opacity="0.8"/>
</g>
</svg>
