<svg width="26" height="24" viewBox="0 0 26 24" fill="none" xmlns="http://www.w3.org/2000/svg">
<path id="Vector" d="M24.6398 11.811L14.2898 1.46631L13.5961 0.772562C13.438 0.615535 13.2243 0.527405 13.0014 0.527405C12.7786 0.527405 12.5649 0.615535 12.4068 0.772562L1.36306 11.811C1.20109 11.9723 1.07308 12.1644 0.98659 12.3761C0.900101 12.5877 0.856882 12.8145 0.859486 13.0431C0.8702 13.986 1.65502 14.7386 2.59788 14.7386H3.73627V23.4627H22.2666V14.7386H23.4291C23.8872 14.7386 24.3184 14.5592 24.6425 14.2351C24.8021 14.076 24.9286 13.8868 25.0145 13.6785C25.1005 13.4703 25.1443 13.247 25.1434 13.0217C25.1434 12.5663 24.9639 12.1351 24.6398 11.811ZM14.5014 21.5342H11.5014V16.0699H14.5014V21.5342ZM20.3381 12.8101V21.5342H16.2157V15.427C16.2157 14.8351 15.7363 14.3556 15.1443 14.3556H10.8586C10.2666 14.3556 9.78716 14.8351 9.78716 15.427V21.5342H5.66484V12.8101H3.09341L13.0041 2.90738L13.6229 3.52613L22.9122 12.8101H20.3381Z" fill="#ECF39E"/>
</svg>
