<svg width="24" height="24" viewBox="0 0 24 24" fill="none" xmlns="http://www.w3.org/2000/svg">
<g id="Dashboard" clip-path="url(#clip0_220_94)">
<path id="Vector" d="M23.0571 8.61754C22.4548 7.19176 21.5815 5.8964 20.4857 4.80326C19.3926 3.70748 18.0972 2.8342 16.6714 2.23183C15.1902 1.60504 13.6205 1.28897 12 1.28897C10.3795 1.28897 8.80982 1.60504 7.32857 2.23183C5.90279 2.8342 4.60743 3.70748 3.51429 4.80326C2.4185 5.8964 1.54523 7.19176 0.942857 8.61754C0.316071 10.0988 0 11.6684 0 13.289C0 16.8434 1.56161 20.1917 4.28304 22.4792L4.32857 22.5167C4.48393 22.6452 4.67946 22.7175 4.88036 22.7175H19.1223C19.3232 22.7175 19.5187 22.6452 19.6741 22.5167L19.7196 22.4792C22.4384 20.1917 24 16.8434 24 13.289C24 11.6684 23.6812 10.0988 23.0571 8.61754ZM18.6804 20.6818H5.31964C4.28463 19.7486 3.45741 18.6082 2.89167 17.3345C2.32593 16.0609 2.0343 14.6826 2.03571 13.289C2.03571 10.6265 3.07232 8.12469 4.95536 6.24433C6.83839 4.36129 9.34018 3.32469 12 3.32469C14.6625 3.32469 17.1643 4.36129 19.0446 6.24433C20.9277 8.12736 21.9643 10.6292 21.9643 13.289C21.9643 16.1175 20.7723 18.7934 18.6804 20.6818ZM14.9866 9.57915C14.9463 9.53927 14.8919 9.5169 14.8353 9.5169C14.7786 9.5169 14.7242 9.53927 14.6839 9.57915L12.4205 11.8425C11.9196 11.7086 11.3652 11.8372 10.9714 12.2309C10.832 12.3701 10.7213 12.5355 10.6458 12.7175C10.5703 12.8995 10.5315 13.0946 10.5315 13.2916C10.5315 13.4887 10.5703 13.6838 10.6458 13.8658C10.7213 14.0478 10.832 14.2132 10.9714 14.3524C11.1106 14.4918 11.276 14.6025 11.458 14.678C11.64 14.7535 11.8351 14.7923 12.0321 14.7923C12.2292 14.7923 12.4243 14.7535 12.6063 14.678C12.7883 14.6025 12.9537 14.4918 13.0929 14.3524C13.2794 14.1664 13.4136 13.9344 13.4818 13.68C13.55 13.4256 13.5498 13.1576 13.4812 12.9033L15.7446 10.6399C15.8277 10.5568 15.8277 10.4202 15.7446 10.3372L14.9866 9.57915ZM11.4107 6.8604H12.5893C12.7071 6.8604 12.8036 6.76397 12.8036 6.64611V4.50326C12.8036 4.3854 12.7071 4.28897 12.5893 4.28897H11.4107C11.2929 4.28897 11.1964 4.3854 11.1964 4.50326V6.64611C11.1964 6.76397 11.2929 6.8604 11.4107 6.8604ZM18.375 12.6997V13.8783C18.375 13.9961 18.4714 14.0925 18.5893 14.0925H20.7321C20.85 14.0925 20.9464 13.9961 20.9464 13.8783V12.6997C20.9464 12.5818 20.85 12.4854 20.7321 12.4854H18.5893C18.4714 12.4854 18.375 12.5818 18.375 12.6997ZM18.7152 7.41754L17.8821 6.58451C17.8419 6.54463 17.7875 6.52226 17.7308 6.52226C17.6741 6.52226 17.6197 6.54463 17.5795 6.58451L16.0634 8.10058C16.0235 8.14085 16.0011 8.19524 16.0011 8.25192C16.0011 8.3086 16.0235 8.36298 16.0634 8.40326L16.8964 9.23629C16.9795 9.31933 17.1161 9.31933 17.1991 9.23629L18.7152 7.72022C18.7982 7.63719 18.7982 7.50058 18.7152 7.41754ZM6.43125 6.58451C6.39098 6.54463 6.33659 6.52226 6.27991 6.52226C6.22323 6.52226 6.16885 6.54463 6.12857 6.58451L5.29554 7.41754C5.25566 7.45782 5.23329 7.5122 5.23329 7.56888C5.23329 7.62556 5.25566 7.67995 5.29554 7.72022L6.81161 9.23629C6.89464 9.31933 7.03125 9.31933 7.11429 9.23629L7.94732 8.40326C8.03036 8.32022 8.03036 8.18361 7.94732 8.10058L6.43125 6.58451ZM5.30357 12.4854H3.16071C3.04286 12.4854 2.94643 12.5818 2.94643 12.6997V13.8783C2.94643 13.9961 3.04286 14.0925 3.16071 14.0925H5.30357C5.42143 14.0925 5.51786 13.9961 5.51786 13.8783V12.6997C5.51786 12.5818 5.42143 12.4854 5.30357 12.4854Z" fill="#ECF39E" fill-opacity="0.8"/>
</g>
<defs>
<clipPath id="clip0_220_94">
<rect width="24" height="24" fill="white"/>
</clipPath>
</defs>
</svg>
