<svg width="45" height="45" viewBox="0 0 45 45" fill="none" xmlns="http://www.w3.org/2000/svg">
<rect width="44.294" height="45" rx="8" fill="#EDF6EC"/>
<path d="M38.383 11.659L24.5919 4.55488C23.1731 3.81504 21.4789 3.81504 20.0606 4.55488L6.26933 11.659C4.77193 12.4359 3.82617 13.9159 3.82617 15.5439V29.4558C3.82617 31.0838 4.77193 32.5637 6.26903 33.3409L20.0603 40.445C20.7693 40.815 21.5576 41 22.3455 41C23.1334 41 23.9217 40.815 24.5916 40.445L38.3827 33.3409C39.8801 32.5637 40.8255 31.0841 40.8255 29.4558L40.8262 15.5439C40.8262 13.9159 39.8805 12.4359 38.383 11.659ZM39.25 29.4559C39.25 30.5289 38.659 31.5279 37.6346 32.0458L23.8433 39.1498C22.8975 39.6307 21.7549 39.6307 20.8092 39.1498L7.01793 32.0457C6.03277 31.5276 5.40239 30.5285 5.40239 29.4556V15.5437C5.40239 14.4708 5.99341 13.4717 7.01793 12.9537L20.8092 5.8499C21.3215 5.59076 21.8336 5.47982 22.3458 5.47982C22.8583 5.47982 23.3704 5.59076 23.8433 5.8499L37.5952 12.954C38.6198 13.4719 39.2501 14.4709 39.2501 15.5441L39.25 29.4559Z" fill="#30562C" stroke="#30562C"/>
<path d="M24.9617 19C24.4864 19 24.0976 19.3335 24.0976 19.7406V21.7777H20.5542V19.7406C20.5542 19.3331 20.1652 19 19.6903 19C19.2148 19 18.8262 19.3335 18.8262 19.7406V25.2594C18.8262 25.6669 19.2152 26 19.6903 26C20.1656 26 20.5542 25.6665 20.5542 25.2594V23.2593H24.0976V25.2594C24.0976 25.6669 24.4868 26 24.9617 26C25.4372 26 25.8258 25.6665 25.8258 25.2594L25.8262 19.7409C25.8262 19.3333 25.4372 19 24.9617 19Z" fill="#30562C"/>
<path d="M32.1042 22.4486H31.6346V18.7477C31.6346 18.3364 31.3095 18 30.9124 18C30.5152 18 30.1904 18.3366 30.1904 18.7477V22.4486H28.7458L29.5404 20.8038C29.7209 20.4298 29.5765 19.9812 29.2153 19.7944C28.8541 19.6077 28.4207 19.757 28.2402 20.1309L26.9039 22.8598C26.7234 23.2338 26.8678 23.6824 27.229 23.8692H27.265C27.3373 23.9066 27.4455 23.9439 27.5542 23.9439H30.1904L30.1901 25.2525C30.1901 25.6638 30.5154 26 30.9123 26C31.3097 26 31.6345 25.6634 31.6345 25.2525V23.9439H32.104C32.5375 23.9439 32.8262 23.6073 32.8262 23.1964C32.8268 22.7852 32.5014 22.4486 32.1042 22.4486Z" fill="#30562C"/>
<path d="M16.6181 23.8632C16.2333 24.2684 15.7436 24.5262 15.1839 24.5262C14.1346 24.5262 13.26 23.6052 13.26 22.4999C13.26 21.3948 14.1346 20.4738 15.1839 20.4738C15.6387 20.4738 16.0585 20.6578 16.4083 20.9527C16.6884 21.2106 17.143 21.1369 17.3879 20.8421C17.6327 20.5474 17.5626 20.0683 17.2829 19.8106C16.6884 19.2949 15.9186 19 15.1493 19C13.3304 19 11.8262 20.5842 11.8262 22.4999C11.8262 24.4158 13.3304 26 15.1493 26C16.0588 26 16.9683 25.5579 17.6329 24.8579C17.9128 24.5632 17.8779 24.0841 17.5979 23.8264C17.3177 23.5316 16.8628 23.5683 16.6181 23.8632Z" fill="#30562C"/>
</svg>
