<svg width="48" height="48" viewBox="0 0 48 48" fill="none" xmlns="http://www.w3.org/2000/svg">
<rect width="48" height="48" rx="24" fill="white"/>
<rect x="0.5" y="0.5" width="47" height="47" rx="23.5" stroke="#31572C" stroke-opacity="0.2"/>
<path fill-rule="evenodd" clip-rule="evenodd" d="M15.9341 13.9176L25.0082 22.9918C25.5651 23.5486 25.5651 24.4514 25.0082 25.0082L15.9341 34.0824C15.3773 34.6392 14.4745 34.6392 13.9176 34.0824C13.3608 33.5255 13.3608 32.6227 13.9176 32.0659L21.9835 24L13.9176 15.9341C13.3608 15.3773 13.3608 14.4745 13.9176 13.9176C14.4745 13.3608 15.3773 13.3608 15.9341 13.9176Z" fill="#31572C"/>
<path fill-rule="evenodd" clip-rule="evenodd" d="M32.0659 34.0824L22.9918 25.0082C22.4349 24.4514 22.4349 23.5486 22.9918 22.9918L32.0659 13.9176C32.6227 13.3608 33.5255 13.3608 34.0824 13.9176C34.6392 14.4745 34.6392 15.3773 34.0824 15.9341L26.0165 24L34.0824 32.0659C34.6392 32.6227 34.6392 33.5255 34.0824 34.0824C33.5255 34.6392 32.6227 34.6392 32.0659 34.0824Z" fill="#31572C"/>
</svg>
