<svg width="23" height="25" viewBox="0 0 23 25" fill="none" xmlns="http://www.w3.org/2000/svg">
<path d="M7.39388 2.80517e-09C5.45816 -5.45058e-05 3.5339 0.794281 2.16515 2.1594C0.796392 3.52453 -5.46507e-05 5.4437 2.81262e-09 7.37427C-5.46507e-05 9.30485 0.796392 11.224 2.16515 12.5891C3.5339 13.9543 5.45816 14.7486 7.39388 14.7485C8.47619 14.7454 9.55653 14.5014 10.5348 14.0397C10.689 13.9669 10.8627 13.9464 11.0296 13.9813C11.1965 14.0162 11.3473 14.1047 11.4591 14.2331L12.5817 15.5204C12.6917 15.6467 12.758 15.805 12.7708 15.9718C12.7836 16.1386 12.7423 16.3051 12.6528 16.4466C12.096 17.3286 11.7936 18.3684 11.7909 19.4107C11.7909 19.411 11.7909 19.4112 11.7909 19.4116C11.7909 19.4119 11.7909 19.4121 11.7909 19.4125C11.7913 20.8752 12.3951 22.3289 13.4321 23.3631C14.4695 24.3978 15.9279 24.9999 17.395 25C18.8623 25.0001 20.3203 24.3978 21.3579 23.3631C22.3955 22.3285 22.9999 20.8741 23 19.4107C23.0001 17.9472 22.3964 16.4923 21.3588 15.4574C20.3216 14.423 18.8636 13.8209 17.3968 13.8206H17.395C16.5902 13.8229 15.7866 14.0013 15.0564 14.3387C14.9027 14.4097 14.7301 14.4289 14.5645 14.3936C14.3989 14.3582 14.2494 14.2701 14.1383 14.1426L13.1527 13.0115C13.0323 12.8732 12.9646 12.6969 12.9615 12.5137C12.9584 12.3305 13.0201 12.1521 13.1358 12.0098C14.1921 10.7112 14.7856 9.0456 14.7877 7.37343C14.7875 5.44315 13.9911 3.52436 12.6226 2.15945C11.2538 0.794322 9.32958 -5.45058e-05 7.39388 2.80517e-09Z" fill="#31572C"/>
</svg>
