<svg width="30" height="24" viewBox="0 0 30 24" fill="none" xmlns="http://www.w3.org/2000/svg">
<path d="M26.4825 6.68253C26.1738 4.13103 24.0132 2.18698 21.3589 2.18698C20.5564 2.18698 19.8155 2.36912 19.1984 2.67294C18.2107 1.03269 16.4823 0 14.3835 0C12.47 0 10.8032 0.97194 9.81543 2.36937C11.8526 2.4908 13.7661 3.58437 14.939 5.22467C15.6798 4.98157 16.4204 4.86015 17.1612 4.86015C20.3094 4.86015 22.9639 7.10783 23.5193 10.1455C25.6798 11.1781 27.0995 13.3653 27.0995 15.7951C28.6429 14.9446 29.6305 13.3044 29.6305 11.4212C29.6307 9.29471 28.3344 7.47233 26.4823 6.68253L26.4825 6.68253Z" fill="#30562C"/>
<path d="M15.4321 10.9349C14.815 10.9349 14.2592 11.178 13.8271 11.6033C13.395 12.0286 13.1479 12.5753 13.1479 13.2436C13.1479 13.8509 13.395 14.3979 13.8271 14.8838C14.2592 15.3091 14.8147 15.5522 15.4321 15.5522C16.0493 15.5522 16.6051 15.3091 17.0372 14.8838C17.4693 14.4585 17.7163 13.9119 17.7163 13.2436C17.7163 12.6362 17.4693 12.0893 17.0372 11.6033C16.605 11.1174 16.1113 10.9349 15.4321 10.9349Z" fill="#30562C"/>
<path d="M22.9638 10.5096C22.6551 7.65433 20.1861 5.40664 17.2231 5.40664C16.3589 5.40664 15.4947 5.58879 14.7538 5.95332C13.6426 4.13088 11.6674 2.91588 9.38323 2.91588C5.92636 2.91588 3.08667 5.71044 3.08667 9.05198V9.59866C1.2346 10.8137 0 12.8792 0 15.2483C0 18.8933 3.02476 21.8703 6.72879 21.8703C7.53128 21.8703 8.33382 21.7488 9.0744 21.445C10.1237 22.66 11.7287 23.4498 13.5189 23.4498C15.4944 23.4498 17.2845 22.4779 18.3338 20.9591C19.0746 21.2629 19.8771 21.445 20.6794 21.445C23.8892 21.445 26.4821 18.8935 26.4821 15.7344C26.4823 13.426 25.0009 11.3605 22.9638 10.5101L22.9638 10.5096ZM7.22275 14.7621C7.65486 15.1874 8.14863 15.4305 8.76611 15.4305C9.13652 15.4305 9.44526 15.3698 9.75373 15.2484C10.0008 15.1269 10.3092 14.9445 10.6179 14.641L11.2971 15.37C10.6179 16.0991 9.8157 16.4636 8.82784 16.4636C7.84023 16.4636 7.03774 16.1598 6.42026 15.5525C5.80308 14.9451 5.43264 14.1553 5.43264 13.2441C5.43264 12.3329 5.74136 11.5431 6.42026 10.8747C7.09941 10.2673 7.90166 9.96352 8.88951 9.96352C9.87713 9.96352 10.7413 10.3281 11.3588 11.0571L10.6796 11.7862C10.3709 11.4824 10.0624 11.3002 9.8154 11.1788C9.56838 11.0574 9.19822 10.9967 8.82778 10.9967C8.21061 10.9967 7.65486 11.1788 7.22275 11.604C6.79064 12.0293 6.5436 12.5152 6.5436 13.1836C6.60553 13.851 6.79062 14.337 7.22275 14.7622V14.7621ZM17.8404 15.5519C17.2232 16.1593 16.4207 16.4631 15.4328 16.4631C14.5069 16.4631 13.7044 16.1593 13.0252 15.5519C12.3461 14.9445 12.0376 14.1547 12.0376 13.2435C12.0376 12.3323 12.3463 11.5425 13.0252 10.9351C13.6424 10.3277 14.445 10.0239 15.4328 10.0239C16.3587 10.0239 17.1612 10.3277 17.8404 10.9351C18.5195 11.5425 18.828 12.3323 18.828 13.2435C18.828 14.1547 18.5195 14.8836 17.8404 15.5519ZM21.2355 19.3791H18.5812V18.8325L19.7541 17.6781C20.0012 17.435 20.1862 17.1922 20.3096 17.0708C20.433 16.9493 20.4947 16.7669 20.4947 16.6455C20.4947 16.5241 20.433 16.3417 20.3096 16.281C20.1862 16.1595 20.0626 16.0988 19.8775 16.0988C19.5688 16.0988 19.322 16.281 19.075 16.5848L18.5812 16.281C18.7663 16.0379 18.9516 15.8557 19.1367 15.7343C19.3218 15.6129 19.6305 15.5522 19.9392 15.5522C20.2479 15.5522 20.5564 15.6736 20.8034 15.856C21.0505 16.0381 21.1738 16.3419 21.1738 16.6457C21.1738 16.8279 21.1122 17.0102 21.0505 17.1924C20.9271 17.3745 20.7417 17.6176 20.495 17.8608L19.5691 18.772H21.2975L21.2973 19.3791L21.2355 19.3791Z" fill="#30562C"/>
</svg>
