<svg width="17" height="17" viewBox="0 0 17 17" fill="none" xmlns="http://www.w3.org/2000/svg">
<path d="M1 1L16 16" stroke="#626D7D" stroke-width="0.5" stroke-linecap="round" stroke-linejoin="round"/>
<path d="M7.25004 7.39758C6.99071 7.69133 6.83337 8.07733 6.83337 8.5C6.83337 9.42042 7.57954 10.1667 8.50004 10.1667C8.92271 10.1667 9.30862 10.0093 9.60246 9.75" stroke="#626D7D" stroke-width="0.5" stroke-linecap="round" stroke-linejoin="round"/>
<path d="M4.63487 4.8009C3.23335 5.78305 2.06578 7.18232 1 8.49999C2.5738 10.9925 5.40142 13.5 8.5 13.5C9.79158 13.5 11.0362 13.0643 12.1624 12.3757" stroke="#626D7D" stroke-width="0.5" stroke-linecap="round" stroke-linejoin="round"/>
<path d="M8.5 3.5C11.8403 3.5 14.0846 6.13183 16 8.5C15.7346 8.92025 15.4336 9.341 15.1017 9.75" stroke="#626D7D" stroke-width="0.5" stroke-linecap="round" stroke-linejoin="round"/>
</svg>
