<svg width="18" height="29" viewBox="0 0 18 29" fill="none" xmlns="http://www.w3.org/2000/svg">
<path d="M16.3602 13.5938C13.9555 7.75435 9.72 0.688767 9.47244 0.274936C9.37086 0.103881 9.19217 0 8.99996 0C8.80776 0 8.62903 0.103879 8.52749 0.274936C8.28 0.688767 4.04451 7.75435 1.63977 13.5938C0.829797 15.5573 0.227949 17.3789 0.0535756 18.7654C0.0480589 18.7871 0.0451383 18.8095 0.0451383 18.8319C0.0157161 19.0622 0.000679571 19.2943 0.000139586 19.5266C-0.0123 21.8664 0.807099 24.1272 2.29876 25.869C3.79042 27.6108 5.84771 28.7091 8.06995 28.9499C10.2922 29.1908 12.5205 28.5571 14.3213 27.172C16.122 25.7869 17.366 23.7497 17.8116 21.4569C17.8176 21.4311 17.8223 21.4048 17.8256 21.3784C17.9424 20.7687 18.0009 20.1484 18 19.5266C18 18.0887 17.3278 15.941 16.3603 13.5938L16.3602 13.5938ZM2.8633 13.5938C4.80949 9.03847 7.84141 3.72189 9.00002 1.73393C10.1587 3.72168 13.1906 9.03847 15.1367 13.5938C16.1548 15.9742 16.8748 18.1491 16.8748 19.5266C16.8755 19.9873 16.8388 20.447 16.7651 20.9012C15.5636 21.5252 14.205 21.7373 12.882 21.5073C11.5589 21.2775 10.3384 20.6173 9.39393 19.6203C8.36879 18.5352 7.06308 17.7875 5.63758 17.4693C4.2121 17.151 2.72886 17.2761 1.37003 17.829C1.7547 16.3762 2.25423 14.9596 2.86344 13.5938H2.8633Z" fill="#31572C"/>
</svg>
