<svg width="13" height="33" viewBox="0 0 13 33" fill="none" xmlns="http://www.w3.org/2000/svg">
<path d="M2.98408 20.616V3.64C2.98408 2.63771 3.37923 1.72689 4.01593 1.068C4.65251 0.409456 5.53216 0 6.50007 0C7.46602 0 8.34447 0.40989 8.98105 1.068C9.62125 1.72689 10.0168 2.63849 10.0168 3.64V20.616C10.8421 21.1678 11.5401 21.9096 12.0526 22.781C12.6544 23.8006 13 24.9977 13 26.2717C13 28.1299 12.2722 29.8125 11.0966 31.0295C9.92089 32.2464 8.29541 33 6.49993 33C4.70545 33 3.079 32.2464 1.90383 31.0295C0.728122 29.8126 0 28.1301 0 26.2717C0 24.9978 0.346092 23.8006 0.946181 22.7799C1.45756 21.9101 2.15598 21.1687 2.98394 20.6161L2.98408 20.616ZM4.93982 17.1012H5.52089C6.06079 17.1012 6.49876 17.5545 6.49876 18.1134C6.49876 18.6722 6.06079 19.1255 5.52089 19.1255H4.93982V21.195C4.93709 21.5605 4.74438 21.9133 4.40909 22.0922C3.6686 22.4898 3.04513 23.0945 2.61187 23.8322C2.19608 24.5395 1.95629 25.3752 1.95629 26.2716C1.95629 27.5705 2.46527 28.7473 3.28691 29.5977C4.10866 30.4482 5.2458 30.9749 6.50004 30.9749C7.75495 30.9749 8.89187 30.4481 9.71345 29.5977C10.5352 28.7471 11.0441 27.5705 11.0441 26.2716C11.0441 25.3752 10.8043 24.5395 10.3885 23.8322C9.9679 23.1121 9.36507 22.5205 8.64601 22.1217C8.30157 21.9654 8.06055 21.6089 8.06055 21.1949V3.64003C8.06055 3.19688 7.88455 2.79275 7.60194 2.49989C7.32085 2.20657 6.92964 2.02476 6.49999 2.02476C6.07229 2.02476 5.68184 2.20692 5.39878 2.49989C5.11573 2.79287 4.93973 3.197 4.93973 3.64003V5.76199H5.5208C6.06071 5.76199 6.49867 6.21576 6.49867 6.77456C6.49867 7.33338 6.06071 7.78669 5.5208 7.78669H4.93973V9.54149H5.5208C6.06071 9.54149 6.49867 9.99526 6.49867 10.5541C6.49867 11.1124 6.06071 11.5662 5.5208 11.5662H4.93973V13.3213H5.5208C6.06071 13.3213 6.49867 13.7746 6.49867 14.3335C6.49867 14.8923 6.06071 15.346 5.5208 15.346H4.93973L4.93982 17.1012ZM2.98408 26.2716C2.98408 25.2669 3.37769 24.3565 4.01394 23.698C4.65019 23.0394 5.52931 22.632 6.50007 22.632C7.47128 22.632 8.35082 23.0394 8.98695 23.698C9.62276 24.3565 10.0168 25.2673 10.0168 26.2716C10.0168 27.2764 9.62276 28.1868 8.98695 28.8453C8.3507 29.5034 7.47117 29.9113 6.50007 29.9113C5.52931 29.9113 4.65011 29.5034 4.01394 28.8453L3.95604 28.7796C3.35388 28.1253 2.98408 27.2419 2.98408 26.2716Z" fill="#31572C"/>
</svg>
