<svg width="132" height="54" viewBox="0 0 132 54" fill="none" xmlns="http://www.w3.org/2000/svg">
<path d="M126.186 29.6816V26.6216C123.534 28.6616 120.525 29.6816 117.159 29.6816C113.079 29.6816 109.586 28.2281 106.679 25.3211C103.772 22.4142 102.318 18.9207 102.318 14.8408V0H108.132V14.8408C108.132 17.3397 108.999 19.4817 110.733 21.2667C112.518 23.0007 114.66 23.8676 117.159 23.8676C119.658 23.8676 121.775 23.0007 123.509 21.2667C125.294 19.4817 126.186 17.3397 126.186 14.8408V0H129.093C129.909 0 130.597 0.280495 131.158 0.841487C131.719 1.40248 132 2.09097 132 2.90695V29.6816H126.186Z" fill="#31572C"/>
<path d="M90.1777 38.7084V26.6216C87.5257 28.6616 84.5168 29.6816 81.1508 29.6816C77.0709 29.6816 73.5775 28.2281 70.6705 25.3211C67.7635 22.4142 66.3101 18.9207 66.3101 14.8408V0H72.124V14.8408C72.124 17.3397 72.991 19.4817 74.7249 21.2667C76.5099 23.0007 78.6519 23.8676 81.1508 23.8676C83.6498 23.8676 85.7663 23.0007 87.5002 21.2667C89.2852 19.4817 90.1777 17.3397 90.1777 14.8408V0H93.0847C93.9006 0 94.5891 0.280495 95.1501 0.841487C95.7111 1.40248 95.9916 2.09097 95.9916 2.90695V38.7084C95.9916 42.7884 94.5381 46.2818 91.6312 49.1888C88.7752 52.0957 85.2818 53.5492 81.1508 53.5492C77.0709 53.5492 73.5775 52.0957 70.6705 49.1888C67.7635 46.2818 66.3101 42.7884 66.3101 38.7084H72.124C72.124 41.1564 72.991 43.2473 74.7249 44.9813C76.5099 46.7663 78.6519 47.6588 81.1508 47.6588C83.6498 47.6588 85.7663 46.7663 87.5002 44.9813C89.2852 43.2473 90.1777 41.1564 90.1777 38.7084Z" fill="#31572C"/>
<path d="M54.1523 26.6216C51.5004 28.6616 48.4914 29.6816 45.1254 29.6816C41.0455 29.6816 37.5521 28.2281 34.6451 25.3211C31.7381 22.4142 30.2847 18.9207 30.2847 14.8408C30.2847 10.7098 31.7381 7.21639 34.6451 4.36043C37.5521 1.45348 41.0455 0 45.1254 0H57.0593C57.8753 0 58.5637 0.280495 59.1247 0.841487C59.6857 1.40248 59.9662 2.09097 59.9662 2.90695V29.6816H54.1523V26.6216ZM45.1254 5.81391C42.6265 5.81391 40.4845 6.7064 38.6995 8.49137C36.9656 10.2253 36.0986 12.3418 36.0986 14.8408C36.0986 17.3397 36.9656 19.4817 38.6995 21.2667C40.4845 23.0007 42.6265 23.8676 45.1254 23.8676C47.6244 23.8676 49.7409 23.0007 51.4749 21.2667C53.2598 19.4817 54.1523 17.3397 54.1523 14.8408V5.81391H45.1254Z" fill="#31572C"/>
<path d="M26.28 0C27.3309 0 28.056 1.0527 27.6815 2.03459L17.1357 29.6816H11.3218L0 0H5.81391L14.2288 22.0317L22.5672 0H26.28Z" fill="#31572C"/>
</svg>
