<svg width="182" height="61" viewBox="0 0 182 61" fill="none" xmlns="http://www.w3.org/2000/svg">
<path d="M1 33.3861L2.76471 34.0863C4.52941 34.7864 8.05882 36.1867 11.5882 38.8604C15.1176 41.534 18.6471 45.4811 22.1765 48.7042C25.7059 51.9274 29.2353 54.4267 32.7647 50.3261C36.2941 46.2255 39.8235 35.525 43.3529 36.5753C46.8824 37.6256 50.4118 50.4267 53.9412 56.0575C57.4706 61.6882 61 60.1486 64.5294 58.3703C68.0588 56.592 71.5882 54.575 75.1177 49.05C78.6471 43.5251 82.1765 34.4922 85.7059 30.871C89.2353 27.2498 92.7647 29.0402 96.2941 25.8639C99.8235 22.6877 103.353 14.5448 106.882 11.4039C110.412 8.26291 113.941 10.1239 117.471 14.6931C121 19.2624 124.529 26.5399 128.059 26.2941C131.588 26.0483 135.118 18.2792 138.647 17.6801C142.176 17.0811 145.706 23.6522 149.235 29.936C152.765 36.2197 156.294 42.2162 159.824 37.7885C163.353 33.3607 166.882 18.5088 170.412 10.64C173.941 2.77121 177.471 1.88561 179.235 1.4428L181 1" stroke="#31572C" stroke-width="2" stroke-linecap="round"/>
</svg>
