<svg width="37" height="37" viewBox="0 0 37 37" fill="none" xmlns="http://www.w3.org/2000/svg">
<circle cx="18.5704" cy="18.5172" r="17.9938" fill="#31572C" fill-opacity="0.3"/>
<path d="M24.316 18.375C22.5793 14.3478 19.5202 9.47501 19.3414 9.18961C19.268 9.07164 19.139 9 19.0002 9C18.8613 9 18.7323 9.07164 18.6589 9.18961C18.4802 9.47501 15.4211 14.3478 13.6843 18.375C13.0993 19.7291 12.6646 20.9854 12.5387 21.9416C12.5347 21.9566 12.5326 21.972 12.5326 21.9875C12.5114 22.1463 12.5005 22.3064 12.5001 22.4666C12.4911 24.0802 13.0829 25.6394 14.1603 26.8406C15.2376 28.0418 16.7235 28.7993 18.3285 28.9654C19.9335 29.1315 21.5429 28.6945 22.8435 27.7392C24.144 26.784 25.0425 25.379 25.3643 23.7978C25.3686 23.78 25.372 23.7619 25.3744 23.7437C25.4588 23.3232 25.501 22.8954 25.5004 22.4666C25.5004 21.4749 25.0149 19.9938 24.3161 18.375L24.316 18.375ZM14.568 18.375C15.9736 15.2334 18.1634 11.5668 19.0002 10.1958C19.8371 11.5667 22.0268 15.2334 23.4324 18.375C24.1677 20.0166 24.6877 21.5166 24.6877 22.4666C24.6882 22.7843 24.6617 23.1014 24.6085 23.4146C23.7407 23.8449 22.7594 23.9912 21.8039 23.8326C20.8484 23.6741 19.9669 23.2188 19.2847 22.5312C18.5443 21.7828 17.6013 21.2672 16.5717 21.0478C15.5422 20.8282 14.4709 20.9145 13.4895 21.2958C13.7673 20.2939 14.1281 19.3169 14.5681 18.375H14.568Z" fill="#31572C"/>
</svg>
