<svg width="21" height="21" viewBox="0 0 21 21" fill="none" xmlns="http://www.w3.org/2000/svg">
<path d="M17.5765 1.74307H16.1275V1.28098C16.1275 0.861066 15.7915 0.524902 15.3714 0.524902C14.9515 0.524902 14.6153 0.860878 14.6153 1.28098V1.76403H11.2555V1.28098C11.2555 0.861066 10.9196 0.524902 10.4995 0.524902C10.0795 0.524902 9.74337 0.860878 9.74337 1.28098V1.76403H6.36245V1.28098C6.36245 0.861066 6.02648 0.524902 5.60637 0.524902C5.18645 0.524902 4.85029 0.860878 4.85029 1.28098V1.76403H3.40129C2.0782 1.76403 0.986328 2.85607 0.986328 4.17898V18.0599C0.986328 19.383 2.07837 20.4749 3.40129 20.4749H17.5554C18.8785 20.4749 19.9703 19.3828 19.9703 18.0599V4.15766C19.9915 2.83474 18.9204 1.7427 17.5764 1.7427L17.5765 1.74307ZM3.42237 3.25503H4.87137V3.73807C4.87137 4.15798 5.20735 4.49415 5.62745 4.49415C6.04737 4.49415 6.38353 4.15817 6.38353 3.73807V3.25503H9.76462V3.73807C9.76462 4.15798 10.1006 4.49415 10.5207 4.49415C10.9406 4.49415 11.2768 4.15817 11.2768 3.73807V3.25503H14.6579V3.73807C14.6579 4.15798 14.9938 4.49415 15.4139 4.49415C15.8339 4.49415 16.17 4.15817 16.17 3.73807V3.25503H17.619C18.1231 3.25503 18.543 3.67494 18.543 4.17898V5.60698H2.49849V4.17898C2.49849 3.65411 2.91841 3.25503 3.42245 3.25503H3.42237ZM17.5765 18.9841H3.42237C2.91833 18.9841 2.49841 18.5642 2.49841 18.0601V7.0979H18.4793L18.4792 18.0601C18.5002 18.5642 18.0802 18.9841 17.5762 18.9841H17.5765Z" fill="#898989"/>
<path d="M6.71916 8.60986H4.8922C4.55623 8.60986 4.2832 8.88287 4.2832 9.21886V9.86982C4.2832 10.2058 4.55621 10.4788 4.8922 10.4788H6.71916C7.05514 10.4788 7.32816 10.2058 7.32816 9.86982V9.21886C7.32816 8.88273 7.05515 8.60986 6.71916 8.60986Z" fill="#898989"/>
<path d="M16.0859 8.60986H14.2799C13.9439 8.60986 13.6709 8.88287 13.6709 9.21886V9.86982C13.6709 10.2058 13.9439 10.4788 14.2799 10.4788H16.1069C16.4428 10.4788 16.7159 10.2058 16.7159 9.86982V9.21886C16.7159 8.88273 16.4428 8.60986 16.0859 8.60986H16.0859Z" fill="#898989"/>
<path d="M11.4028 8.60986H9.5758C9.23982 8.60986 8.9668 8.88287 8.9668 9.21886V9.86982C8.9668 10.2058 9.23981 10.4788 9.5758 10.4788H11.4028C11.7387 10.4788 12.0118 10.2058 12.0118 9.86982V9.21886C12.0118 8.88273 11.7387 8.60986 11.4028 8.60986Z" fill="#898989"/>
<path d="M6.71916 12.1382H4.8922C4.55623 12.1382 4.2832 12.4112 4.2832 12.7472V13.3981C4.2832 13.7341 4.55621 14.0071 4.8922 14.0071H6.71916C7.05514 14.0071 7.32816 13.7341 7.32816 13.3981V12.7472C7.32816 12.4112 7.05515 12.1382 6.71916 12.1382Z" fill="#898989"/>
<path d="M16.0859 12.1382H14.2799C13.9439 12.1382 13.6709 12.4112 13.6709 12.7472V13.3981C13.6709 13.7341 13.9439 14.0071 14.2799 14.0071H16.1069C16.4428 14.0071 16.7159 13.7341 16.7159 13.3981V12.7472C16.7159 12.4112 16.4428 12.1382 16.0859 12.1382H16.0859Z" fill="#898989"/>
<path d="M11.4028 12.1382H9.5758C9.23982 12.1382 8.9668 12.4112 8.9668 12.7472V13.3981C8.9668 13.7341 9.23981 14.0071 9.5758 14.0071H11.4028C11.7387 14.0071 12.0118 13.7341 12.0118 13.3981V12.7472C12.0118 12.4112 11.7387 12.1382 11.4028 12.1382Z" fill="#898989"/>
<path d="M6.71916 15.687H4.8922C4.55623 15.687 4.2832 15.96 4.2832 16.296V16.947C4.2832 17.2829 4.55621 17.556 4.8922 17.556H6.71916C7.05514 17.556 7.32816 17.283 7.32816 16.947V16.296C7.32816 15.96 7.05515 15.687 6.71916 15.687Z" fill="#898989"/>
<path d="M16.0859 15.687H14.2799C13.9439 15.687 13.6709 15.96 13.6709 16.296V16.947C13.6709 17.2829 13.9439 17.556 14.2799 17.556H16.1069C16.4428 17.556 16.7159 17.283 16.7159 16.947V16.296C16.7159 15.96 16.4428 15.687 16.0859 15.687H16.0859Z" fill="#898989"/>
<path d="M11.4028 15.687H9.5758C9.23982 15.687 8.9668 15.96 8.9668 16.296V16.947C8.9668 17.2829 9.23981 17.556 9.5758 17.556H11.4028C11.7387 17.556 12.0118 17.283 12.0118 16.947V16.296C12.0118 15.96 11.7387 15.687 11.4028 15.687Z" fill="#898989"/>
</svg>
