<svg width="31" height="31" viewBox="0 0 31 31" fill="none" xmlns="http://www.w3.org/2000/svg">
<path d="M12.8295 7.21204C11.5415 7.212 10.2611 7.74195 9.35035 8.65272C8.43959 9.56349 7.90963 10.8439 7.90967 12.1319C7.90963 13.4199 8.43959 14.7003 9.35035 15.6111C10.2611 16.5219 11.5415 17.0518 12.8295 17.0518C13.5497 17.0497 14.2686 16.8869 14.9195 16.5789C15.0221 16.5303 15.1377 16.5166 15.2487 16.5399C15.3598 16.5632 15.4602 16.6222 15.5345 16.7079L16.2815 17.5667C16.3547 17.651 16.3988 17.7566 16.4074 17.8679C16.4159 17.9792 16.3884 18.0902 16.3289 18.1847C15.9583 18.7731 15.7571 19.4668 15.7553 20.1622C15.7553 20.1624 15.7553 20.1625 15.7553 20.1628C15.7553 20.163 15.7553 20.1631 15.7553 20.1634C15.7556 21.1393 16.1573 22.1091 16.8474 22.7992C17.5377 23.4895 18.508 23.8912 19.4843 23.8912C20.4606 23.8913 21.4308 23.4895 22.1212 22.7992C22.8116 22.1089 23.2138 21.1386 23.2138 20.1622C23.2139 19.1858 22.8122 18.2152 22.1218 17.5247C21.4316 16.8346 20.4615 16.4329 19.4855 16.4327H19.4842C18.9487 16.4342 18.4141 16.5532 17.9281 16.7784C17.8259 16.8257 17.7111 16.8385 17.6009 16.815C17.4907 16.7914 17.3912 16.7326 17.3173 16.6475L16.6615 15.8929C16.5813 15.8006 16.5363 15.683 16.5342 15.5608C16.5322 15.4386 16.5732 15.3195 16.6502 15.2246C17.3531 14.3582 17.748 13.247 17.7494 12.1313C17.7493 10.8435 17.2193 9.56337 16.3087 8.65275C15.3979 7.74198 14.1176 7.212 12.8295 7.21204Z" fill="#31572C"/>
</svg>
