<svg width="37" height="36" viewBox="0 0 37 36" fill="none" xmlns="http://www.w3.org/2000/svg">
<circle cx="18.9401" cy="17.9938" r="17.9938" fill="#31572C" fill-opacity="0.3"/>
<path d="M28.5473 11.5799L20.3472 7.33181C19.5036 6.8894 18.4962 6.8894 17.6529 7.33181L9.45269 11.5799C8.56234 12.0445 8 12.9295 8 13.903V22.222C8 23.1955 8.56234 24.0805 9.45251 24.5452L17.6527 28.7933C18.0743 29.0146 18.543 29.1252 19.0115 29.1252C19.48 29.1252 19.9487 29.0146 20.347 28.7933L28.5471 24.5452C29.4375 24.0805 29.9996 23.1957 29.9996 22.222L30 13.903C30 12.9295 29.4377 12.0445 28.5473 11.5799ZM29.0628 22.2221C29.0628 22.8637 28.7114 23.4611 28.1023 23.7708L19.9021 28.0188C19.3397 28.3064 18.6603 28.3064 18.098 28.0188L9.8978 23.7707C9.31203 23.4609 8.93721 22.8635 8.93721 22.2219V13.9029C8.93721 13.2613 9.28863 12.6639 9.8978 12.3541L18.098 8.1062C18.4026 7.95124 18.7071 7.8849 19.0117 7.8849C19.3164 7.8849 19.6209 7.95124 19.9021 8.1062L28.0789 12.3543C28.6881 12.664 29.0629 13.2614 29.0629 13.9031V22.2221H29.0628Z" fill="#30562C"/>
<path d="M20.4404 15.939C20.1827 15.939 19.9719 16.1382 19.9719 16.3814V17.5983H18.0507V16.3814C18.0507 16.138 17.8398 15.939 17.5823 15.939C17.3245 15.939 17.1138 16.1382 17.1138 16.3814V19.6781C17.1138 19.9215 17.3247 20.1205 17.5823 20.1205C17.84 20.1205 18.0507 19.9213 18.0507 19.6781V18.4833H19.9719V19.6781C19.9719 19.9215 20.1829 20.1205 20.4404 20.1205C20.6982 20.1205 20.9089 19.9213 20.9089 19.6781L20.9091 16.3816C20.9091 16.1381 20.6982 15.939 20.4404 15.939Z" fill="#30562C"/>
<path d="M24.9157 18.1735H24.6111V15.9831C24.6111 15.7397 24.4002 15.5406 24.1426 15.5406C23.8849 15.5406 23.6742 15.7398 23.6742 15.9831V18.1735H22.737L23.2525 17.2C23.3696 16.9787 23.2759 16.7132 23.0416 16.6026C22.8073 16.4921 22.5261 16.5805 22.409 16.8018L21.5421 18.4169C21.425 18.6382 21.5187 18.9037 21.753 19.0143H21.7764C21.8233 19.0364 21.8935 19.0585 21.964 19.0585H23.6742L23.674 19.833C23.674 20.0764 23.885 20.2754 24.1425 20.2754C24.4003 20.2754 24.611 20.0762 24.611 19.833V19.0585H24.9156C25.1968 19.0585 25.3841 18.8593 25.3841 18.6161C25.3845 18.3727 25.1735 18.1735 24.9158 18.1735L24.9157 18.1735Z" fill="#30562C"/>
<path d="M15.7086 18.8592C15.4509 19.1026 15.1229 19.2574 14.748 19.2574C14.0452 19.2574 13.4594 18.7043 13.4594 18.0405C13.4594 17.3768 14.0452 16.8237 14.748 16.8237C15.0526 16.8237 15.3338 16.9342 15.5681 17.1113C15.7557 17.2662 16.0602 17.2219 16.2242 17.0449C16.3882 16.8679 16.3412 16.5802 16.1539 16.4254C15.7557 16.1157 15.2401 15.9386 14.7248 15.9386C13.5065 15.9386 12.499 16.89 12.499 18.0405C12.499 19.1911 13.5065 20.1425 14.7248 20.1425C15.334 20.1425 15.9432 19.877 16.3883 19.4566C16.5758 19.2796 16.5524 18.9919 16.3649 18.8371C16.1772 18.6601 15.8726 18.6822 15.7087 18.8593L15.7086 18.8592Z" fill="#30562C"/>
</svg>
