<svg width="42" height="42" viewBox="0 0 42 42" fill="none" xmlns="http://www.w3.org/2000/svg">
<g clip-path="url(#clip0_12_233)">
<path d="M20.8581 41.3568C32.1379 41.3568 41.2821 32.2127 41.2821 20.9328C41.2821 9.65293 32.1379 0.508789 20.8581 0.508789C9.57822 0.508789 0.434082 9.65293 0.434082 20.9328C0.434082 32.2127 9.57822 41.3568 20.8581 41.3568Z" fill="#91A955" fill-opacity="0.1"/>
<ellipse cx="21" cy="20.5" rx="15" ry="14.5" fill="#4F772D"/>
<path fill-rule="evenodd" clip-rule="evenodd" d="M21 2C31.4858 2 40 10.5142 40 21C40 31.4858 31.4858 40 21 40C10.5142 40 2 31.4858 2 21C2 10.5142 10.5142 2 21 2ZM19.0065 20.9319L12.2643 27.6741C11.733 28.2055 11.733 29.0684 12.2643 29.5997C12.7957 30.1311 13.6586 30.1311 14.19 29.5997L20.9322 22.8575L27.6743 29.5997C28.2057 30.1311 29.0686 30.1311 29.6 29.5997C30.1313 29.0683 30.1313 28.2054 29.6 27.6741L22.8578 20.9319L29.6 14.1897C30.1313 13.6583 30.1313 12.7954 29.6 12.2641C29.0686 11.7327 28.2057 11.7327 27.6743 12.2641L20.9322 19.0063L14.19 12.2641C13.6586 11.7327 12.7957 11.7327 12.2643 12.2641C11.733 12.7955 11.733 13.6584 12.2643 14.1897L19.0065 20.9319Z" fill="#2A2C24"/>
</g>
<defs>
<clipPath id="clip0_12_233">
<rect width="42" height="42" fill="white"/>
</clipPath>
</defs>
</svg>
