<svg width="37" height="37" viewBox="0 0 37 37" fill="none" xmlns="http://www.w3.org/2000/svg">
<circle cx="18.5704" cy="18.5511" r="17.9938" fill="#31572C" fill-opacity="0.3"/>
<path d="M15.8295 10.212C14.5415 10.212 13.2611 10.742 12.3504 11.6527C11.4396 12.5635 10.9096 13.8439 10.9097 15.1319C10.9096 16.4199 11.4396 17.7003 12.3504 18.6111C13.2611 19.5219 14.5415 20.0518 15.8295 20.0518C16.5497 20.0497 17.2686 19.8869 17.9195 19.5789C18.0221 19.5303 18.1377 19.5166 18.2487 19.5399C18.3598 19.5632 18.4602 19.6222 18.5345 19.7079L19.2815 20.5667C19.3547 20.651 19.3988 20.7566 19.4074 20.8679C19.4159 20.9792 19.3884 21.0902 19.3289 21.1847C18.9583 21.7731 18.7571 22.4668 18.7553 23.1622C18.7553 23.1624 18.7553 23.1625 18.7553 23.1628C18.7553 23.163 18.7553 23.1631 18.7553 23.1634C18.7556 24.1393 19.1573 25.1091 19.8474 25.7992C20.5377 26.4895 21.508 26.8912 22.4843 26.8912C23.4606 26.8913 24.4308 26.4895 25.1212 25.7992C25.8116 25.1089 26.2138 24.1386 26.2138 23.1622C26.2139 22.1858 25.8122 21.2152 25.1218 20.5247C24.4316 19.8346 23.4615 19.4329 22.4855 19.4327H22.4842C21.9487 19.4342 21.4141 19.5532 20.9281 19.7784C20.8259 19.8257 20.7111 19.8385 20.6009 19.815C20.4907 19.7914 20.3912 19.7326 20.3173 19.6475L19.6615 18.8929C19.5813 18.8006 19.5363 18.683 19.5342 18.5608C19.5322 18.4386 19.5732 18.3195 19.6502 18.2246C20.3531 17.3582 20.748 16.247 20.7494 15.1313C20.7493 13.8435 20.2193 12.5634 19.3087 11.6527C18.3979 10.742 17.1176 10.212 15.8295 10.212Z" fill="#31572C"/>
</svg>
