<svg width="36" height="36" viewBox="0 0 36 36" fill="none" xmlns="http://www.w3.org/2000/svg">
<circle cx="17.9938" cy="17.9938" r="17.9938" fill="#31572C" fill-opacity="0.3"/>
<path d="M26.7689 14.7361C26.5501 12.9278 25.0189 11.55 23.1377 11.55C22.569 11.55 22.0439 11.6791 21.6065 11.8944C20.9065 10.7319 19.6815 10 18.1941 10C16.8379 10 15.6566 10.6888 14.9565 11.6792C16.4003 11.7653 17.7565 12.5403 18.5878 13.7029C19.1128 13.5306 19.6377 13.4445 20.1627 13.4445C22.3939 13.4445 24.2752 15.0375 24.6688 17.1904C26.2 17.9222 27.2062 19.4723 27.2062 21.1944C28.3001 20.5917 29 19.4292 29 18.0945C29.0001 16.5874 28.0814 15.2958 26.7688 14.7361L26.7689 14.7361Z" fill="#30562C"/>
<path d="M18.9372 17.7499C18.4998 17.7499 18.1059 17.9222 17.7997 18.2236C17.4934 18.525 17.3184 18.9124 17.3184 19.3861C17.3184 19.8165 17.4934 20.2041 17.7997 20.5485C18.1059 20.8499 18.4996 21.0222 18.9372 21.0222C19.3746 21.0222 19.7685 20.8499 20.0747 20.5485C20.381 20.2471 20.5561 19.8597 20.5561 19.3861C20.5561 18.9556 20.381 18.568 20.0747 18.2236C19.7685 17.8792 19.4185 17.7499 18.9372 17.7499Z" fill="#30562C"/>
<path d="M24.2751 17.4484C24.0563 15.4248 22.3064 13.8318 20.2065 13.8318C19.594 13.8318 18.9815 13.9609 18.4564 14.2192C17.6689 12.9276 16.269 12.0665 14.6501 12.0665C12.2002 12.0665 10.1876 14.0471 10.1876 16.4153V16.8028C8.87499 17.6639 8 19.1278 8 20.8068C8 23.3902 10.1437 25.5 12.7689 25.5C13.3376 25.5 13.9064 25.4139 14.4313 25.1986C15.1749 26.0597 16.3125 26.6195 17.5812 26.6195C18.9813 26.6195 20.25 25.9306 20.9936 24.8542C21.5186 25.0695 22.0874 25.1986 22.656 25.1986C24.9309 25.1986 26.7685 23.3903 26.7685 21.1514C26.7687 19.5154 25.7188 18.0514 24.275 17.4487L24.2751 17.4484ZM13.1189 20.4623C13.4252 20.7637 13.7751 20.936 14.2128 20.936C14.4753 20.936 14.6941 20.8929 14.9127 20.8069C15.0878 20.7208 15.3064 20.5916 15.5252 20.3764L16.0065 20.8931C15.5252 21.4098 14.9566 21.6682 14.2565 21.6682C13.5566 21.6682 12.9878 21.4529 12.5502 21.0224C12.1128 20.5919 11.8503 20.0322 11.8503 19.3864C11.8503 18.7406 12.0691 18.1808 12.5502 17.7072C13.0315 17.2767 13.6001 17.0614 14.3002 17.0614C15.0002 17.0614 15.6127 17.3197 16.0503 17.8365L15.5689 18.3532C15.3501 18.1378 15.1315 18.0087 14.9564 17.9227C14.7814 17.8366 14.519 17.7936 14.2565 17.7936C13.8191 17.7936 13.4252 17.9227 13.1189 18.2241C12.8127 18.5254 12.6376 18.8698 12.6376 19.3435C12.6815 19.8166 12.8127 20.1609 13.1189 20.4623V20.4623ZM20.644 21.022C20.2065 21.4525 19.6378 21.6678 18.9376 21.6678C18.2814 21.6678 17.7126 21.4525 17.2313 21.022C16.75 20.5915 16.5314 20.0318 16.5314 19.386C16.5314 18.7402 16.7502 18.1804 17.2313 17.75C17.6687 17.3195 18.2375 17.1042 18.9376 17.1042C19.5938 17.1042 20.1626 17.3195 20.644 17.75C21.1253 18.1804 21.3439 18.7402 21.3439 19.386C21.3439 20.0318 21.1253 20.5483 20.644 21.022ZM23.0502 23.7345H21.169V23.347L22.0003 22.5289C22.1753 22.3566 22.3065 22.1845 22.394 22.0985C22.4814 22.0124 22.5251 21.8831 22.5251 21.7971C22.5251 21.711 22.4814 21.5818 22.394 21.5387C22.3065 21.4527 22.2189 21.4096 22.0877 21.4096C21.8689 21.4096 21.694 21.5387 21.519 21.754L21.169 21.5387C21.3002 21.3664 21.4315 21.2373 21.5627 21.1513C21.6939 21.0652 21.9127 21.0222 22.1314 21.0222C22.3502 21.0222 22.5689 21.1082 22.7439 21.2375C22.919 21.3666 23.0065 21.5819 23.0065 21.7972C23.0065 21.9263 22.9627 22.0556 22.919 22.1847C22.8316 22.3138 22.7002 22.4861 22.5253 22.6584L21.8691 23.3041H23.0941L23.0939 23.7344L23.0502 23.7345Z" fill="#30562C"/>
</svg>
