<svg width="52" height="52" viewBox="0 0 52 52" fill="none" xmlns="http://www.w3.org/2000/svg">
<rect width="52" height="52" rx="26" fill="#132A13"/>
<path d="M36.954 17.0764C36.8521 16.8549 36.6303 16.7129 36.3862 16.7129H17.0773C16.8333 16.7129 16.6118 16.8547 16.5095 17.0764C16.4075 17.2979 16.4435 17.5584 16.602 17.7439L24.1739 26.6085V36.4291C24.1739 36.6873 24.3327 36.9188 24.5736 37.0121C24.6469 37.0403 24.7234 37.0541 24.7989 37.0541C24.9717 37.0541 25.1406 36.9823 25.2616 36.8496L29.1277 32.5956C29.2324 32.4806 29.2902 32.3306 29.2902 32.1751V26.6082L36.8621 17.7437C37.0203 17.5582 37.0565 17.2975 36.9543 17.0762L36.954 17.0764Z" fill="white"/>
</svg>
