<svg width="37" height="37" viewBox="0 0 37 37" fill="none" xmlns="http://www.w3.org/2000/svg">
<circle cx="18.6241" cy="18.5858" r="17.9938" fill="#31572C" fill-opacity="0.3"/>
<path d="M19.4984 22.7061C19.4984 23.7792 18.8888 24.5576 18.0761 24.5576C17.2634 24.5576 16.6539 23.7484 16.6539 22.7061C16.6539 21.8001 17.0862 20.8545 18.0934 20.8545C19.1007 20.8545 19.4984 21.8792 19.4984 22.7061ZM25.6543 25.169C25.2968 25.3772 24.9148 25.5383 24.5173 25.6484C24.1737 26.8837 23.444 27.9717 22.4387 28.7477C21.4333 29.5237 20.207 29.9456 18.945 29.9497C18.4311 29.9493 17.9194 29.8798 17.4233 29.7429C16.6866 29.5446 15.9958 29.1995 15.3911 28.7276C14.7863 28.2558 14.2796 27.6666 13.9001 26.9942C13.7851 26.7897 13.6826 26.5782 13.5932 26.3608C12.9704 26.4856 12.3287 26.4755 11.71 26.3311C11.0913 26.1867 10.5095 25.9113 10.0024 25.5228C9.49534 25.1342 9.07446 24.6414 8.76718 24.0763C8.45991 23.5112 8.27314 22.8865 8.21906 22.2431C8.16498 21.5996 8.2448 20.9518 8.45331 20.3418C8.66183 19.7319 8.99435 19.1734 9.42922 18.703C9.86408 18.2325 10.3915 17.8606 10.9771 17.6114C11.5628 17.3622 12.1934 17.2414 12.828 17.2569C13.4215 17.3168 13.9907 17.527 14.4837 17.8682C14.5311 17.9011 14.5845 17.9241 14.6407 17.9358C14.6969 17.9475 14.7548 17.9478 14.8111 17.9365C14.8674 17.9252 14.9209 17.9026 14.9685 17.87C15.0162 17.8375 15.0569 17.7956 15.0885 17.7469C15.1201 17.6981 15.1418 17.6435 15.1524 17.5861C15.1629 17.5288 15.1622 17.4698 15.1502 17.4128C15.1381 17.3557 15.1151 17.3016 15.0823 17.2537C15.0495 17.2058 15.0077 17.165 14.9593 17.1337C14.6587 16.9304 14.335 16.765 13.9952 16.6411C14.2183 16.11 14.5637 15.6413 15.0024 15.2746C15.4411 14.908 15.9601 14.6542 16.5156 14.5347C17.071 14.4152 17.6466 14.4335 18.1936 14.5881C18.7406 14.7427 19.243 15.029 19.6583 15.4229C19.8973 15.6539 20.1039 15.9173 20.2722 16.2057C20.1709 16.9248 20.1709 17.6549 20.2722 18.374C20.2933 18.474 20.348 18.5634 20.4269 18.6268C20.5058 18.6902 20.6039 18.7237 20.7045 18.7214H20.7953C20.8974 18.6984 20.9879 18.6384 21.0499 18.5527C21.1119 18.467 21.1412 18.3613 21.1325 18.2552C21.0325 17.536 21.0325 16.8061 21.1325 16.087C21.2665 14.7676 22.7492 14.3937 23.7046 14.3761C23.7888 14.3444 23.8579 14.2814 23.8982 14.1998C23.9385 14.1183 23.9469 14.0242 23.9216 13.9366C23.8964 13.849 23.8394 13.7743 23.7623 13.7278C23.6851 13.6812 23.5934 13.6661 23.5058 13.6856C23.0601 13.8045 22.6084 13.8985 22.1527 13.9671C22.4034 13.215 22.8616 12.762 23.4496 12.7181C24.0674 12.7501 24.6651 12.9523 25.1787 13.303C25.237 13.3375 25.2845 13.388 25.3158 13.4486C25.3472 13.5093 25.3611 13.5777 25.356 13.6461C25.3053 13.9923 25.1653 14.3188 24.9505 14.5922C24.7356 14.8657 24.4534 15.0764 24.1326 15.203C23.9741 15.269 23.8063 15.3091 23.6354 15.3217C23.5007 15.3302 23.3654 15.3199 23.2334 15.2909C22.7363 15.3745 22.1051 15.5856 22.0057 16.1046C23.0334 15.8277 24.1221 15.9029 25.1036 16.3187C26.085 16.7345 26.9045 17.4676 27.4353 18.4048C27.4783 18.4773 27.5173 18.5521 27.552 18.6291C28.1238 19.7546 28.2455 21.0616 27.8918 22.2764C27.5381 23.4912 26.7363 24.5198 25.6543 25.147V25.169ZM15.7374 19.3987C15.7784 19.4639 15.8355 19.5169 15.9031 19.5524C15.9706 19.5879 16.0462 19.6047 16.1221 19.601C16.1976 19.5968 16.2706 19.5725 16.334 19.5307C16.4301 19.4676 16.4978 19.3682 16.5221 19.2545C16.5464 19.1407 16.5254 19.0218 16.4637 18.9237C16.3344 18.7234 16.1898 18.5337 16.0314 18.3564C15.9946 18.3098 15.949 18.2713 15.8972 18.2433C15.8454 18.2153 15.7885 18.1983 15.73 18.1933C15.6715 18.1884 15.6127 18.1956 15.557 18.2146C15.5014 18.2335 15.4501 18.2638 15.4063 18.3035C15.3626 18.3433 15.3272 18.3917 15.3024 18.4458C15.2776 18.4999 15.2639 18.5586 15.2621 18.6183C15.2603 18.6779 15.2705 18.7373 15.292 18.7929C15.3135 18.8484 15.3459 18.8989 15.3872 18.9413C15.5155 19.0843 15.6326 19.2372 15.7374 19.3987ZM20.3673 22.6533C20.3673 21.1975 19.4595 20.2036 18.115 20.2036C16.7706 20.2036 15.7936 21.1403 15.7936 22.7324C15.7936 24.2366 16.7706 25.1822 18.0372 25.1822C19.1698 25.1822 20.3673 24.4169 20.3673 22.6533ZM23.2118 24.8523C23.2152 24.6652 23.1678 24.4808 23.0747 24.3193C22.9817 24.1579 22.8466 24.0258 22.6844 23.9375C22.8094 23.8488 22.9111 23.7303 22.9804 23.5922C23.0498 23.4542 23.0847 23.3009 23.0821 23.1459C23.0765 23.0065 23.0427 22.8699 22.9827 22.7445C22.9227 22.6191 22.8379 22.5077 22.7335 22.4172C22.6292 22.3268 22.5076 22.2592 22.3764 22.2189C22.2452 22.1785 22.1072 22.1662 21.9711 22.1827C21.713 22.1837 21.458 22.2406 21.2232 22.3498C21.0244 22.4422 20.7045 22.6005 20.7045 22.86C20.7044 22.9099 20.7151 22.9592 20.7357 23.0045C20.7563 23.0498 20.7864 23.09 20.8239 23.1223C20.8613 23.1545 20.9052 23.178 20.9526 23.1912C20.9999 23.2044 21.0495 23.207 21.0979 23.1986C21.0979 23.1986 21.327 23.0579 21.4394 23.0007C21.5733 22.9303 21.721 22.8912 21.8717 22.8864C22.1527 22.8864 22.304 23.0095 22.304 23.2382C22.2926 23.3342 22.2504 23.4237 22.184 23.4929C22.1176 23.5621 22.0306 23.607 21.9365 23.6208C21.6988 23.6824 21.448 23.6208 21.2103 23.6604C21.1404 23.6719 21.0759 23.7053 21.0258 23.7561C20.9757 23.8069 20.9426 23.8725 20.9311 23.9435C20.9196 24.0145 20.9304 24.0874 20.9619 24.1518C20.9934 24.2162 21.044 24.269 21.1065 24.3025C21.2466 24.3455 21.3943 24.356 21.5388 24.3333C21.7128 24.323 21.8872 24.3453 22.0532 24.3993C22.1454 24.4306 22.2264 24.4892 22.2857 24.5675C22.345 24.6459 22.3799 24.7404 22.3861 24.8391C22.3861 25.1734 22.0965 25.3361 21.8025 25.3361C21.5609 25.3234 21.3249 25.2573 21.1108 25.1426C21.0412 25.1034 20.965 25.078 20.886 25.0678C20.814 25.0681 20.7439 25.0916 20.6857 25.1349C20.6276 25.1782 20.5844 25.2391 20.5623 25.3089C20.5402 25.3786 20.5404 25.4537 20.5629 25.5234C20.5853 25.5931 20.6288 25.6538 20.6872 25.6967C21.5388 26.2949 23.2118 26.1629 23.2118 24.8655V24.8523ZM20.5575 12.8852C20.6894 12.4251 20.8737 11.9823 21.1065 11.5658L21.301 11.2183C21.3408 11.1476 21.403 11.0927 21.4774 11.0625C21.5518 11.0323 21.6341 11.0286 21.7108 11.0521C21.7875 11.0756 21.8541 11.1248 21.8998 11.1917C21.9455 11.2586 21.9676 11.3393 21.9625 11.4206L21.7852 11.7373C21.3248 12.5575 21.0612 13.4767 21.0157 14.4201L21.7463 14.209C21.7791 13.8205 21.8545 13.437 21.9711 13.0655C22.3382 12.9403 22.6718 12.7302 22.9456 12.4517C23.2194 12.1731 23.4259 11.8337 23.549 11.4602C23.9813 10.3167 23.8991 9.0193 23.3415 8.31121C23.2927 8.24535 23.2231 8.1985 23.1444 8.17849C23.0658 8.15848 22.9827 8.16652 22.9092 8.20126C22.0446 8.5663 21.0849 9.03689 20.5272 9.79336C19.9696 10.5498 19.9436 11.6713 20.5272 12.872L20.5575 12.8852Z" fill="#31572C"/>
</svg>
