<svg width="37" height="37" viewBox="0 0 37 37" fill="none" xmlns="http://www.w3.org/2000/svg">
<circle cx="18.6241" cy="18.5511" r="17.9938" fill="#31572C" fill-opacity="0.3"/>
<path d="M16.8071 8.13396C16.0693 8.13396 15.4641 8.7737 15.4641 9.55457C15.4641 10.076 15.7369 10.5302 16.1359 10.7775V16.6805C16.1296 16.6911 16.1216 16.7011 16.115 16.7117C16.1142 16.7127 16.1133 16.7136 16.1125 16.7145L13.7358 20.6108C13.7355 20.6112 13.7354 20.6119 13.7351 20.6122L13.7313 20.6177C13.7282 20.622 13.7253 20.6264 13.7224 20.6308L11.3706 24.5507C10.915 25.3102 10.9705 26.2014 11.3744 26.8696C11.7785 27.5377 12.5224 28.0018 13.4116 28.0051L18.1441 28.0217C18.1491 28.0218 18.1555 28.0218 18.1611 28.0217L22.8935 28.0051C23.7827 28.0017 24.5266 27.5377 24.9307 26.8696C25.3347 26.2014 25.3903 25.3102 24.9345 24.5507L22.5827 20.6308C22.5798 20.6264 22.5769 20.622 22.5738 20.6177L22.5713 20.6128C22.5702 20.6112 22.57 20.61 22.5687 20.6087L20.1933 16.7145C20.1925 16.7133 20.1916 16.7122 20.1908 16.711C20.1844 16.7008 20.1771 16.6913 20.1705 16.6812V10.7726C20.5648 10.5241 20.8332 10.0724 20.8332 9.55452C20.8332 8.77365 20.2287 8.13391 19.4908 8.13391L16.8071 8.13396ZM19.5011 10.9752V16.7943C19.5011 16.8729 19.5258 16.9492 19.5712 17.0114C19.5933 17.0415 19.6145 17.0723 19.6342 17.1037L22.0122 21.0034C22.0158 21.0095 22.0196 21.0156 22.0236 21.0214C22.0261 21.0249 22.0274 21.0272 22.0287 21.0291L24.3693 24.9309C24.6892 25.4642 24.6453 26.025 24.3655 26.4868C24.0863 26.9486 23.563 27.2924 22.8914 27.2949L18.1589 27.3116C18.1551 27.3116 18.1513 27.3116 18.1475 27.3116L13.4151 27.2949C12.7436 27.2924 12.2202 26.9486 11.9409 26.4868C11.6617 26.025 11.6178 25.4642 11.9371 24.9309L14.2817 21.0235L14.2824 21.0222C14.2868 21.0161 14.291 21.0099 14.295 21.0035L16.6737 17.103L16.6763 17.1002C16.6954 17.0697 16.7159 17.0395 16.7373 17.0101C16.7824 16.948 16.8068 16.8719 16.8068 16.7936V10.9759H19.4923C19.4948 10.9759 19.4973 10.9752 19.5011 10.9752ZM15.8102 19.1728L14.5825 21.1844V21.1873L14.5774 21.1949C14.5774 21.1958 14.5774 21.1968 14.5774 21.1977C14.5749 21.2031 14.5711 21.2085 14.5673 21.2137L14.5522 21.2373L12.2213 25.1225C11.966 25.5482 12.0026 25.928 12.2239 26.294C12.4413 26.6536 12.8536 26.937 13.4175 26.9392L18.1493 26.9579C18.1531 26.9579 18.1556 26.9579 18.1594 26.9579L22.8912 26.9392C23.4552 26.937 23.8654 26.6536 24.0829 26.294C24.3043 25.928 24.3409 25.5482 24.0854 25.1225L21.7565 21.2345L21.754 21.2317C21.7464 21.2199 21.7373 21.2099 21.7298 21.1977C21.7298 21.1968 21.7298 21.1958 21.7298 21.1949L21.3365 20.5505C19.7741 20.4893 18.8738 20.1534 18.1077 19.8291C17.4068 19.5324 16.819 19.259 15.8102 19.1728ZM20.129 21.2642C20.1722 21.2642 20.215 21.2732 20.255 21.2907C20.2949 21.3082 20.3312 21.3338 20.3618 21.3661C20.3923 21.3985 20.4166 21.4369 20.4331 21.4791C20.4496 21.5214 20.4581 21.5667 20.4581 21.6124C20.458 21.7047 20.4232 21.7931 20.3615 21.8583C20.2998 21.9234 20.2162 21.96 20.129 21.96C20.0419 21.96 19.9582 21.9234 19.8965 21.8583C19.8348 21.7931 19.8001 21.7047 19.8 21.6124C19.8 21.5667 19.8085 21.5214 19.825 21.4791C19.8415 21.4369 19.8658 21.3985 19.8963 21.3661C19.9269 21.3338 19.9632 21.3082 20.0031 21.2907C20.043 21.2732 20.0858 21.2642 20.129 21.2642ZM18.5618 22.0862C18.6805 22.0862 18.7944 22.1362 18.8783 22.225C18.9623 22.3138 19.0095 22.4343 19.0095 22.56C19.0095 22.6856 18.9623 22.8061 18.8783 22.8949C18.7944 22.9838 18.6805 23.0337 18.5618 23.0337C18.4431 23.0337 18.3292 22.9838 18.2453 22.8949C18.1613 22.8061 18.1142 22.6856 18.1141 22.56C18.1142 22.4343 18.1613 22.3138 18.2453 22.225C18.3292 22.1362 18.4431 22.0862 18.5618 22.0862ZM19.6813 23.271C19.7696 23.2709 19.857 23.2893 19.9385 23.325C20.02 23.3608 20.0941 23.4131 20.1565 23.4792C20.2189 23.5452 20.2683 23.6236 20.3021 23.7099C20.3359 23.7961 20.3532 23.8886 20.3532 23.982C20.3531 24.1704 20.2822 24.3511 20.1562 24.4843C20.0302 24.6175 19.8594 24.6923 19.6813 24.6923C19.5033 24.6923 19.3325 24.6175 19.2065 24.4843C19.0805 24.3511 19.0096 24.1704 19.0095 23.982C19.0095 23.8886 19.0268 23.7961 19.0606 23.7099C19.0944 23.6236 19.1438 23.5452 19.2062 23.4792C19.2686 23.4131 19.3427 23.3608 19.4242 23.325C19.5057 23.2893 19.5931 23.2709 19.6813 23.271Z" fill="#31572C"/>
</svg>
