<svg width="20" height="20" viewBox="0 0 20 20" fill="none" xmlns="http://www.w3.org/2000/svg">
<g id="Spinner-Round/Spinner-Round-50">
<path id="Ellipse 26" d="M12.8797 2.53624C13.8598 2.91439 14.7559 3.48189 15.5167 4.20635C16.2776 4.9308 16.8883 5.79802 17.314 6.75849C17.7396 7.71896 17.972 8.75387 17.9977 9.80413C18.0234 10.8544 17.842 11.8994 17.4639 12.8796C17.0857 13.8598 16.5182 14.7558 15.7938 15.5167C15.0693 16.2775 14.2021 16.8882 13.2416 17.3139C12.2812 17.7396 11.2462 17.9719 10.196 17.9976C9.14572 18.0233 8.10068 17.842 7.12052 17.4638C6.14036 17.0857 5.24428 16.5181 4.48345 15.7937C3.72261 15.0692 3.11192 14.202 2.68624 13.2415C2.26055 12.2811 2.02822 11.2462 2.00249 10.1959C1.97677 9.14565 2.15816 8.1006 2.53631 7.12044C2.91446 6.14029 3.48197 5.24421 4.20642 4.48337C4.93088 3.72254 5.7981 3.11184 6.75857 2.68616C7.71904 2.26048 8.75395 2.02814 9.80421 2.00242C10.8545 1.97669 11.8995 2.15809 12.8797 2.53624L12.8797 2.53624Z" stroke="#D9D9D9" stroke-width="2.66667"/>
<path id="Ellipse 27" d="M12.8797 2.53624C13.8598 2.91439 14.7559 3.48189 15.5167 4.20635C16.2776 4.9308 16.8883 5.79802 17.314 6.75849C17.7396 7.71896 17.972 8.75387 17.9977 9.80413C18.0234 10.8544 17.842 11.8994 17.4639 12.8796C17.0857 13.8598 16.5182 14.7558 15.7938 15.5167C15.0693 16.2775 14.2021 16.8882 13.2416 17.3139C12.2812 17.7396 11.2462 17.9719 10.196 17.9976C9.14572 18.0233 8.10068 17.842 7.12052 17.4638" stroke="#4F772D" stroke-width="2.66667" stroke-linecap="round"/>
</g>
</svg>
