<svg width="37" height="37" viewBox="0 0 37 37" fill="none" xmlns="http://www.w3.org/2000/svg">
<circle cx="18.6241" cy="18.5172" r="17.9938" fill="#31572C" fill-opacity="0.3"/>
<path d="M16.4856 21.844V10.115C16.4856 9.42254 16.7681 8.79324 17.2235 8.338C17.6787 7.883 18.3078 7.6001 18.9999 7.6001C19.6907 7.6001 20.3189 7.8833 20.7742 8.338C21.232 8.79324 21.5149 9.42308 21.5149 10.115V21.844C22.105 22.2253 22.6042 22.7378 22.9707 23.3399C23.401 24.0444 23.6482 24.8715 23.6482 25.7517C23.6482 27.0355 23.1278 28.1981 22.287 29.0389C21.4463 29.8797 20.2838 30.4004 18.9998 30.4004C17.7166 30.4004 16.5534 29.8797 15.713 29.0389C14.8723 28.1981 14.3516 27.0357 14.3516 25.7517C14.3516 24.8715 14.5991 24.0444 15.0282 23.3391C15.3939 22.7382 15.8934 22.2259 16.4855 21.8441L16.4856 21.844ZM17.8842 19.4156H18.2997C18.6858 19.4156 18.999 19.7288 18.999 20.1149C18.999 20.501 18.6858 20.8142 18.2997 20.8142H17.8842V22.2441C17.8822 22.4967 17.7444 22.7404 17.5046 22.864C16.9751 23.1387 16.5292 23.5565 16.2194 24.0662C15.922 24.5549 15.7506 25.1323 15.7506 25.7516C15.7506 26.6491 16.1145 27.4621 16.7021 28.0496C17.2898 28.6373 18.103 29.0012 18.9999 29.0012C19.8973 29.0012 20.7104 28.6372 21.2979 28.0496C21.8856 27.462 22.2495 26.649 22.2495 25.7516C22.2495 25.1323 22.078 24.5548 21.7807 24.0662C21.4799 23.5687 21.0488 23.1599 20.5346 22.8844C20.2882 22.7764 20.1159 22.5301 20.1159 22.2441V10.1151C20.1159 9.80888 19.99 9.52966 19.7879 9.32732C19.5869 9.12466 19.3071 8.99904 18.9999 8.99904C18.694 8.99904 18.4148 9.1249 18.2124 9.32732C18.01 9.52974 17.8841 9.80896 17.8841 10.1151V11.5812H18.2996C18.6857 11.5812 18.9989 11.8947 18.9989 12.2808C18.9989 12.6669 18.6857 12.9801 18.2996 12.9801H17.8841V14.1925H18.2996C18.6857 14.1925 18.9989 14.506 18.9989 14.8921C18.9989 15.2779 18.6857 15.5914 18.2996 15.5914H17.8841V16.804H18.2996C18.6857 16.804 18.9989 17.1172 18.9989 17.5033C18.9989 17.8894 18.6857 18.2029 18.2996 18.2029H17.8841L17.8842 19.4156ZM16.4856 25.7516C16.4856 25.0574 16.767 24.4284 17.222 23.9734C17.677 23.5184 18.3057 23.237 18.9999 23.237C19.6945 23.237 20.3235 23.5184 20.7784 23.9734C21.2331 24.4284 21.5149 25.0577 21.5149 25.7516C21.5149 26.4459 21.2331 27.0748 20.7784 27.5298C20.3234 27.9845 19.6944 28.2663 18.9999 28.2663C18.3057 28.2663 17.677 27.9845 17.222 27.5298L17.1806 27.4844C16.75 27.0323 16.4856 26.422 16.4856 25.7516Z" fill="#31572C"/>
</svg>
